<?xml version="1.0" encoding="utf-8"?>
<svg version="1.1" xmlns:xlink="http://www.w3.org/1999/xlink" width="28px" height="10px" preserveAspectRatio="xMinYMid meet" viewBox="1527 590  28 8" xmlns="http://www.w3.org/2000/svg">
  <path d="M 1528 594.5  L 1548 594.5  A 2 2 0 0 0 1550.5 592.5 A 2 2 0 0 1 1552.5 590.5 L 1558 590.5  A 5 5 0 0 1 1563.5 595.5 L 1563.5 600  " stroke-width="1" stroke="#ff3399" fill="none" />
  <path d="M 1530 591.5  A 3 3 0 0 0 1527 594.5 A 3 3 0 0 0 1530 597.5 A 3 3 0 0 0 1533 594.5 A 3 3 0 0 0 1530 591.5 Z " fill-rule="nonzero" fill="#ff3399" stroke="none" />
</svg>