<?xml version="1.0" encoding="utf-8"?>
<svg version="1.1" xmlns:xlink="http://www.w3.org/1999/xlink" width="38px" height="36px" xmlns="http://www.w3.org/2000/svg">
  <g transform="matrix(1 0 0 1 -720 -1006 )">
    <path d="M 19.0007896611111 36  C 13.92616685 36  9.15549205277778 34.1284892  5.56706058888889 30.7308673  C 1.97862912500001 27.3332453  0 22.8100687  0 17.9993298  C 0 13.1885909  1.97739130666666 8.66801377  5.56582277055554 5.26913274  C 9.15425423444443 1.87025172  13.9240752666667 0  18.9995518111111 0  C 24.0750283555555 0  28.8448493666667 1.87151082  32.4328540166667 5.26913274  C 36.0208586666667 8.66675467  38 13.1898906  38 17.9977458  C 38 22.805601  36.0229501444445 27.3304022  32.4329394111111 30.7292426  C 28.8429286777778 34.128083  24.0755405111111 36  19.0008323055556 36  Z M 30.9457513555556 6.68956941  C 27.7579216444444 3.66986322  23.5138710611111 2  19.0013054055555 2  C 14.4874561944445 2  10.2451762211111 3.66476279  7.05557590000003 6.68826269  C 3.86597558944444 9.7117626  2.11111111111111 13.7275697  2.11111111111111 18.0008009  C 2.11111111111111 22.2740321  3.86637397722222 26.2919468  7.05424793722224 29.3117373  C 10.2421218972222 32.3315278  14.4848445388889 34  19.0000217444444 34  C 23.51519895 34  27.75615095 32.3356587  30.9457513555556 29.3117373  C 34.1353516555555 26.2878159  35.8902161444444 22.2723881  35.8888888888889 17.999157  C 35.8875601555555 13.7259679  34.1335809611111 9.70927561000001  30.9457513555556 6.68956941  Z M 8.44444444444444 18  C 8.44444444444444 17.4477153  8.91703276388888 17  9.5 17  L 28.5 17  C 29.0829671833333 17  29.5555555555556 17.4477153  29.5555555555556 18  C 29.5555555555556 18.5522847  29.0829671833333 19  28.5 19  L 9.5 19  C 8.91703276388888 19  8.44444444444444 18.5522847  8.44444444444444 18  Z M 18 9  C 17.9444444444444 8.44771525  18.4170328166667 8  19 8  C 19.5829671833333 8  20.0555555555556 8.44771525  20 9  L 20 27  C 20.0555555555556 27.5522847  19.5829671833333 28  19 28  C 18.4170328166667 28  17.9444444444444 27.5522847  18 27  L 18 9  Z " fill-rule="nonzero" fill="#409eff" stroke="none" transform="matrix(1 0 0 1 720 1006 )" />
  </g>
</svg>