<?xml version="1.0" encoding="utf-8"?>
<svg version="1.1" xmlns:xlink="http://www.w3.org/1999/xlink" width="1182px" height="160px" xmlns="http://www.w3.org/2000/svg">
  <g transform="matrix(1 0 0 1 -262 -944 )">
    <path d="M 263 948  A 3 3 0 0 1 266 945 L 1440 945  A 3 3 0 0 1 1443 948 L 1443 1100  A 3 3 0 0 1 1440 1103 L 266 1103  A 3 3 0 0 1 263 1100 L 263 948  Z " fill-rule="nonzero" fill="#edf5ff" stroke="none" />
    <path d="M 262.5 948  A 3.5 3.5 0 0 1 266 944.5 L 1440 944.5  A 3.5 3.5 0 0 1 1443.5 948 L 1443.5 1100  A 3.5 3.5 0 0 1 1440 1103.5 L 266 1103.5  A 3.5 3.5 0 0 1 262.5 1100 L 262.5 948  Z " stroke-width="1" stroke-dasharray="9,4" stroke="#409eff" fill="none" stroke-dashoffset="0.5" />
  </g>
</svg>