<?xml version="1.0" encoding="utf-8"?>
<svg version="1.1" xmlns:xlink="http://www.w3.org/1999/xlink" width="395px" height="36px" xmlns="http://www.w3.org/2000/svg">
  <defs>
    <mask fill="white" id="clip624">
      <path d="M 0 34  L 0 10  L 0 2  C 0 0.879999999999995  0.880000000000003 0  2 0  L 393 0  C 394.12 0  395 0.879999999999995  395 2  L 395 34  C 395 35.12  394.12 36  393 36  L 2 36  C 0.880000000000003 36  0 35.12  0 34  Z " fill-rule="evenodd" />
    </mask>
  </defs>
  <g transform="matrix(1 0 0 1 -39 -113 )">
    <path d="M 0 34  L 0 10  L 0 2  C 0 0.879999999999995  0.880000000000003 0  2 0  L 393 0  C 394.12 0  395 0.879999999999995  395 2  L 395 34  C 395 35.12  394.12 36  393 36  L 2 36  C 0.880000000000003 36  0 35.12  0 34  Z " fill-rule="nonzero" fill="#ffffff" stroke="none" transform="matrix(1 0 0 1 39 113 )" />
    <path d="M 0 34  L 0 10  L 0 2  C 0 0.879999999999995  0.880000000000003 0  2 0  L 393 0  C 394.12 0  395 0.879999999999995  395 2  L 395 34  C 395 35.12  394.12 36  393 36  L 2 36  C 0.880000000000003 36  0 35.12  0 34  Z " stroke-width="2" stroke="#409eff" fill="none" transform="matrix(1 0 0 1 39 113 )" mask="url(#clip624)" />
  </g>
</svg>