<?xml version="1.0" encoding="utf-8"?>
<svg version="1.1" xmlns:xlink="http://www.w3.org/1999/xlink" width="12px" height="13px" xmlns="http://www.w3.org/2000/svg">
  <g transform="matrix(1 0 0 1 -25 -14 )">
    <path d="M 11.0986394601004 1.77976190908004  C 11.0986394601004 1.44812925601883  10.8775510204081 1.14413265306121  10.5735544174506 1.00595237663424  C 8.97066326530613 0.370323133569855  7.45068027642698 0.0386904805086488  5.57142857142857 0.0386904805086488  C 3.69217686643016 0.0386904805086488  2.17219387755101 0.397959183673493  0.569302725406558 1.00595237663424  C 0.26530612244899 1.14413265306121  0.0442176827566954 1.44812925601883  0.0442176827566954 1.77976190908004  L 0.0442176827566954 6.97534013173629  C 0.0442176827566954 9.68367346938777  3.91326530612244 11.9774659907127  5.21215986826371 12.6130952337771  C 5.43324830795599 12.7236394471461  5.70960884785555 12.7236394471461  5.95833333765147 12.6130952337771  C 7.2295918367347 11.9774659907127  11.0986394601004 9.68367346938777  11.0986394601004 6.97534013173629  L 11.0986394601004 1.77976190908004  Z M 9.35756803152901 3.57610543785876  C 9.49574830795599 3.6866496512277  9.49574830795599 3.8524659777583  9.38520408163265 3.96301020408168  L 5.26743196847097 8.08078231724335  C 5.15688775510205 8.19132653061223  4.99107142857143 8.19132653061223  4.88052721520249 8.08078231724335  L 2.33801020408163 5.53826530612247  C 2.22746599071269 5.42772109275347  2.22746599071269 5.26190476622293  2.33801020408163 5.15136053989954  C 2.44855441745058 5.0408163265306  2.61437074398118 5.0408163265306  2.72491497030454 5.15136053989954  L 5.07397959183673 7.50042517438618  L 8.97066326530613 3.57610543785876  C 9.08120747867505 3.46556122448976  9.24702380520567 3.46556122448976  9.35756803152901 3.57610543785876  Z " fill-rule="nonzero" fill="#606266" stroke="none" transform="matrix(1 0 0 1 25 14 )" />
  </g>
</svg>