<?xml version="1.0" encoding="utf-8"?>
<svg version="1.1" xmlns:xlink="http://www.w3.org/1999/xlink" width="11px" height="11px" xmlns="http://www.w3.org/2000/svg">
  <g transform="matrix(1 0 0 1 -20 -24 )">
    <path d="M 10.2593130716464 11  C 10.6352896341464 10.9520226226994  10.9392149390244 10.6462327453988  10.9333333333333 10.2679495782209  L 10.9333333333333 1.37895417944785  C 10.9365948932926 1.00198907208588  10.6326695884146 0.694881134969336  10.2580030487804 0.67073170731706  L 9.57810118140242 0.67073170731706  L 9.57810118140242 0.353503642638032  C 9.57810118140242 0.165021088957047  9.42613852896341 0.0121261503067558  9.23880525914637 0  L 8.55890339176824 0  C 8.37157012195121 0.0121261503067558  8.2196074695122 0.165021088957047  8.2196074695122 0.353503642638032  L 8.2196074695122 0.67073170731706  L 2.78301257621956 0.67073170731706  L 2.78301257621956 0.353503642638032  C 2.78301257621956 0.165021088957047  2.63104992378044 0.0121261503067558  2.44371665396341 0  L 1.76381478658539 0  C 1.57648151676824 0.0121261503067558  1.42451886432923 0.165021088957047  1.42451886432923 0.353503642638032  L 1.42451886432923 0.67073170731706  L 0.744616996951208 0.67073170731706  C 0.368640434451208 0.694881134969336  0.0647151295731874 1.00067101226995  0.0666666666667197 1.37895417944785  L 0.0666666666667197 10.2679495782209  C 0.0647151295731874 10.6462327453988  0.368640434451208 10.9520226226994  0.744616996951208 11  L 10.2593130716464 11  Z M 1.26666666666665 9.72560975609755  L 1.26666666666665 3.28658536585365  L 9.73333333333335 3.28658536585365  L 9.73333333333335 9.72560975609755  L 1.26666666666665 9.72560975609755  Z M 8.09259406887759 4.36002246887702  L 7.58091517857144 4.36002246887702  C 7.20340401785711 4.36002246887702  6.8982382015306 4.66901319550306  6.8982382015306 5.05125603404471  C 6.89955357142856 5.43349887258637  7.20471938775506 5.74248959921241  7.58091517857144 5.74248959921241  L 8.09259406887759 5.74248959921241  C 8.47010522959181 5.74248959921241  8.77527104591832 5.43349887258637  8.77527104591832 5.05125603404471  C 8.77527104591832 4.66901319550306  8.47010522959181 4.36002246887702  8.09259406887759 4.36002246887702  Z M 5.7551817602041 4.36002246887702  L 5.24350286989795 4.36002246887702  C 4.86599170918362 4.36002246887702  4.56082589285711 4.66901319550306  4.56082589285711 5.05125603404471  C 4.56214126275506 5.43349887258637  4.86730707908168 5.74248959921241  5.24350286989795 5.74248959921241  L 5.7551817602041 5.74248959921241  C 6.13269292091832 5.74248959921241  6.43785873724494 5.43349887258637  6.43785873724494 5.05125603404471  C 6.43785873724494 4.66901319550306  6.13269292091832 4.36002246887702  5.7551817602041 4.36002246887702  Z M 3.41908482142856 4.36002246887702  L 2.90740593112241 4.36002246887702  C 2.52989477040819 4.36002246887702  2.22472895408168 4.66901319550306  2.22472895408168 5.05125603404471  C 2.22472895408168 5.43349887258637  2.52989477040819 5.74248959921241  2.90740593112241 5.74248959921241  L 3.41908482142856 5.74248959921241  C 3.79659598214289 5.74248959921241  4.1017617984694 5.43349887258637  4.1017617984694 5.05125603404471  C 4.1017617984694 4.66901319550306  3.79659598214289 4.36002246887702  3.41908482142856 4.36002246887702  Z M 8.09259406887759 7.00908520706301  L 7.58091517857144 7.00908520706301  C 7.20340401785711 7.00908520706301  6.8982382015306 7.31807593368902  6.8982382015306 7.7003187722307  C 6.89955357142856 8.08256161077236  7.20471938775506 8.39155233739837  7.58091517857144 8.39155233739837  L 8.09259406887759 8.39155233739837  C 8.47010522959181 8.39155233739837  8.77527104591832 8.08256161077236  8.77527104591832 7.7003187722307  C 8.77527104591832 7.31807593368902  8.47010522959181 7.00908520706301  8.09259406887759 7.00908520706301  Z M 5.7551817602041 7.00908520706301  L 5.24350286989795 7.00908520706301  C 4.86599170918362 7.00908520706301  4.56082589285711 7.31807593368902  4.56082589285711 7.7003187722307  C 4.56214126275506 8.08256161077236  4.86730707908168 8.39155233739837  5.24350286989795 8.39155233739837  L 5.7551817602041 8.39155233739837  C 6.13269292091832 8.39155233739837  6.43785873724494 8.08256161077236  6.43785873724494 7.7003187722307  C 6.43785873724494 7.31807593368902  6.13269292091832 7.00908520706301  5.7551817602041 7.00908520706301  Z M 3.41908482142856 7.00908520706301  L 2.90740593112241 7.00908520706301  C 2.52989477040819 7.00908520706301  2.22472895408168 7.31807593368902  2.22472895408168 7.7003187722307  C 2.22472895408168 8.08256161077236  2.52989477040819 8.39155233739837  2.90740593112241 8.39155233739837  L 3.41908482142856 8.39155233739837  C 3.79659598214289 8.39155233739837  4.1017617984694 8.08256161077236  4.1017617984694 7.7003187722307  C 4.1017617984694 7.31807593368902  3.79659598214289 7.00908520706301  3.41908482142856 7.00908520706301  Z " fill-rule="nonzero" fill="#98a6ad" stroke="none" transform="matrix(1 0 0 1 20 24 )" />
  </g>
</svg>