<?xml version="1.0" encoding="utf-8"?>
<svg version="1.1" xmlns:xlink="http://www.w3.org/1999/xlink" width="14px" height="14px" xmlns="http://www.w3.org/2000/svg">
  <g transform="matrix(1 0 0 1 -12 -13 )">
    <path d="M 13.6666666666667 11.6666666666667  C 13.6666666666667 12.7712361663283  12.7712361663283 13.6666666666667  11.6666666666667 13.6666666666667  L 2.33333333333333 13.6666666666667  C 1.22876383367175 13.6666666666667  0.333333333333333 12.7712361663283  0.333333333333333 11.6666666666667  L 0.333333333333333 1  C 0.333333333333333 0.631810166779471  0.631810166779471 0.333333333333333  1 0.333333333333333  L 10.3333333333333 0.333333333333333  C 10.7015231665539 0.333333333333333  11 0.631810166779471  11 1  L 11 9  L 13.6666666666667 9  L 13.6666666666667 11.6666666666667  Z M 12.3333333333333 10.3333333333333  L 11 10.3333333333333  L 11 11.6666666666667  C 11 12.0348564998872  11.2984768334461 12.3333333333333  11.6666666666667 12.3333333333333  C 12.0348564998872 12.3333333333333  12.3333333333333 12.0348564998872  12.3333333333333 11.6666666666667  L 12.3333333333333 10.3333333333333  Z M 2.33333333333333 12.3333333333333  L 9.66666666666667 12.3333333333333  L 9.66666666666667 1.66666666666667  L 1.66666666666667 1.66666666666667  L 1.66666666666667 11.6666666666667  C 1.66666666666667 12.0348564998872  1.9651435001128 12.3333333333333  2.33333333333333 12.3333333333333  Z M 3 5  L 3 3.66666666666667  L 8.33333333333333 3.66666666666667  L 8.33333333333333 5  L 3 5  Z M 3 7.66666666666667  L 3 6.33333333333333  L 8.33333333333333 6.33333333333333  L 8.33333333333333 7.66666666666667  L 3 7.66666666666667  Z M 3 10.3333333333333  L 3 9  L 6.33333333333333 9  L 6.33333333333333 10.3333333333333  L 3 10.3333333333333  Z " fill-rule="nonzero" fill="#86909c" stroke="none" transform="matrix(1 0 0 1 12 13 )" />
  </g>
</svg>