<?xml version="1.0" encoding="utf-8"?>
<svg version="1.1" xmlns:xlink="http://www.w3.org/1999/xlink" width="13px" height="9px" xmlns="http://www.w3.org/2000/svg">
  <g transform="matrix(1 0 0 1 -859 -279 )">
    <path d="M 12.8769659428191 4.5  C 12.8769659428191 2.06202333111702  10.0215130039893 0.0851712965425691  6.49999114893619 0.0851712965425691  C 2.97846929388299 0.0851712965425691  0.123016355053194 2.06202333111702  0.123016355053194 4.5  C 0.123016355053194 6.93797666888298  2.97846929388299 8.91481646010641  6.49999114893619 8.91481646010641  C 10.0215130039893 8.91481646010641  12.8769659428191 6.93797666888298  12.8769659428191 4.5  Z M 7.00170103058512 4.5  L 9.52249203058511 6.24535894148937  C 9.65164770478725 6.33457845478722  9.65164770478725 6.48078332313833  9.52249203058511 6.57002733510637  L 9.48999524601062 6.59261082446807  C 9.36112261569147 6.68192830851063  9.14992012101066 6.68192830851063  9.0210474906915 6.59261082446807  L 6.49999114893619 4.84734985372342  L 3.97891712234043 6.59259858111704  C 3.85004449202128 6.68191606515956  3.63884199734042 6.68191606515956  3.50996936702127 6.59259858111704  L 3.4772072406915 6.57001507978725  C 3.3483169255319 6.48077107978725  3.3483169255319 6.3345661994681  3.4772072406915 6.24534669813829  L 5.99989107180849 4.49998775664892  L 3.4772072406915 2.75464105851063  C 3.3483169255319 2.6654093018617  3.3483169255319 2.51920443351065  3.4772072406915 2.42997266489363  L 3.50996936702127 2.40729119281917  C 3.63884199734042 2.31807167952127  3.85004449202128 2.31807167952127  3.97891712234043 2.40729119281917  L 6.49999114893619 4.15367888696807  L 9.02106519281916 2.40833218882977  C 9.14993782313832 2.31901470478721  9.36114031781917 2.31901470478721  9.49001294813828 2.40833218882977  L 9.52250971542555 2.43091569015957  C 9.65166538962765 2.52014744680849  9.65166538962765 2.6663523151596  9.52250971542555 2.75558407180853  L 7.00170103058512 4.5  Z " fill-rule="nonzero" fill="#c0c4cc" stroke="none" transform="matrix(1 0 0 1 859 279 )" />
  </g>
</svg>