<?xml version="1.0" encoding="utf-8"?>
<svg version="1.1" xmlns:xlink="http://www.w3.org/1999/xlink" width="18px" height="18px" preserveAspectRatio="xMinYMid meet" viewBox="1347 700  18 16" xmlns="http://www.w3.org/2000/svg">
  <path d="M 1354 708.5  L 1376 708.5  A 4 4 0 0 0 1380.5 704.5 A 4 4 0 0 1 1384.5 700.5 L 1410 700.5  A 5 5 0 0 1 1415.5 705.5 L 1415.5 714  " stroke-width="1" stroke="#ff3399" fill="none" />
  <path d="M 1356 705.5  A 3 3 0 0 0 1353 708.5 A 3 3 0 0 0 1356 711.5 A 3 3 0 0 0 1359 708.5 A 3 3 0 0 0 1356 705.5 Z " fill-rule="nonzero" fill="#ff3399" stroke="none" />
</svg>