<?xml version="1.0" encoding="utf-8"?>
<svg version="1.1" xmlns:xlink="http://www.w3.org/1999/xlink" width="12px" height="12px" viewBox="1590 456.5  12 12" xmlns="http://www.w3.org/2000/svg">
  <path d="M 1596 456.5  C 1599.36 456.5  1602 459.14  1602 462.5  C 1602 465.86  1599.36 468.5  1596 468.5  C 1592.64 468.5  1590 465.86  1590 462.5  C 1590 459.14  1592.64 456.5  1596 456.5  Z " fill-rule="nonzero" fill="#f0f0f0" stroke="none" />
  <path d="M 1596 457  C 1599.08 457  1601.5 459.42  1601.5 462.5  C 1601.5 465.58  1599.08 468  1596 468  C 1592.92 468  1590.5 465.58  1590.5 462.5  C 1590.5 459.42  1592.92 457  1596 457  Z " stroke-width="1" stroke="#797979" fill="none" />
  <path d="M 1596 465.5  C 1594.32 465.5  1593 464.18  1593 462.5  C 1593 460.82  1594.32 459.5  1596 459.5  C 1597.68 459.5  1599 460.82  1599 462.5  C 1599 464.18  1597.68 465.5  1596 465.5  " fill-rule="nonzero" fill="#797979" stroke="none" />
</svg>