<?xml version="1.0" encoding="utf-8"?>
<svg version="1.1" xmlns:xlink="http://www.w3.org/1999/xlink" width="12px" height="12px" viewBox="1710 456.5  12 12" xmlns="http://www.w3.org/2000/svg">
  <path d="M 1716 456.5  C 1719.36 456.5  1722 459.14  1722 462.5  C 1722 465.86  1719.36 468.5  1716 468.5  C 1712.64 468.5  1710 465.86  1710 462.5  C 1710 459.14  1712.64 456.5  1716 456.5  Z " fill-rule="nonzero" fill="#f0f0f0" stroke="none" />
  <path d="M 1716 457  C 1719.08 457  1721.5 459.42  1721.5 462.5  C 1721.5 465.58  1719.08 468  1716 468  C 1712.92 468  1710.5 465.58  1710.5 462.5  C 1710.5 459.42  1712.92 457  1716 457  Z " stroke-width="1" stroke="#797979" fill="none" />
  <path d="M 1716 465.5  C 1714.32 465.5  1713 464.18  1713 462.5  C 1713 460.82  1714.32 459.5  1716 459.5  C 1717.68 459.5  1719 460.82  1719 462.5  C 1719 464.18  1717.68 465.5  1716 465.5  " fill-rule="nonzero" fill="#797979" stroke="none" />
</svg>