<?xml version="1.0" encoding="utf-8"?>
<svg version="1.1" xmlns:xlink="http://www.w3.org/1999/xlink" width="10px" height="20px" preserveAspectRatio="xMidYMin meet" viewBox="1926 315  8 20" xmlns="http://www.w3.org/2000/svg">
  <path d="M 1907 330.5  L 1925 330.5  A 5 5 0 0 0 1930.5 325.5 A 5 5 0 0 1 1935.5 320.5 L 1977 320.5  A 5 5 0 0 1 1982.5 325.5 L 1982.5 336  " stroke-width="1" stroke="#ff3399" fill="none" />
  <path d="M 1909 327.5  A 3 3 0 0 0 1906 330.5 A 3 3 0 0 0 1909 333.5 A 3 3 0 0 0 1912 330.5 A 3 3 0 0 0 1909 327.5 Z " fill-rule="nonzero" fill="#ff3399" stroke="none" />
</svg>