<?xml version="1.0" encoding="utf-8"?>
<svg version="1.1" xmlns:xlink="http://www.w3.org/1999/xlink" width="12px" height="12px" viewBox="1646 456.5  12 12" xmlns="http://www.w3.org/2000/svg">
  <path d="M 1652 456.5  C 1655.36 456.5  1658 459.14  1658 462.5  C 1658 465.86  1655.36 468.5  1652 468.5  C 1648.64 468.5  1646 465.86  1646 462.5  C 1646 459.14  1648.64 456.5  1652 456.5  Z " fill-rule="nonzero" fill="#f0f0f0" stroke="none" />
  <path d="M 1652 457  C 1655.08 457  1657.5 459.42  1657.5 462.5  C 1657.5 465.58  1655.08 468  1652 468  C 1648.92 468  1646.5 465.58  1646.5 462.5  C 1646.5 459.42  1648.92 457  1652 457  Z " stroke-width="1" stroke="#797979" fill="none" />
  <path d="M 1652 465.5  C 1650.32 465.5  1649 464.18  1649 462.5  C 1649 460.82  1650.32 459.5  1652 459.5  C 1653.68 459.5  1655 460.82  1655 462.5  C 1655 464.18  1653.68 465.5  1652 465.5  " fill-rule="nonzero" fill="#797979" stroke="none" />
</svg>