<?xml version="1.0" encoding="utf-8"?>
<svg version="1.1" xmlns:xlink="http://www.w3.org/1999/xlink" width="12px" height="12px" xmlns="http://www.w3.org/2000/svg">
  <g transform="matrix(1 0 0 1 -94 -167 )">
    <path d="M 100 169  C 102.24 169  104 170.76  104 173  C 104 175.24  102.24 177  100 177  C 97.76 177  96 175.24  96 173  C 96 170.76  97.76 169  100 169  Z " fill-rule="nonzero" fill="#ffffff" stroke="none" />
    <path d="M 100 168.5  C 102.52 168.5  104.5 170.48  104.5 173  C 104.5 175.52  102.52 177.5  100 177.5  C 97.48 177.5  95.5 175.52  95.5 173  C 95.5 170.48  97.48 168.5  100 168.5  Z " stroke-width="3" stroke="#409eff" fill="none" />
  </g>
</svg>