<?xml version="1.0" encoding="utf-8"?>
<svg version="1.1" xmlns:xlink="http://www.w3.org/1999/xlink" width="12px" height="12px" xmlns="http://www.w3.org/2000/svg">
  <g transform="matrix(1 0 0 1 -94 -167 )">
    <path d="M 100 167  C 103.36 167  106 169.64  106 173  C 106 176.36  103.36 179  100 179  C 96.64 179  94 176.36  94 173  C 94 169.64  96.64 167  100 167  Z " fill-rule="nonzero" fill="#ffffff" stroke="none" />
    <path d="M 100 167.5  C 103.08 167.5  105.5 169.92  105.5 173  C 105.5 176.08  103.08 178.5  100 178.5  C 96.92 178.5  94.5 176.08  94.5 173  C 94.5 169.92  96.92 167.5  100 167.5  Z " stroke-width="1" stroke="#409eff" fill="none" />
  </g>
</svg>