<?xml version="1.0" encoding="utf-8"?>
<svg version="1.1" xmlns:xlink="http://www.w3.org/1999/xlink" width="8px" height="5px" xmlns="http://www.w3.org/2000/svg">
  <g transform="matrix(1 0 0 1 -1320 -175 )">
    <path d="M 7.78341463414631 0.0571707317072594  L 7.92156097560974 0.195121951219505  C 7.99773306113809 0.271317044192443  7.99773306113809 0.394829297271087  7.92156097560974 0.471024390244025  L 4.12741463414636 4.26536585365849  C 4.09081594982592 4.30200527668896  4.04115302401931 4.32259251832511  3.98936585365857 4.32259251832511  C 3.93757868329772 4.32259251832511  3.88791575749121 4.30200527668896  3.85131707317078 4.26536585365849  L 0.0571707317072878 0.471024390244025  C -0.0190013538210678 0.394829297271087  -0.0190013538210678 0.271317044192443  0.0571707317072878 0.195121951219505  L 0.195121951219562 0.0571707317072594  C 0.271317044192301 -0.0190013538209257  0.394829297271031 -0.0190013538209257  0.471024390243883 0.0571707317072594  L 3.98926829268294 3.57541463414637  L 7.50770731707314 0.0571707317072594  C 7.58390241004599 -0.0190013538209257  7.70741466312472 -0.0190013538209257  7.78360975609758 0.0571707317072594  Z " fill-rule="nonzero" fill="#909399" stroke="none" fill-opacity="0.647058823529412" transform="matrix(1 0 0 1 1320 175 )" />
  </g>
</svg>