<?xml version="1.0" encoding="utf-8"?>
<svg version="1.1" xmlns:xlink="http://www.w3.org/1999/xlink" width="12px" height="12px" viewBox="419 2430  12 12" xmlns="http://www.w3.org/2000/svg">
  <path d="M 425 2430  C 428.36 2430  431 2432.64  431 2436  C 431 2439.36  428.36 2442  425 2442  C 421.64 2442  419 2439.36  419 2436  C 419 2432.64  421.64 2430  425 2430  Z " fill-rule="nonzero" fill="#f0f0f0" stroke="none" />
  <path d="M 425 2430.5  C 428.08 2430.5  430.5 2432.92  430.5 2436  C 430.5 2439.08  428.08 2441.5  425 2441.5  C 421.92 2441.5  419.5 2439.08  419.5 2436  C 419.5 2432.92  421.92 2430.5  425 2430.5  Z " stroke-width="1" stroke="#797979" fill="none" />
  <path d="M 425 2439  C 423.32 2439  422 2437.68  422 2436  C 422 2434.32  423.32 2433  425 2433  C 426.68 2433  428 2434.32  428 2436  C 428 2437.68  426.68 2439  425 2439  " fill-rule="nonzero" fill="#797979" stroke="none" />
</svg>