<?xml version="1.0" encoding="utf-8"?>
<svg version="1.1" xmlns:xlink="http://www.w3.org/1999/xlink" width="12px" height="12px" viewBox="419 2556  12 12" xmlns="http://www.w3.org/2000/svg">
  <path d="M 425 2556  C 428.36 2556  431 2558.64  431 2562  C 431 2565.36  428.36 2568  425 2568  C 421.64 2568  419 2565.36  419 2562  C 419 2558.64  421.64 2556  425 2556  Z " fill-rule="nonzero" fill="#ffffff" stroke="none" />
  <path d="M 425 2556.5  C 428.08 2556.5  430.5 2558.92  430.5 2562  C 430.5 2565.08  428.08 2567.5  425 2567.5  C 421.92 2567.5  419.5 2565.08  419.5 2562  C 419.5 2558.92  421.92 2556.5  425 2556.5  Z " stroke-width="1" stroke="#797979" fill="none" />
  <path d="M 425 2565  C 423.32 2565  422 2563.68  422 2562  C 422 2560.32  423.32 2559  425 2559  C 426.68 2559  428 2560.32  428 2562  C 428 2563.68  426.68 2565  425 2565  " fill-rule="nonzero" fill="#797979" stroke="none" />
</svg>