<?xml version="1.0" encoding="utf-8"?>
<svg version="1.1" xmlns:xlink="http://www.w3.org/1999/xlink" width="12px" height="12px" viewBox="656 1246  12 12" xmlns="http://www.w3.org/2000/svg">
  <path d="M 662 1246  C 665.36 1246  668 1248.64  668 1252  C 668 1255.36  665.36 1258  662 1258  C 658.64 1258  656 1255.36  656 1252  C 656 1248.64  658.64 1246  662 1246  Z " fill-rule="nonzero" fill="#f0f0f0" stroke="none" />
  <path d="M 662 1246.5  C 665.08 1246.5  667.5 1248.92  667.5 1252  C 667.5 1255.08  665.08 1257.5  662 1257.5  C 658.92 1257.5  656.5 1255.08  656.5 1252  C 656.5 1248.92  658.92 1246.5  662 1246.5  Z " stroke-width="1" stroke="#797979" fill="none" />
  <path d="M 662 1255  C 660.32 1255  659 1253.68  659 1252  C 659 1250.32  660.32 1249  662 1249  C 663.68 1249  665 1250.32  665 1252  C 665 1253.68  663.68 1255  662 1255  " fill-rule="nonzero" fill="#797979" stroke="none" />
</svg>