<?xml version="1.0" encoding="utf-8"?>
<svg version="1.1" xmlns:xlink="http://www.w3.org/1999/xlink" width="12px" height="12px" viewBox="412 656  12 12" xmlns="http://www.w3.org/2000/svg">
  <path d="M 418 656  C 421.36 656  424 658.64  424 662  C 424 665.36  421.36 668  418 668  C 414.64 668  412 665.36  412 662  C 412 658.64  414.64 656  418 656  Z " fill-rule="nonzero" fill="#f0f0f0" stroke="none" />
  <path d="M 418 656.5  C 421.08 656.5  423.5 658.92  423.5 662  C 423.5 665.08  421.08 667.5  418 667.5  C 414.92 667.5  412.5 665.08  412.5 662  C 412.5 658.92  414.92 656.5  418 656.5  Z " stroke-width="1" stroke="#797979" fill="none" />
  <path d="M 418 665  C 416.32 665  415 663.68  415 662  C 415 660.32  416.32 659  418 659  C 419.68 659  421 660.32  421 662  C 421 663.68  419.68 665  418 665  " fill-rule="nonzero" fill="#797979" stroke="none" />
</svg>