<?xml version="1.0" encoding="utf-8"?>
<svg version="1.1" xmlns:xlink="http://www.w3.org/1999/xlink" width="12px" height="12px" viewBox="419 2510  12 12" xmlns="http://www.w3.org/2000/svg">
  <path d="M 425 2510  C 428.36 2510  431 2512.64  431 2516  C 431 2519.36  428.36 2522  425 2522  C 421.64 2522  419 2519.36  419 2516  C 419 2512.64  421.64 2510  425 2510  Z " fill-rule="nonzero" fill="#f0f0f0" stroke="none" />
  <path d="M 425 2510.5  C 428.08 2510.5  430.5 2512.92  430.5 2516  C 430.5 2519.08  428.08 2521.5  425 2521.5  C 421.92 2521.5  419.5 2519.08  419.5 2516  C 419.5 2512.92  421.92 2510.5  425 2510.5  Z " stroke-width="1" stroke="#797979" fill="none" />
  <path d="M 425 2519  C 423.32 2519  422 2517.68  422 2516  C 422 2514.32  423.32 2513  425 2513  C 426.68 2513  428 2514.32  428 2516  C 428 2517.68  426.68 2519  425 2519  " fill-rule="nonzero" fill="#797979" stroke="none" />
</svg>