<?xml version="1.0" encoding="utf-8"?>
<svg version="1.1" xmlns:xlink="http://www.w3.org/1999/xlink" width="12px" height="12px" viewBox="414 2227  12 12" xmlns="http://www.w3.org/2000/svg">
  <path d="M 420 2227  C 423.36 2227  426 2229.64  426 2233  C 426 2236.36  423.36 2239  420 2239  C 416.64 2239  414 2236.36  414 2233  C 414 2229.64  416.64 2227  420 2227  Z " fill-rule="nonzero" fill="#f0f0f0" stroke="none" />
  <path d="M 420 2227.5  C 423.08 2227.5  425.5 2229.92  425.5 2233  C 425.5 2236.08  423.08 2238.5  420 2238.5  C 416.92 2238.5  414.5 2236.08  414.5 2233  C 414.5 2229.92  416.92 2227.5  420 2227.5  Z " stroke-width="1" stroke="#797979" fill="none" />
  <path d="M 420 2236  C 418.32 2236  417 2234.68  417 2233  C 417 2231.32  418.32 2230  420 2230  C 421.68 2230  423 2231.32  423 2233  C 423 2234.68  421.68 2236  420 2236  " fill-rule="nonzero" fill="#797979" stroke="none" />
</svg>