<?xml version="1.0" encoding="utf-8"?>
<svg version="1.1" xmlns:xlink="http://www.w3.org/1999/xlink" width="12px" height="12px" viewBox="656 1187  12 12" xmlns="http://www.w3.org/2000/svg">
  <path d="M 662 1187  C 665.36 1187  668 1189.64  668 1193  C 668 1196.36  665.36 1199  662 1199  C 658.64 1199  656 1196.36  656 1193  C 656 1189.64  658.64 1187  662 1187  Z " fill-rule="nonzero" fill="#f0f0f0" stroke="none" />
  <path d="M 662 1187.5  C 665.08 1187.5  667.5 1189.92  667.5 1193  C 667.5 1196.08  665.08 1198.5  662 1198.5  C 658.92 1198.5  656.5 1196.08  656.5 1193  C 656.5 1189.92  658.92 1187.5  662 1187.5  Z " stroke-width="1" stroke="#797979" fill="none" />
  <path d="M 662 1196  C 660.32 1196  659 1194.68  659 1193  C 659 1191.32  660.32 1190  662 1190  C 663.68 1190  665 1191.32  665 1193  C 665 1194.68  663.68 1196  662 1196  " fill-rule="nonzero" fill="#797979" stroke="none" />
</svg>