<?xml version="1.0" encoding="utf-8"?>
<svg version="1.1" xmlns:xlink="http://www.w3.org/1999/xlink" width="12px" height="12px" viewBox="414 2201  12 12" xmlns="http://www.w3.org/2000/svg">
  <path d="M 420 2201  C 423.36 2201  426 2203.64  426 2207  C 426 2210.36  423.36 2213  420 2213  C 416.64 2213  414 2210.36  414 2207  C 414 2203.64  416.64 2201  420 2201  Z " fill-rule="nonzero" fill="#f0f0f0" stroke="none" />
  <path d="M 420 2201.5  C 423.08 2201.5  425.5 2203.92  425.5 2207  C 425.5 2210.08  423.08 2212.5  420 2212.5  C 416.92 2212.5  414.5 2210.08  414.5 2207  C 414.5 2203.92  416.92 2201.5  420 2201.5  Z " stroke-width="1" stroke="#797979" fill="none" />
  <path d="M 420 2210  C 418.32 2210  417 2208.68  417 2207  C 417 2205.32  418.32 2204  420 2204  C 421.68 2204  423 2205.32  423 2207  C 423 2208.68  421.68 2210  420 2210  " fill-rule="nonzero" fill="#797979" stroke="none" />
</svg>