<?xml version="1.0" encoding="utf-8"?>
<svg version="1.1" xmlns:xlink="http://www.w3.org/1999/xlink" width="12px" height="12px" viewBox="412 635  12 12" xmlns="http://www.w3.org/2000/svg">
  <path d="M 418 635  C 421.36 635  424 637.64  424 641  C 424 644.36  421.36 647  418 647  C 414.64 647  412 644.36  412 641  C 412 637.64  414.64 635  418 635  Z " fill-rule="nonzero" fill="#f0f0f0" stroke="none" />
  <path d="M 418 635.5  C 421.08 635.5  423.5 637.92  423.5 641  C 423.5 644.08  421.08 646.5  418 646.5  C 414.92 646.5  412.5 644.08  412.5 641  C 412.5 637.92  414.92 635.5  418 635.5  Z " stroke-width="1" stroke="#797979" fill="none" />
  <path d="M 418 644  C 416.32 644  415 642.68  415 641  C 415 639.32  416.32 638  418 638  C 419.68 638  421 639.32  421 641  C 421 642.68  419.68 644  418 644  " fill-rule="nonzero" fill="#797979" stroke="none" />
</svg>