<?xml version="1.0" encoding="utf-8"?>
<svg version="1.1" xmlns:xlink="http://www.w3.org/1999/xlink" width="12px" height="12px" viewBox="412 609  12 12" xmlns="http://www.w3.org/2000/svg">
  <path d="M 418 609  C 421.36 609  424 611.64  424 615  C 424 618.36  421.36 621  418 621  C 414.64 621  412 618.36  412 615  C 412 611.64  414.64 609  418 609  Z " fill-rule="nonzero" fill="#ffffff" stroke="none" />
  <path d="M 418 609.5  C 421.08 609.5  423.5 611.92  423.5 615  C 423.5 618.08  421.08 620.5  418 620.5  C 414.92 620.5  412.5 618.08  412.5 615  C 412.5 611.92  414.92 609.5  418 609.5  Z " stroke-width="1" stroke="#797979" fill="none" />
  <path d="M 418 618  C 416.32 618  415 616.68  415 615  C 415 613.32  416.32 612  418 612  C 419.68 612  421 613.32  421 615  C 421 616.68  419.68 618  418 618  " fill-rule="nonzero" fill="#797979" stroke="none" />
</svg>