<?xml version="1.0" encoding="utf-8"?>
<svg version="1.1" xmlns:xlink="http://www.w3.org/1999/xlink" width="12px" height="12px" viewBox="418 2717  12 12" xmlns="http://www.w3.org/2000/svg">
  <path d="M 424 2717  C 427.36 2717  430 2719.64  430 2723  C 430 2726.36  427.36 2729  424 2729  C 420.64 2729  418 2726.36  418 2723  C 418 2719.64  420.64 2717  424 2717  Z " fill-rule="nonzero" fill="#f0f0f0" stroke="none" />
  <path d="M 424 2717.5  C 427.08 2717.5  429.5 2719.92  429.5 2723  C 429.5 2726.08  427.08 2728.5  424 2728.5  C 420.92 2728.5  418.5 2726.08  418.5 2723  C 418.5 2719.92  420.92 2717.5  424 2717.5  Z " stroke-width="1" stroke="#797979" fill="none" />
  <path d="M 424 2726  C 422.32 2726  421 2724.68  421 2723  C 421 2721.32  422.32 2720  424 2720  C 425.68 2720  427 2721.32  427 2723  C 427 2724.68  425.68 2726  424 2726  " fill-rule="nonzero" fill="#797979" stroke="none" />
</svg>