<?xml version="1.0" encoding="utf-8"?>
<svg version="1.1" xmlns:xlink="http://www.w3.org/1999/xlink" width="12px" height="12px" viewBox="754 1246  12 12" xmlns="http://www.w3.org/2000/svg">
  <path d="M 760 1246  C 763.36 1246  766 1248.64  766 1252  C 766 1255.36  763.36 1258  760 1258  C 756.64 1258  754 1255.36  754 1252  C 754 1248.64  756.64 1246  760 1246  Z " fill-rule="nonzero" fill="#f0f0f0" stroke="none" />
  <path d="M 760 1246.5  C 763.08 1246.5  765.5 1248.92  765.5 1252  C 765.5 1255.08  763.08 1257.5  760 1257.5  C 756.92 1257.5  754.5 1255.08  754.5 1252  C 754.5 1248.92  756.92 1246.5  760 1246.5  Z " stroke-width="1" stroke="#797979" fill="none" />
  <path d="M 760 1255  C 758.32 1255  757 1253.68  757 1252  C 757 1250.32  758.32 1249  760 1249  C 761.68 1249  763 1250.32  763 1252  C 763 1253.68  761.68 1255  760 1255  " fill-rule="nonzero" fill="#797979" stroke="none" />
</svg>