<?xml version="1.0" encoding="utf-8"?>
<svg version="1.1" xmlns:xlink="http://www.w3.org/1999/xlink" width="12px" height="12px" viewBox="555 1215  12 12" xmlns="http://www.w3.org/2000/svg">
  <path d="M 561 1215  C 564.36 1215  567 1217.64  567 1221  C 567 1224.36  564.36 1227  561 1227  C 557.64 1227  555 1224.36  555 1221  C 555 1217.64  557.64 1215  561 1215  Z " fill-rule="nonzero" fill="#f0f0f0" stroke="none" />
  <path d="M 561 1215.5  C 564.08 1215.5  566.5 1217.92  566.5 1221  C 566.5 1224.08  564.08 1226.5  561 1226.5  C 557.92 1226.5  555.5 1224.08  555.5 1221  C 555.5 1217.92  557.92 1215.5  561 1215.5  Z " stroke-width="1" stroke="#797979" fill="none" />
  <path d="M 561 1224  C 559.32 1224  558 1222.68  558 1221  C 558 1219.32  559.32 1218  561 1218  C 562.68 1218  564 1219.32  564 1221  C 564 1222.68  562.68 1224  561 1224  " fill-rule="nonzero" fill="#797979" stroke="none" />
</svg>