<?xml version="1.0" encoding="utf-8"?>
<svg version="1.1" xmlns:xlink="http://www.w3.org/1999/xlink" width="12px" height="12px" viewBox="419 2536  12 12" xmlns="http://www.w3.org/2000/svg">
  <path d="M 425 2536  C 428.36 2536  431 2538.64  431 2542  C 431 2545.36  428.36 2548  425 2548  C 421.64 2548  419 2545.36  419 2542  C 419 2538.64  421.64 2536  425 2536  Z " fill-rule="nonzero" fill="#f0f0f0" stroke="none" />
  <path d="M 425 2536.5  C 428.08 2536.5  430.5 2538.92  430.5 2542  C 430.5 2545.08  428.08 2547.5  425 2547.5  C 421.92 2547.5  419.5 2545.08  419.5 2542  C 419.5 2538.92  421.92 2536.5  425 2536.5  Z " stroke-width="1" stroke="#797979" fill="none" />
  <path d="M 425 2545  C 423.32 2545  422 2543.68  422 2542  C 422 2540.32  423.32 2539  425 2539  C 426.68 2539  428 2540.32  428 2542  C 428 2543.68  426.68 2545  425 2545  " fill-rule="nonzero" fill="#797979" stroke="none" />
</svg>