<?xml version="1.0" encoding="utf-8"?>
<svg version="1.1" xmlns:xlink="http://www.w3.org/1999/xlink" width="12px" height="12px" viewBox="419 2456  12 12" xmlns="http://www.w3.org/2000/svg">
  <path d="M 425 2456  C 428.36 2456  431 2458.64  431 2462  C 431 2465.36  428.36 2468  425 2468  C 421.64 2468  419 2465.36  419 2462  C 419 2458.64  421.64 2456  425 2456  Z " fill-rule="nonzero" fill="#ffffff" stroke="none" />
  <path d="M 425 2456.5  C 428.08 2456.5  430.5 2458.92  430.5 2462  C 430.5 2465.08  428.08 2467.5  425 2467.5  C 421.92 2467.5  419.5 2465.08  419.5 2462  C 419.5 2458.92  421.92 2456.5  425 2456.5  Z " stroke-width="1" stroke="#797979" fill="none" />
  <path d="M 425 2465  C 423.32 2465  422 2463.68  422 2462  C 422 2460.32  423.32 2459  425 2459  C 426.68 2459  428 2460.32  428 2462  C 428 2463.68  426.68 2465  425 2465  " fill-rule="nonzero" fill="#797979" stroke="none" />
</svg>