<?xml version="1.0" encoding="utf-8"?>
<svg version="1.1" xmlns:xlink="http://www.w3.org/1999/xlink" width="12px" height="12px" viewBox="418 2664  12 12" xmlns="http://www.w3.org/2000/svg">
  <path d="M 424 2664  C 427.36 2664  430 2666.64  430 2670  C 430 2673.36  427.36 2676  424 2676  C 420.64 2676  418 2673.36  418 2670  C 418 2666.64  420.64 2664  424 2664  Z " fill-rule="nonzero" fill="#ffffff" stroke="none" />
  <path d="M 424 2664.5  C 427.08 2664.5  429.5 2666.92  429.5 2670  C 429.5 2673.08  427.08 2675.5  424 2675.5  C 420.92 2675.5  418.5 2673.08  418.5 2670  C 418.5 2666.92  420.92 2664.5  424 2664.5  Z " stroke-width="1" stroke="#797979" fill="none" />
  <path d="M 424 2673  C 422.32 2673  421 2671.68  421 2670  C 421 2668.32  422.32 2667  424 2667  C 425.68 2667  427 2668.32  427 2670  C 427 2671.68  425.68 2673  424 2673  " fill-rule="nonzero" fill="#797979" stroke="none" />
</svg>