<?xml version="1.0" encoding="utf-8"?>
<svg version="1.1" xmlns:xlink="http://www.w3.org/1999/xlink" width="12px" height="12px" viewBox="754 1187  12 12" xmlns="http://www.w3.org/2000/svg">
  <path d="M 760 1187  C 763.36 1187  766 1189.64  766 1193  C 766 1196.36  763.36 1199  760 1199  C 756.64 1199  754 1196.36  754 1193  C 754 1189.64  756.64 1187  760 1187  Z " fill-rule="nonzero" fill="#f0f0f0" stroke="none" />
  <path d="M 760 1187.5  C 763.08 1187.5  765.5 1189.92  765.5 1193  C 765.5 1196.08  763.08 1198.5  760 1198.5  C 756.92 1198.5  754.5 1196.08  754.5 1193  C 754.5 1189.92  756.92 1187.5  760 1187.5  Z " stroke-width="1" stroke="#797979" fill="none" />
  <path d="M 760 1196  C 758.32 1196  757 1194.68  757 1193  C 757 1191.32  758.32 1190  760 1190  C 761.68 1190  763 1191.32  763 1193  C 763 1194.68  761.68 1196  760 1196  " fill-rule="nonzero" fill="#797979" stroke="none" />
</svg>