<?xml version="1.0" encoding="utf-8"?>
<svg version="1.1" xmlns:xlink="http://www.w3.org/1999/xlink" width="12px" height="12px" viewBox="419 2483  12 12" xmlns="http://www.w3.org/2000/svg">
  <path d="M 425 2483  C 428.36 2483  431 2485.64  431 2489  C 431 2492.36  428.36 2495  425 2495  C 421.64 2495  419 2492.36  419 2489  C 419 2485.64  421.64 2483  425 2483  Z " fill-rule="nonzero" fill="#ffffff" stroke="none" />
  <path d="M 425 2483.5  C 428.08 2483.5  430.5 2485.92  430.5 2489  C 430.5 2492.08  428.08 2494.5  425 2494.5  C 421.92 2494.5  419.5 2492.08  419.5 2489  C 419.5 2485.92  421.92 2483.5  425 2483.5  Z " stroke-width="1" stroke="#797979" fill="none" />
  <path d="M 425 2492  C 423.32 2492  422 2490.68  422 2489  C 422 2487.32  423.32 2486  425 2486  C 426.68 2486  428 2487.32  428 2489  C 428 2490.68  426.68 2492  425 2492  " fill-rule="nonzero" fill="#797979" stroke="none" />
</svg>