<?xml version="1.0" encoding="utf-8"?>
<svg version="1.1" xmlns:xlink="http://www.w3.org/1999/xlink" width="12px" height="12px" viewBox="414 2174  12 12" xmlns="http://www.w3.org/2000/svg">
  <path d="M 420 2174  C 423.36 2174  426 2176.64  426 2180  C 426 2183.36  423.36 2186  420 2186  C 416.64 2186  414 2183.36  414 2180  C 414 2176.64  416.64 2174  420 2174  Z " fill-rule="nonzero" fill="#f0f0f0" stroke="none" />
  <path d="M 420 2174.5  C 423.08 2174.5  425.5 2176.92  425.5 2180  C 425.5 2183.08  423.08 2185.5  420 2185.5  C 416.92 2185.5  414.5 2183.08  414.5 2180  C 414.5 2176.92  416.92 2174.5  420 2174.5  Z " stroke-width="1" stroke="#797979" fill="none" />
  <path d="M 420 2183  C 418.32 2183  417 2181.68  417 2180  C 417 2178.32  418.32 2177  420 2177  C 421.68 2177  423 2178.32  423 2180  C 423 2181.68  421.68 2183  420 2183  " fill-rule="nonzero" fill="#797979" stroke="none" />
</svg>