<?xml version="1.0" encoding="utf-8"?>
<svg version="1.1" xmlns:xlink="http://www.w3.org/1999/xlink" width="33px" height="10px" preserveAspectRatio="xMinYMid meet" viewBox="1462 140  33 8" xmlns="http://www.w3.org/2000/svg">
  <path d="M 1463 144.5  L 1488 144.5  A 2 2 0 0 0 1490.5 142.5 A 2 2 0 0 1 1492.5 140.5 L 1493 140.5  A 5 5 0 0 1 1498.5 145.5 L 1498.5 150  " stroke-width="1" stroke="#ff3399" fill="none" />
  <path d="M 1465 141.5  A 3 3 0 0 0 1462 144.5 A 3 3 0 0 0 1465 147.5 A 3 3 0 0 0 1468 144.5 A 3 3 0 0 0 1465 141.5 Z " fill-rule="nonzero" fill="#ff3399" stroke="none" />
</svg>