<?xml version="1.0" encoding="utf-8"?>
<svg version="1.1" xmlns:xlink="http://www.w3.org/1999/xlink" width="13px" height="16px" xmlns="http://www.w3.org/2000/svg">
  <g transform="matrix(1 0 0 1 -1506 -608 )">
    <path d="M 4.42376237623762 13.9009900990099  C 4.42376237623762 15.1287128712871  5.0970297029703 16  6.33267326732675 16  C 7.5643564356435 16  8.23762376237619 15.1287128712871  8.23762376237619 13.9009900990099  L 4.42376237623762 13.9009900990099  Z M 11.8891089108911 13  C 12.5346534653465 13.1485148514852  12.9069306930694 12.4039603960396  12.5148514851487 11.8891089108911  C 11.9049504950494 11.0851485148515  10.7049504950496 10.6138613861386  10.7049504950496 7.01386138613859  C 10.7049504950496 3.31881188118811  9.07326732673278 1.83366336633662  7.55247524752463 1.47722772277227  C 7.409900990099 1.44158415841583  7.30693069306926 1.39405940594058  7.30693069306926 1.24356435643564  L 7.30693069306926 1.12871287128714  C 7.30693069306926 0.598019801980199  6.87128712871277 0.150495049504945  6.34059405940593 0.154455445544579  C 5.8099009900991 0.146534653465364  5.3742574257426 0.598019801980199  5.3742574257426 1.12871287128714  L 5.3742574257426 1.24356435643564  C 5.3742574257426 1.390099009901  5.27128712871286 1.44158415841583  5.12871287128723 1.47722772277227  C 3.60396039603961 1.83762376237626  1.97623762376224 3.31881188118811  1.97623762376224 7.01386138613859  C 1.97623762376224 10.6138613861386  0.776237623762427 11.0811881188119  0.166336633663377 11.8891089108911  C -0.225742574257538 12.4079207920792  0.146534653465324 13.1485148514852  0.79603960396048 13  L 11.8891089108911 13  Z " fill-rule="nonzero" fill="#ffffff" stroke="none" transform="matrix(1 0 0 1 1506 608 )" />
  </g>
</svg>