<?xml version="1.0" encoding="utf-8"?>
<svg version="1.1" xmlns:xlink="http://www.w3.org/1999/xlink" width="603px" height="264px" xmlns="http://www.w3.org/2000/svg">
  <g transform="matrix(1 0 0 1 -2 -89 )">
    <path d="M 2 89  L 605 89  L 605 353  L 2 353  L 2 89  " fill-rule="nonzero" fill="#cccccc" stroke="none" />
    <path d="M 20 107  L 587 107  L 587 335  L 20 335  L 20 107  " fill-rule="nonzero" fill="#ffffff" stroke="none" />
    <path d="M 335.36 168.2  C 324.272 168.2  315.56 159.488  315.56 148.4  C 315.56 137.312  324.272 128.6  335.36 128.6  C 346.448 128.6  355.16 137.312  355.16 148.4  C 355.16 159.488  346.448 168.2  335.36 168.2  " fill-rule="nonzero" fill="#cccccc" stroke="none" />
    <path d="M 27 329  L 27 210.75  L 165.5 157  L 359.4 272.522388059701  L 470.2 189.25  L 581 272.522388059701  L 581 329  L 27 329  " fill-rule="nonzero" fill="#169bd5" stroke="none" />
  </g>
</svg>