<?xml version="1.0" encoding="utf-8"?>
<svg version="1.1" xmlns:xlink="http://www.w3.org/1999/xlink" width="14px" height="12px" xmlns="http://www.w3.org/2000/svg">
  <g transform="matrix(1 0 0 1 -15 -11 )">
    <path d="M 0.333333333333333 8.004001853586  L 0.333333333333333 3.99600371273832  C 0.333332737270748 3.99511296894478  0.33333243923943 3.99422222497727  0.33333243923943 3.9933314809843  C 0.33333243923943 1.78787540301745  2.12120867158179 0  4.32666577257276 0  C 4.32888829398813 0  4.33111081501595 0  4.33333333333333 0  L 9.66666666666667 0  C 11.8753333333333 0  13.6666666666667 1.79667139958853  13.6666666666667 3.99600371273832  L 13.6666666666667 12  L 4.33333333333333 12  C 2.12466666666667 12  0.333333333333333 10.2033341667358  0.333333333333333 8.004001853586  Z M 4.33333333333333 10.6666672851471  L 12.3333333333333 10.6666672851471  L 12.3333333333333 3.99600371273832  C 12.3296612547005 2.52541670117793  11.1372582157288 1.33480281904354  9.66666666666667 1.33333828117717  L 4.33333333333333 1.33333828117717  C 4.33111066712007 1.33333270944631  4.32888799479643 1.3333299235776  4.32666532159963 1.3333299235776  C 2.85758788704972 1.3333299235776  1.66666532159963 2.52425193660592  1.66666532159963 3.99332868970904  C 1.66666532159963 3.99422036422076  1.66666576995536 3.99511203867749  1.66666666666667 3.99600371273832  L 1.66666666666667 8.004001853586  C 1.67033874529952 9.47458886514639  2.86274178427121 10.6652027472808  4.33333333333333 10.6666672851471  Z M 8.33333333333333 6.66666914058858  L 8.33333333333333 5.33333642573573  L 9.66666666666667 5.33333642573573  L 9.66666666666667 6.66666914058858  L 8.33333333333333 6.66666914058858  Z M 4.33333333333333 6.66666914058858  L 4.33333333333333 5.33333642573573  L 5.66666666666667 5.33333642573573  L 5.66666666666667 6.66666914058858  L 4.33333333333333 6.66666914058858  Z " fill-rule="nonzero" fill="#4e5969" stroke="none" transform="matrix(1 0 0 1 15 11 )" />
  </g>
</svg>