<?xml version="1.0" encoding="utf-8"?>
<svg version="1.1" xmlns:xlink="http://www.w3.org/1999/xlink" width="14px" height="14px" xmlns="http://www.w3.org/2000/svg">
  <g transform="matrix(1 0 0 1 -15 -10 )">
    <path d="M 1.55487499999981 0.194444444444443  L 9.72222222222217 0.194444444444443  L 13.125 3.59722222222223  L 13.125 13.1202361111111  C 13.125 13.498625  12.8221527777778 13.8055555555556  12.4492083333334 13.8055555555556  L 1.55079166666656 13.8055555555556  C 1.17784722222223 13.8055555555556  0.875 13.4959027777778  1 13.1304444444444  L 1 0.86955555555555  C 0.875 0.496611111111108  1.17920833333346 0.194444444444443  1.55487499999981 0.194444444444443  Z M 9.04166666666652 4.27777777777777  L 9.04166666666652 1.55555555555556  L 2.23611111111131 1.55555555555556  L 2.23611111111131 12.4444444444444  L 11.7638888888887 12.4444444444444  L 11.7638888888887 4.27777777777777  L 9.04166666666652 4.27777777777777  Z M 6.31944444444434 4.95833333333333  L 7.68055555555566 4.95833333333333  L 7.68055555555566 7.68055555555556  L 9.72222222222217 7.68055555555556  L 9.72222222222217 9.04166666666667  L 6.31944444444434 9.04166666666667  L 6.31944444444434 4.95833333333333  Z " fill-rule="nonzero" fill="#4e5969" stroke="none" transform="matrix(1 0 0 1 15 10 )" />
  </g>
</svg>