<?xml version="1.0" encoding="utf-8"?>
<svg version="1.1" xmlns:xlink="http://www.w3.org/1999/xlink" width="14px" height="14px" xmlns="http://www.w3.org/2000/svg">
  <g transform="matrix(1 0 0 1 -15 -10 )">
    <path d="M 7 0.583961200898233  C 9.35163585885205 0.583961200898233  11.3359719829032 2.33354762560085  11.6305 4.66666666666667  L 12.25 4.66666666666667  C 12.8943322081359 4.66666666666667  13.4166666666667 5.18900112519741  13.4166666666667 5.83333333333333  L 13.4166666666667 8.16666666666667  C 13.4166666666667 8.81099887480259  12.8943322081359 9.33333333333333  12.25 9.33333333333333  L 11.6305 9.33333333333333  C 11.3362619545658 11.6667015304364  9.3518467571335 13.4166267486306  7 13.4166666666667  L 7 12.25  C 8.93299662440778 12.25  10.5 10.6829966244078  10.5 8.75  L 10.5 5.25  C 10.5 3.31700337559222  8.93299662440778 1.75  7 1.75  C 5.06700337559222 1.75  3.5 3.31700337559222  3.5 5.25  L 3.5 9.33333333333333  L 1.75 9.33333333333333  C 1.10566779186407 9.33333333333333  0.583333333333333 8.81099887480259  0.583333333333333 8.16666666666667  L 0.583333333333333 5.83333333333333  C 0.583333333333333 5.18900112519741  1.10566779186407 4.66666666666667  1.75 4.66666666666667  L 2.3695 4.66666666666667  C 2.66402801709677 2.33354762560085  4.64836414114795 0.583961200898233  7 0.583961200898233  Z M 2.33333333333333 5.83333333333333  L 1.75 5.83333333333333  L 1.75 8.16666666666667  L 2.33333333333333 8.16666666666667  L 2.33333333333333 5.83333333333333  Z M 12.25 5.83333333333333  L 11.6666666666667 5.83333333333333  L 11.6666666666667 8.16666666666667  L 12.25 8.16666666666667  L 12.25 5.83333333333333  Z M 7 9.91666666666667  C 6.12526738184149 9.91801074382334  5.26793182460886 9.67233557824842  4.52666666666667 9.20791666666667  L 5.145 8.21858333333333  C 5.70096096348582 8.56685354621825  6.34396371199277 8.75105967951694  7 8.75  C 7.65603628800724 8.75105967951694  8.29903903651418 8.56685354621825  8.855 8.21858333333333  L 9.47333333333333 9.20791666666667  C 8.73206817539114 9.67233557824842  7.87473261815851 9.91801074382334  7 9.91666666666667  Z " fill-rule="nonzero" fill="#4e5969" stroke="none" transform="matrix(1 0 0 1 15 10 )" />
  </g>
</svg>