<?xml version="1.0" encoding="utf-8"?>
<svg version="1.1" xmlns:xlink="http://www.w3.org/1999/xlink" width="42px" height="33px" xmlns="http://www.w3.org/2000/svg">
  <g transform="matrix(1 0 0 1 -156 -88 )">
    <path d="M 27.4276144882813 26.8620689765625  C 26.755683044778 30.153847671672  23.8596857459746 32.5179270893606  20.5000282675781 32.5172413779297  C 17.1403708042224 32.517927070329  14.2443735274123 30.1538476569306  13.5724420869141 26.8620689765625  L 1.41382137792969 26.8620689765625  C 0.633005003666675 26.8620689765625  2.82675781251044E-05 26.2290922404739  2.82675781251044E-05 25.4482758662109  C 2.82675781251044E-05 24.6674594919479  0.633005003666675 24.0344827558594  1.41382137792969 24.0344827558594  C 1.41382137792969 24.0344827558594  1.41382137792969 24.0344827558594  1.41382137792969 24  L 14.8448558662109 24  C 15.625672240474 24.0344827558594  16.2586489765625 24.6674594919479  16.2586489765625 25.4482758662109  C 16.2586489765625 27.7907249779435  18.1575791758651 29.6896551772461  20.5000282875977 29.6896551772461  C 22.8424773993302 29.6896551772461  24.7414075986328 27.7907249779435  24.7414075986328 25.4482758662109  C 24.7414075986328 24.6674594919479  25.3743843347214 24.0344827558594  26.1552007089844 24  L 39.5862351572266 24  C 39.5862351572266 24.0344827558594  39.5862351572266 24.0344827558594  39.5862351572266 24.0344827558594  C 40.3670515314896 24.0344827558594  41.0000282675781 24.6674594919479  41.0000282675781 25.4482758662109  C 41.0000282675781 26.2290922404739  40.3670515314896 26.8620689765625  39.5862351572266 26.8620689765625  L 27.4276144882813 26.8620689765625  Z M 21.9138213779297 8.48275862207031  C 21.9138213779297 9.26357499633333  21.2808446418411 9.89655173242187  20.5000282675781 9.89655173242187  C 19.7192118933151 9.89655173242187  19.0862351572266 9.26357499633333  19.0862351572266 8.48275862207031  L 19.0862351572266 1.41379311035156  C 19.0862351572266 0.63297673608855  19.7192118933151 0  20.5000282675781 0  C 21.2808446418411 0  21.9138213779297 0.63297673608855  21.9138213779297 1.41379311035156  L 21.9138213779297 8.48275862207031  Z M 14.7611573402313 10.9851728522129  C 14.7607809826353 10.9851728522129  14.7604046250541 10.985172701931  14.7600282675781 10.9851724013672  C 14.3882469410848 10.994911487521  14.0276010915092 10.8577644767334  13.7562351572266 10.6034482675781  L 8.75847653515625 5.57034484277344  C 8.49319145447902 5.30505976209621  8.3441558480141 4.9452559796921  8.3441558480141 4.57008622070313  C 8.3441558480141 3.7888356407989  8.97748457732234 3.15550691149067  9.75873515722656 3.15550691149067  C 10.1339049162155 3.15550691149067  10.4937086986197 3.30454251795559  10.7589937792969 3.56982759863281  L 15.7567524013672 8.56758622070313  C 16.0244015771578 8.83304937813287  16.1749504505828 9.19440922676247  16.1749504505828 9.57137974186139  C 16.1749504505828 10.3521961161244  15.5419737144943 10.9851728522129  14.7611573402313 10.9851728522129  Z M 27.2438213779297 10.6034482675781  C 26.9742152850032 10.8560294254041  26.6164516871405 10.9930452704767  26.2470972441406 10.9851724013672  C 26.2443567070058 10.9851883388126  26.2416161293223 10.9851963075858  26.2388755458462 10.9851963075858  C 25.4580591715832 10.9851963075858  24.8250824354946 10.3522195714973  24.8250824354946 9.57140319723424  C 24.8250824354946 9.19442113538988  24.9756405055281 8.83305120343831  25.2433041337891 8.56758622070313  L 30.2410627558594 3.56982759863281  C 30.5063478365366 3.30454251795558  30.8661516189407 3.15550691149066  31.2413213779297 3.15550691149066  C 32.0225719578339 3.15550691149066  32.6559006871422 3.7888356407989  32.6559006871422 4.57008622070313  C 32.6559006871422 4.9452559796921  32.5068650806772 5.30505976209621  32.24158 5.57034484277344  L 27.2438213779297 10.6034482675781  Z " fill-rule="nonzero" fill="#dddfe3" stroke="none" fill-opacity="0.427450980392157" transform="matrix(1 0 0 1 156 88 )" />
  </g>
</svg>