<?xml version="1.0" encoding="utf-8"?>
<svg version="1.1" xmlns:xlink="http://www.w3.org/1999/xlink" width="42px" height="29px" xmlns="http://www.w3.org/2000/svg">
  <g transform="matrix(1 0 0 1 -156 -100 )">
    <path d="M 41 24.7586207089844  C 41.0000282675781 27.1010698096604  39.1010980772386 29  36.7586489765625 29  L 4.24140759863281 29  C 1.89895845791768 29  2.82675781253239E-05 27.1010698096604  0 24.7586207089844  L 0 13.4482758662109  C -0.00132711588929182 13.2297304316349  0.049569451139273 13.0140259136648  0.14847653515625 12.8191379130859  L 5.8036489765625 1.50879311035156  C 6.04238914603525 1.02834544053198  6.53249890429773 0.724422613947317  7.06899377929687 1  L 33.9310627558594 1  C 34.4675576452892 0.724422598757259  34.9576674227339 1.02834542762006  35.1964075986328 1.50879311035156  L 40.85158 12.8191379130859  C 40.950487084017 13.0140259136648  41.0013836510455 13.2297304316349  41 13.4482758662109  L 41 24.7586207089844  Z M 7.94554551171875 4  L 3 13.7805172441406  L 3 24.7586207089844  C 2.82761451039422 25.5394370676112  3.46059124000603 26.1724137792969  4.24140759863281 26  L 36.7586489765625 26  C 37.5394653351893 26.1724137792969  38.1724420648011 25.5394370676112  38 24.7586207089844  L 38 13.7805172441406  L 33.0545110234375 4  L 7.94554551171875 4  Z " fill-rule="nonzero" fill="#dddfe3" stroke="none" fill-opacity="0.427450980392157" transform="matrix(1 0 0 1 156 100 )" />
  </g>
</svg>