<?xml version="1.0" encoding="utf-8"?>
<svg version="1.1" xmlns:xlink="http://www.w3.org/1999/xlink" width="20px" height="18px" xmlns="http://www.w3.org/2000/svg">
  <g transform="matrix(1 0 0 1 -35 -39 )">
    <path d="M 2.85714285714285 2  L 2.85714285714285 11.7293233082707  L 18.0952380952381 11.7293233082707  L 18.0952380952381 2  L 2.85714285714285 2  Z M 19.0552380952381 13.5338345864662  L 11.4285714285714 13.5338345864662  L 11.4285714285714 15.3383458646617  L 15.2380952380952 15.3383458646617  L 15.2380952380952 17.1428571428571  L 5.71428571428572 17.1428571428571  L 5.71428571428572 15.3383458646617  L 9.52380952380953 15.3383458646617  L 9.52380952380953 13.5338345864662  L 1.89714285714286 13.5338345864662  C 1.37443373019539 13.5308776068346  0.952342149902364 13.1286064603872  0.952342149902364 12.6333995116844  C 0.952342149902364 12.6306873522337  0.952355084193904 12.6279752066235  1 12.6252631578947  L 1 0.908571428571427  C 0.952380952380949 0.406917293233079  1.38571428571429 0  1.89714285714286 0  L 19.0552380952381 0  C 19.5771428571429 0  20 0.405112781954884  20 0.908571428571427  L 20 12.6252631578947  C 20 13.1269172932331  19.5666666666667 13.5338345864662  19.0552380952381 13.5338345864662  Z " fill-rule="nonzero" fill="#ffffff" stroke="none" transform="matrix(1 0 0 1 35 39 )" />
  </g>
</svg>