<?xml version="1.0" encoding="utf-8"?>
<svg version="1.1" xmlns:xlink="http://www.w3.org/1999/xlink" width="15px" height="16px" xmlns="http://www.w3.org/2000/svg">
  <g transform="matrix(1 0 0 1 -11 -11 )">
    <path d="M 13.1555555555556 6.04444444444444  L 13.1555555555556 11.0222222222222  L 14.5777777777778 11.0222222222222  L 14.5777777777778 12.4444444444444  L 0.355555555555611 12.4444444444444  L 0.355555555555611 11.0222222222222  L 1.77777777777783 11.0222222222222  L 1.77777777777783 6.04444444444444  C 1.77777777777783 2.90255786762926  4.3247800898514 0.355555555555554  7.4666666666667 0.355555555555554  C 10.608553243482 0.355555555555554  13.1555555555556 2.90255786762926  13.1555555555556 6.04444444444444  Z M 3.20000000000005 11.0222222222222  L 11.7333333333333 11.0222222222222  L 11.7333333333333 6.04444444444444  C 11.7333333333333 3.68802951183306  9.82308159927811 1.77777777777778  7.4666666666667 1.77777777777778  C 5.11025173405528 1.77777777777778  3.20000000000005 3.68802951183306  3.20000000000005 6.04444444444444  L 3.20000000000005 11.0222222222222  Z M 5.33333333333326 15.2888888888889  L 5.33333333333326 13.8666666666667  L 9.60000000000014 13.8666666666667  L 9.60000000000014 15.2888888888889  L 5.33333333333326 15.2888888888889  Z " fill-rule="nonzero" fill="#000000" stroke="none" transform="matrix(1 0 0 1 11 11 )" />
  </g>
</svg>