<?xml version="1.0" encoding="utf-8"?>
<svg version="1.1" xmlns:xlink="http://www.w3.org/1999/xlink" width="18px" height="18px" xmlns="http://www.w3.org/2000/svg">
  <g transform="matrix(1 0 0 1 -7 -7 )">
    <path d="M 10 1.5  C 10 0.67157287525381  10.6715728752538 0  11.5 0  C 12.3284271247462 0  13 0.67157287525381  13 1.5  L 13 6.5  C 13 7.32842712474619  12.3284271247462 8  11.5 8  C 10.6715728752538 8  10 7.32842712474619  10 6.5  L 10 1.5  Z M 1.5 10  L 3 10  L 3 11.5  C 3 12.3284271247462  2.32842712474619 13  1.5 13  C 0.67157287525381 13  0 12.3284271247462  0 11.5  C 0 10.6715728752538  0.67157287525381 10  1.5 10  Z M 10 16.5  L 10 15  L 11.5 15  C 12.3284271247462 15  13 15.6715728752538  13 16.5  C 13 17.3284271247462  12.3284271247462 18  11.5 18  C 10.6715728752538 18  10 17.3284271247462  10 16.5  Z M 11.5 10  L 16.5 10  C 17.3284271247462 10  18 10.6715728752538  18 11.5  C 18 12.3284271247462  17.3284271247462 13  16.5 13  L 11.5 13  C 10.6715728752538 13  10 12.3284271247462  10 11.5  C 10 10.6715728752538  10.6715728752538 10  11.5 10  Z M 15 6.5  C 15 5.67157287525381  15.6715728752538 5  16.5 5  C 17.3284271247462 5  18 5.67157287525381  18 6.5  C 18 7.32842712474619  17.3284271247462 8  16.5 8  L 15 8  L 15 6.5  Z M 1.5 5  L 6.5 5  C 7.32842712474619 5  8 5.67157287525381  8 6.5  C 8 7.32842712474619  7.32842712474619 8  6.5 8  L 1.5 8  C 0.67157287525381 8  0 7.32842712474619  0 6.5  C 0 5.67157287525381  0.67157287525381 5  1.5 5  Z M 6.5 0  C 7.32842712474619 0  8 0.67157287525381  8 1.5  L 8 3  L 6.5 3  C 5.67157287525381 3  5 2.32842712474619  5 1.5  C 5 0.67157287525381  5.67157287525381 0  6.5 0  Z M 5 11.5  C 5 10.6715728752538  5.67157287525381 10  6.5 10  C 7.32842712474619 10  8 10.6715728752538  8 11.5  L 8 16.5  C 8 17.3284271247462  7.32842712474619 18  6.5 18  C 5.67157287525381 18  5 17.3284271247462  5 16.5  L 5 11.5  Z " fill-rule="nonzero" fill="#000000" stroke="none" transform="matrix(1 0 0 1 7 7 )" />
  </g>
</svg>