<?xml version="1.0" encoding="utf-8"?>
<svg version="1.1" xmlns:xlink="http://www.w3.org/1999/xlink" width="95px" height="98px" xmlns="http://www.w3.org/2000/svg">
  <g transform="matrix(1 0 0 1 -306 -912 )">
    <path d="M 306 912  L 401 912  L 401 1010  L 306 1010  L 306 912  " fill-rule="nonzero" fill="#cccccc" stroke="none" />
    <path d="M 313 919  L 394 919  L 394 1003  L 313 1003  L 313 919  " fill-rule="nonzero" fill="#ffffff" stroke="none" />
    <path d="M 362.525 940.95  C 358.535 940.95  355.4 937.815  355.4 933.825  C 355.4 929.835  358.535 926.7  362.525 926.7  C 366.515 926.7  369.65 929.835  369.65 933.825  C 369.65 937.815  366.515 940.95  362.525 940.95  " fill-rule="nonzero" fill="#cccccc" stroke="none" />
    <path d="M 316 1001  L 316 957.55  L 335 937.8  L 361.6 953.6  L 376.8 949.65  L 392 953.6  L 392 1001  L 316 1001  " fill-rule="nonzero" fill="#169bd5" stroke="none" />
  </g>
</svg>