<?xml version="1.0" encoding="utf-8"?>
<svg version="1.1" xmlns:xlink="http://www.w3.org/1999/xlink" width="8px" height="8px" xmlns="http://www.w3.org/2000/svg">
  <g transform="matrix(1 0 0 1 -20 -10 )">
    <path d="M 24 10  C 26.24 10  28 11.76  28 14  C 28 16.24  26.24 18  24 18  C 21.76 18  20 16.24  20 14  C 20 11.76  21.76 10  24 10  Z " fill-rule="nonzero" fill="#f53f3f" stroke="none" />
    <path d="M 24 10.5  C 25.96 10.5  27.5 12.04  27.5 14  C 27.5 15.96  25.96 17.5  24 17.5  C 22.04 17.5  20.5 15.96  20.5 14  C 20.5 12.04  22.04 10.5  24 10.5  Z " stroke-width="1" stroke="#ffffff" fill="none" />
  </g>
</svg>