<?xml version="1.0" encoding="utf-8"?>
<svg version="1.1" xmlns:xlink="http://www.w3.org/1999/xlink" width="689px" height="456px" xmlns="http://www.w3.org/2000/svg">
  <g transform="matrix(1 0 0 1 -751 -168 )">
    <path d="M 751 168  L 1440 168  L 1440 624  L 751 624  L 751 168  " fill-rule="nonzero" fill="#cccccc" stroke="none" />
    <path d="M 783 200  L 1408 200  L 1408 592  L 783 592  L 783 200  " fill-rule="nonzero" fill="#ffffff" stroke="none" />
    <path d="M 1143.48 304.8  C 1124.328 304.8  1109.28 289.752  1109.28 270.6  C 1109.28 251.448  1124.328 236.4  1143.48 236.4  C 1162.632 236.4  1177.68 251.448  1177.68 270.6  C 1177.68 289.752  1162.632 304.8  1143.48 304.8  " fill-rule="nonzero" fill="#cccccc" stroke="none" />
    <path d="M 795 581  L 795 378.05  L 945.5 285.8  L 1156.2 434.471117561684  L 1276.6 341.15  L 1397 434.471117561684  L 1397 581  L 795 581  " fill-rule="nonzero" fill="#169bd5" stroke="none" />
  </g>
</svg>