<?xml version="1.0" encoding="utf-8"?>
<svg version="1.1" xmlns:xlink="http://www.w3.org/1999/xlink" width="20px" height="30px" xmlns="http://www.w3.org/2000/svg">
  <g transform="matrix(1 0 0 1 -200 -281 )">
    <path d="M 19.3402777777778 13.681640625  C 19.7800925925926 14.052734375  20 14.4921875  20 15  C 20 15.5078125  19.7800925925926 15.947265625  19.3402777777778 16.318359375  L 3.78472222222222 29.443359375  C 3.34490740740741 29.814453125  2.82407407407407 30  2.22222222222222 30  C 1.62037037037037 30  1.09953703703704 29.814453125  0.659722222222222 29.443359375  C 0.219907407407407 29.072265625  0 28.6328125  0 28.125  L 0 1.875  C 0 1.3671875  0.219907407407407 0.927734374999996  0.659722222222222 0.556640625  C 1.09953703703704 0.185546874999998  1.62037037037037 0  2.22222222222222 0  C 2.82407407407407 0  3.34490740740741 0.185546874999998  3.78472222222222 0.556640625  L 19.3402777777778 13.681640625  Z " fill-rule="nonzero" fill="#333333" stroke="none" transform="matrix(1 0 0 1 200 281 )" />
  </g>
</svg>