<?xml version="1.0" encoding="utf-8"?>
<svg version="1.1" xmlns:xlink="http://www.w3.org/1999/xlink" width="722px" height="648px" xmlns="http://www.w3.org/2000/svg">
  <g transform="matrix(1 0 0 1 -669 -3112 )">
    <path d="M 669 3112  L 1391 3112  L 1391 3760  L 669 3760  L 669 3112  " fill-rule="nonzero" fill="#cccccc" stroke="none" />
    <path d="M 714 3157  L 1346 3157  L 1346 3715  L 714 3715  L 714 3157  " fill-rule="nonzero" fill="#ffffff" stroke="none" />
    <path d="M 1093.04 3306.4  C 1065.824 3306.4  1044.44 3285.016  1044.44 3257.8  C 1044.44 3230.584  1065.824 3209.2  1093.04 3209.2  C 1120.256 3209.2  1141.64 3230.584  1141.64 3257.8  C 1141.64 3285.016  1120.256 3306.4  1093.04 3306.4  " fill-rule="nonzero" fill="#cccccc" stroke="none" />
    <path d="M 730 3699  L 730 3409.7  L 880 3278.2  L 1090 3415.74681440443  L 1210 3357.1  L 1330 3415.74681440443  L 1330 3699  L 730 3699  " fill-rule="nonzero" fill="#169bd5" stroke="none" />
  </g>
</svg>