<?xml version="1.0" encoding="utf-8"?>
<svg version="1.1" xmlns:xlink="http://www.w3.org/1999/xlink" width="591px" height="264px" xmlns="http://www.w3.org/2000/svg">
  <g transform="matrix(1 0 0 1 -676 -89 )">
    <path d="M 676 89  L 1267 89  L 1267 353  L 676 353  L 676 89  " fill-rule="nonzero" fill="#cccccc" stroke="none" />
    <path d="M 694 107  L 1249 107  L 1249 335  L 694 335  L 694 107  " fill-rule="nonzero" fill="#ffffff" stroke="none" />
    <path d="M 1003.12 168.2  C 992.032 168.2  983.32 159.488  983.32 148.4  C 983.32 137.312  992.032 128.6  1003.12 128.6  C 1014.208 128.6  1022.92 137.312  1022.92 148.4  C 1022.92 159.488  1014.208 168.2  1003.12 168.2  " fill-rule="nonzero" fill="#cccccc" stroke="none" />
    <path d="M 701 329  L 701 210.75  L 836.5 157  L 1026.2 271.375634517767  L 1134.6 189.25  L 1243 271.375634517767  L 1243 329  L 701 329  " fill-rule="nonzero" fill="#169bd5" stroke="none" />
  </g>
</svg>