<?xml version="1.0" encoding="utf-8"?>
<svg version="1.1" xmlns:xlink="http://www.w3.org/1999/xlink" width="300px" height="170px" xmlns="http://www.w3.org/2000/svg">
  <g transform="matrix(1 0 0 1 -131 -180 )">
    <path d="M 131 180  L 431 180  L 431 350  L 131 350  L 131 180  " fill-rule="nonzero" fill="#cccccc" stroke="none" />
    <path d="M 143 192  L 419 192  L 419 338  L 143 338  L 143 192  " fill-rule="nonzero" fill="#ffffff" stroke="none" />
    <path d="M 299.75 231  C 292.61 231  287 225.39  287 218.25  C 287 211.11  292.61 205.5  299.75 205.5  C 306.89 205.5  312.5 211.11  312.5 218.25  C 312.5 225.39  306.89 231  299.75 231  " fill-rule="nonzero" fill="#cccccc" stroke="none" />
    <path d="M 148 334  L 148 258.65  L 214.75 224.4  L 308.2 287.42  L 361.6 244.95  L 415 287.42  L 415 334  L 148 334  " fill-rule="nonzero" fill="#169bd5" stroke="none" />
  </g>
</svg>