<?xml version="1.0" encoding="utf-8"?>
<svg version="1.1" xmlns:xlink="http://www.w3.org/1999/xlink" width="37px" height="10px" preserveAspectRatio="xMinYMid meet" viewBox="1475 616  37 8" xmlns="http://www.w3.org/2000/svg">
  <path d="M 1455 626.5  L 1477 626.5  A 3 3 0 0 0 1480.5 623.5 A 3 3 0 0 1 1483.5 620.5 L 1502 620.5  A 5 5 0 0 1 1507.5 625.5 L 1507.5 632  " stroke-width="1" stroke="#ff3399" fill="none" />
  <path d="M 1457 623.5  A 3 3 0 0 0 1454 626.5 A 3 3 0 0 0 1457 629.5 A 3 3 0 0 0 1460 626.5 A 3 3 0 0 0 1457 623.5 Z " fill-rule="nonzero" fill="#ff3399" stroke="none" />
</svg>