<?xml version="1.0" encoding="utf-8"?>
<svg version="1.1" xmlns:xlink="http://www.w3.org/1999/xlink" width="200px" height="160px" xmlns="http://www.w3.org/2000/svg">
  <g transform="matrix(1 0 0 1 -1032 -494 )">
    <path d="M 1033 498  A 3 3 0 0 1 1036 495 L 1228 495  A 3 3 0 0 1 1231 498 L 1231 650  A 3 3 0 0 1 1228 653 L 1036 653  A 3 3 0 0 1 1033 650 L 1033 498  Z " fill-rule="nonzero" fill="#edf5ff" stroke="none" />
    <path d="M 1032.5 498  A 3.5 3.5 0 0 1 1036 494.5 L 1228 494.5  A 3.5 3.5 0 0 1 1231.5 498 L 1231.5 650  A 3.5 3.5 0 0 1 1228 653.5 L 1036 653.5  A 3.5 3.5 0 0 1 1032.5 650 L 1032.5 498  Z " stroke-width="1" stroke-dasharray="9,4" stroke="#409eff" fill="none" stroke-dashoffset="0.5" />
  </g>
</svg>