<?xml version="1.0" encoding="utf-8"?>
<svg version="1.1" xmlns:xlink="http://www.w3.org/1999/xlink" width="52px" height="52px" xmlns="http://www.w3.org/2000/svg">
  <g transform="matrix(1 0 0 1 -16 -27 )">
    <path d="M 51 10.4722222423735  C 51.7936508138021 4.79761904761904  47.1507936709449 0.154761904761894  41.4761904761905 1  L 10.5238095238095 1  C 4.84920632905506 0.154761904761894  0.206349186197922 4.79761904761904  1 10.4722222423735  L 1 41.4246031947545  C 0.206349186197922 47.0992063895089  4.84920632905506 51.7420635323661  10.5238095238095 51  L 41.4761904761905 51  C 47.1507936709449 51.7420634719122  51.7936508138021 47.0992063290551  51 41.4246031947545  L 51 10.4722222423735  Z M 30.9007936709449 39.3611110909598  L 30.9007936709449 40.9087301385789  C 30.9007936709449 41.9404761904762  30.1269841471354 42.4563491861979  29.3531746233259 42.4563491861979  L 22.6468253766741 42.4563491861979  C 21.6150793247768 42.4563491861979  21.0992063290551 41.6825396623884  21.0992063290551 40.9087301385789  L 21.0992063290551 39.3611110909598  L 30.9007936709449 39.3611110909598  Z M 37.6071428571428 21.047619047619  C 37.3492063290551 24.9166666666667  35.5436508138021 28.5277777576265  32.448412718564 30.5912698614212  L 32.448412718564 34.202380952381  C 32.448412718564 35.2341270042783  31.6746031947545 35.75  30.9007936709449 35  L 20.8412698614211 35  C 19.8095238095238 35.75  19.2936508138021 34.9761904761905  19.2936508138021 34.202380952381  L 19.2936508138021 30.5912698614212  C 16.198412718564 28.5277778180804  14.3928571428571 25.1746031947545  14.3928571428571 21.047619047619  C 14.3928571428571 14.5992063290551  19.551587281436 9.44047619047619  26 9.44047619047619  C 32.448412718564 9.44047619047619  37.6071428571428 14.5992063290551  37.6071428571428 21.047619047619  Z " fill-rule="nonzero" fill="#ffffff" stroke="none" transform="matrix(1 0 0 1 16 27 )" />
  </g>
</svg>