<?xml version="1.0" encoding="utf-8"?>
<svg version="1.1" xmlns:xlink="http://www.w3.org/1999/xlink" width="18px" height="18px" xmlns="http://www.w3.org/2000/svg">
  <g transform="matrix(1 0 0 1 -16 -127 )">
    <path d="M 16.7722061378112 5  C 17.5476548928778 5.08827669621833  18.1077012159815 5.8057104623184  17.9784597568037 6.61282344918099  L 16.4275622466705 16.1188208500071  C 16.2552403011001 16.7465753953446  15.7813549507817 17.1949714991572  15.1782281412855 17  L 2.38332368268671 17  C 1.60787492762016 17.1949714991572  1.04782860451649 16.4775377330571  1.17707006369429 15.6704247461945  L 2.72796757382745 6.11958773498722  C 2.85720903300518 5.53667280003087  3.33109438332366 5.08827669621833  3.93422119281992 5  L 16.7722061378112 5  Z M 0.213260423786737 1.35570010270456  L 0.0426520847573464 13.8631268566885  L 1.53547505126451 4.6793519673996  C 1.6207792207792 4.06710030811364  2.13260423786737 3.62977769433799  2.72973342447029 4  L 14.1178400546822 4  L 14.1178400546822 2.88632925091937  C 14.1178400546822 2.23034533025587  13.606015037594 1.70555819372507  12.9662337662338 1.66619915848527  L 6.6963773069036 1.66619915848527  C 6.22720437457278 1.66182593234753  5.67272727272726 0.787180704796214  5.67272727272726 0.787180704796214  C 5.50211893369787 0.349858091020536  5.07559808612439 0.0874645227551412  4.64907723855092 0.0874645227551412  L 1.32221462747777 0.0874645227551412  C 0.725085440874905 0.174929045510254  0.213260423786737 0.699716182041058  0.213260423786737 1.35570010270456  Z " fill-rule="nonzero" fill="#ffffff" stroke="none" transform="matrix(1 0 0 1 16 127 )" />
  </g>
</svg>