<?xml version="1.0" encoding="utf-8"?>
<svg version="1.1" xmlns:xlink="http://www.w3.org/1999/xlink" width="10px" height="10px" xmlns="http://www.w3.org/2000/svg">
  <g transform="matrix(1 0 0 1 -178 -123 )">
    <path d="M 9.98062015503876 5  C 9.98062015503876 4.65891472868215  9.70155038759691 4.3798449612403  9.36046511627907 4.3798449612403  L 5.62015503875969 4.3798449612403  L 5.62015503875969 0.639534883720942  C 5.62015503875969 0.298449612403093  5.34108527131783 0.0193798449612359  5 0.0193798449612359  C 4.65891472868217 0.0193798449612359  4.37984496124031 0.298449612403093  4.37984496124031 0.639534883720942  L 4.37984496124031 4.3798449612403  L 0.639534883720927 4.3798449612403  C 0.298449612403099 4.3798449612403  0.0193798449612359 4.65891472868215  0.0193798449612359 5  C 0.0193798449612359 5.1705426356589  0.0891472868217047 5.32558139534884  0.201550387596902 5.43798449612403  C 0.313953488372087 5.55038759689921  0.468992248062013 5.6201550387597  0.639534883720927 5.6201550387597  L 4.37984496124031 5.6201550387597  L 4.37984496124031 9.36046511627906  C 4.37984496124031 9.53100775193796  4.44961240310078 9.68604651162789  4.56201550387596 9.79844961240309  C 4.67441860465116 9.91085271317827  4.82945736434109 9.98062015503876  5 9.98062015503876  C 5.34108527131783 9.98062015503876  5.62015503875969 9.70155038759691  5.62015503875969 9.36046511627906  L 5.62015503875969 5.6201550387597  L 9.36046511627907 5.6201550387597  C 9.70155038759691 5.6201550387597  9.98062015503876 5.34108527131785  9.98062015503876 5  Z " fill-rule="nonzero" fill="#ffffff" stroke="none" transform="matrix(1 0 0 1 178 123 )" />
  </g>
</svg>