<?xml version="1.0" encoding="utf-8"?>
<svg version="1.1" xmlns:xlink="http://www.w3.org/1999/xlink" width="87px" height="87px" xmlns="http://www.w3.org/2000/svg">
  <g transform="matrix(1 0 0 1 -325 -29 )">
    <path d="M 43.5705666664307 86.5940000001416  C 67.4614844695018 86.5940000001416  86.8288999997169 67.2265844699265  86.8288999997169 43.3356666668555  C 86.8288999997169 19.4447488637845  67.4614844695018 0.0773333335693494  43.5705666664307 0.0773333335693494  C 19.6796488633597 0.0773333335693494  0.312233333144604 19.4447488637845  0.312233333144604 43.3356666668555  C 0.312233333144604 67.2265844699265  19.6796488633597 86.5940000001416  43.5705666664307 86.5940000001416  Z M 60.8168666665722 39.3964999997168  L 56.8419333334277 43.065  C 56.7075666668554 43.2341666665723  56.5480666671388 43.3820666665723  56.3672999999999 43.5028999997168  L 56.3025333334276 43.5444666668555  C 55.9845 43.7397333334277  55.609433333994 43.8538000002832  55.2082666671386 43.8538000002832  C 54.0559999997167 43.8538000002832  53.1212333331446 42.9190333337109  53.1212333331446 41.7667666671387  C 53.121233333994 41.0785000002832  53.4537666668555 40.4685333334277  53.9670666668555 40.0886333331445  L 57.7390000002831 36.3138  C 59.746766667422 34.3089333325781  59.746766667422 31.0416  57.7390000002831 29.0338333328613  L 57.5794999997167 28.8762666668555  C 55.5717333334278 26.8684999997168  52.3072999997169 26.8684999997168  50.3043666668555 28.8762666668555  L 41.7358333328614 37.4399666665723  C 39.7290333334277 39.4467666668555  38.9663333331446 42.3631999997168  40.9741000002832 44.3709666668555  L 41.1316666671387 44.5256333331445  C 41.444866666289 44.8388333331445  41.8972666662892 45.1694333331445  42.1389333334278 45.7117333328613  C 42.2559000000001 45.9524333331445  42.3206666665724 46.2221333331445  42.3206666665724 46.5073000002832  C 42.3206666657227 47.5174666662891  41.5018999997169 48.3362333331445  40.4917333328613 48.3362333331445  C 40.1725150639045 48.3363419213186  39.8549906637847 48.2507443048108  39.5782333328614 48.0916666671387  C 39.4100333331446 47.9940333334277  39.2582666674218 47.8712666665723  39.1297000002833 47.7272333331445  C 38.9518333328613 47.5754666665723  38.7778333328613 47.4169333328613  38.6096333331445 47.2497  L 38.4530333331445 47.0950333328613  C 34.7555333331445 43.3956  34.9585333328614 38.0576666665723  38.6560333328614 34.3601666665723  L 47.2197333334277 25.7935666671387  C 50.9162666665722 22.0960666671387  56.9637333334276 22.0960666671387  60.6612333334276 25.7935666671387  L 60.8207333331445 25.9530666668555  C 64.5182333331445 29.6496  64.5182333331445 35.6980333328613  60.8168666665722 39.3964999997168  Z M 48.4764 38.5149  L 48.633 38.6695666671387  C 52.3246999997168 42.3641666674219  52.0114999997168 48.1960666671387  48.3198 51.8926000002832  L 39.7561000002831 60.4591999997168  C 36.0595666671386 64.1538  30.0121000002832 64.1538  26.3146000002832 60.4591999997168  L 26.1550999997169 60.2997  C 22.4575999997169 56.6051000005664  22.4575999997169 50.5547333331445  26.1550999997169 46.8553000002832  L 30.0874999997168 43.1752000002832  C 30.2042413699501 43.0337938666324  30.3822535657762 42.8771208718891  30.5311999997168 42.7701666668555  C 30.8676 42.5410666662891  31.2755333331445 42.4066999997168  31.7134333328613 42.4066999997168  C 32.8753666671387 42.4066999997168  33.8169 43.3482333334277  33.8169 44.5101666668555  C 33.8169 45.1781333331445  33.5046666668554 45.7726333337109  33.0193999997168 46.1583333334277  L 29.2348999997168 49.9418666665723  C 27.2271333325782 51.9448000002832  27.2271333325782 55.2102  29.2348999997168 57.2179666671387  L 29.3963333331446 57.3793999997168  C 31.4031333334278 59.3842666662891  34.6665999994336 59.3842666662891  36.6743666665723 57.3793999997168  L 45.2409666668555 48.8157  C 47.2487333331446 46.8089000005664  47.8480666671387 43.3540333337109  45.8403000000001 41.3491666671387  L 45.6808000002832 41.1896666665723  C 45.5126000005664 41.0214666668555  45.3337666671387 40.8735666668555  45.1510666671386 40.7227666671387  C 44.9703 40.6125666668555  44.8088666665724 40.4733666668555  44.6735333331446 40.3119333334277  C 44.3912666665724 39.9755333331445  44.2211333331445 39.5424666668555  44.2211333331445 39.0688000002832  C 44.2211333331445 37.9987000002832  45.0882333334278 37.1316  46.1583333334277 37.1316  C 46.6591575612968 37.1311342282668  47.1415469876717 37.3242616912406  47.502 37.6719666668555  C 47.8403333331446 37.9300666671387  48.1680333334277 38.2075000002832  48.4764 38.5149  Z " fill-rule="nonzero" fill="#2a75ed" stroke="none" transform="matrix(1 0 0 1 325 29 )" />
  </g>
</svg>