<?xml version="1.0" encoding="utf-8"?>
<svg version="1.1" xmlns:xlink="http://www.w3.org/1999/xlink" width="17px" height="13px" xmlns="http://www.w3.org/2000/svg">
  <g transform="matrix(1 0 0 1 -7 -9 )">
    <path d="M 16.8976851851851 2.00481927710848  C 17.0078703703703 1.87168674698796  17.0078703703703 1.67590361445787  16.8898148148148 1.55843373493985  L 15.5046296296296 0.14096385542166  C 15.4495370370371 0.0783132530120838  15.3629629629629 0.0469879518072958  15.2842592592592 0.0469879518072958  C 15.1976851851853 0.0469879518072958  15.1189814814816 0.0783132530120838  15.0638888888889 0.14096385542166  L 5.46203703703713 9.76566265060251  L 1.96759259259261 6.2885542168674  C 1.90462962962965 6.22590361445782  1.82592592592596 6.19457831325303  1.74722222222226 6.19457831325303  C 1.66851851851857 6.19457831325303  1.58981481481487 6.22590361445782  1.52685185185192 6.2885542168674  L 0.125925925925912 7.68253012048194  C 0 7.80783132530132  0 8.00361445783142  0.125925925925912 8.12891566265057  L 4.5333333333333 12.5144578313252  C 4.81666666666661 12.7963855421688  5.16296296296287 12.9608433734941  5.45416666666665 12.9608433734941  C 5.87129629629635 12.9608433734941  6.23333333333335 12.6554216867471  6.36712962962952 12.5301204819277  L 6.375 12.5301204819277  L 16.8976851851851 2.00481927710848  Z " fill-rule="nonzero" fill="#606266" stroke="none" transform="matrix(1 0 0 1 7 9 )" />
  </g>
</svg>