<?xml version="1.0" encoding="utf-8"?>
<svg version="1.1" xmlns:xlink="http://www.w3.org/1999/xlink" width="30px" height="30px" xmlns="http://www.w3.org/2000/svg">
  <g>
    <path d="M 30 2.5  C 30 1.1171875  28.8828125 0  27.5 0  L 2.5 0  C 1.1171875 0  0 1.1171875  0 2.5  L 0 27.5  C 0 28.8828125  1.1171875 30  2.5 30  L 27.5 30  C 28.8828125 30  30 28.8828125  30 27.5  L 30 2.5  Z M 27.8125 2.8125  L 27.8125 27.1875  C 27.8125 27.53125  27.53125 27.8125  27.1875 27.8125  L 2.8125 27.8125  C 2.46875 27.8125  2.1875 27.53125  2.1875 27.1875  L 2.1875 2.8125  C 2.1875 2.46875  2.46875 2.1875  2.8125 2.1875  L 27.1875 2.1875  C 27.53125 2.1875  27.8125 2.46875  27.8125 2.8125  Z " fill-rule="nonzero" fill="#606266" stroke="none" />
  </g>
</svg>