<?xml version="1.0" encoding="utf-8"?>
<svg version="1.1" xmlns:xlink="http://www.w3.org/1999/xlink" width="18px" height="18px" preserveAspectRatio="xMinYMid meet" viewBox="1449 97  18 16" xmlns="http://www.w3.org/2000/svg">
  <path d="M 1456 105.5  L 1477.5 105.5  A 2.5 2.5 0 0 0 1480.5 103 A 2.5 2.5 0 0 1 1483 100.5 L 1486 100.5  A 5 5 0 0 1 1491.5 105.5 L 1491.5 111  " stroke-width="1" stroke="#ff3399" fill="none" />
  <path d="M 1458 102.5  A 3 3 0 0 0 1455 105.5 A 3 3 0 0 0 1458 108.5 A 3 3 0 0 0 1461 105.5 A 3 3 0 0 0 1458 102.5 Z " fill-rule="nonzero" fill="#ff3399" stroke="none" />
</svg>