<?xml version="1.0" encoding="utf-8"?>
<svg version="1.1" xmlns:xlink="http://www.w3.org/1999/xlink" width="10px" height="16px" preserveAspectRatio="xMidYMin meet" viewBox="1535 1275  8 16" xmlns="http://www.w3.org/2000/svg">
  <path d="M 1504 1285.5  L 1527.5 1285.5  A 2.5 2.5 0 0 0 1530.5 1283 A 2.5 2.5 0 0 1 1533 1280.5 L 1534 1280.5  A 5 5 0 0 1 1539.5 1285.5 L 1539.5 1291  " stroke-width="1" stroke="#ff3399" fill="none" />
  <path d="M 1506 1282.5  A 3 3 0 0 0 1503 1285.5 A 3 3 0 0 0 1506 1288.5 A 3 3 0 0 0 1509 1285.5 A 3 3 0 0 0 1506 1282.5 Z " fill-rule="nonzero" fill="#ff3399" stroke="none" />
</svg>