<?xml version="1.0" encoding="utf-8"?>
<svg version="1.1" xmlns:xlink="http://www.w3.org/1999/xlink" width="20px" height="20px" xmlns="http://www.w3.org/2000/svg">
  <g transform="matrix(1 0 0 1 -1935 -728 )">
    <path d="M 19.4583333333334 17.1041666666666  L 12.3541666666667 10  L 19.4583333333334 2.89583333333335  C 20.1041666666667 2.25000000000004  20.1041666666667 1.18749999999996  19.4583333333334 0.541666666666648  C 18.8125 -0.104166666666667  17.75 -0.104166666666667  17.1041666666666 0.541666666666648  L 10 7.64583333333329  L 2.89583333333335 0.541666666666648  C 2.25000000000004 -0.104166666666667  1.18749999999996 -0.104166666666667  0.541666666666648 0.541666666666648  C 0.218750000000038 0.864583333333352  0.0520833333333333 1.29166666666663  0.0520833333333333 1.71875  C 0.0520833333333333 2.14583333333337  0.218750000000038 2.57291666666665  0.541666666666648 2.89583333333335  L 7.64583333333329 10  L 0.541666666666648 17.1041666666666  C 0.218750000000038 17.4270833333334  0.0520833333333333 17.8541666666666  0.0520833333333333 18.28125  C 0.0520833333333333 18.7083333333334  0.218750000000038 19.1354166666666  0.541666666666648 19.4583333333334  C 1.18749999999996 20.1041666666667  2.25000000000004 20.1041666666667  2.89583333333335 19.4583333333334  L 10 12.3541666666667  L 17.1041666666666 19.4583333333334  C 17.75 20.1041666666667  18.8125 20.1041666666667  19.4583333333334 19.4583333333334  C 20.1041666666667 18.8125  20.1041666666667 17.75  19.4583333333334 17.1041666666666  Z " fill-rule="nonzero" fill="#606266" stroke="none" transform="matrix(1 0 0 1 1935 728 )" />
  </g>
</svg>