<?xml version="1.0" encoding="utf-8"?>
<svg version="1.1" xmlns:xlink="http://www.w3.org/1999/xlink" width="22px" height="14px" xmlns="http://www.w3.org/2000/svg">
  <g transform="matrix(1 0 0 1 -267 -447 )">
    <path d="M 0.147157190635426 13.3383084577113  C -0.0441471571907641 13.5960199004976  0.154515050167447 13.9512437810945  0.485618729097041 14  L 14.5170568561871 14  C 14.8481605351171 13.9512437810945  15.0394648829433 13.5960199004976  14.8481605351171 13.3383084577113  L 7.8287625418061 2.65373134328365  C 7.66688963210709 2.43084577114428  7.3210702341139 2.43084577114428  7.15919732441489 2.65373134328365  L 0.147157190635426 13.3383084577113  Z M 14.7598662207356 9.4726368159204  C 14.6715719063545 9.59800995024875  14.6715719063545 9.77213930348262  14.7672240802676 9.91144278606976  L 17.3424749163878 13.7910447761192  C 17.4160535117057 13.8955223880598  17.541137123746 13.9582089552237  17.6735785953178 13.9582089552237  L 21.5879598662209 13.9582089552237  C 21.9190635451505 13.9582089552237  22.1103678929767 13.6029850746268  21.9190635451505 13.3452736318409  L 17.3866220735786 7.23681592039793  C 17.2247491638796 7.01393034825878  16.8789297658864 7.01393034825878  16.7170568561874 7.23681592039793  L 14.7598662207356 9.4726368159204  Z M 15.7752508361204 1.75522388059699  C 15.6501672240802 2.9880597014926  16.7317725752509 4.01890547263679  18.0341137123746 3.89353233830843  C 18.9979933110367 3.8029850746268  19.7779264214046 3.06467661691545  19.8735785953177 2.15223880597023  C 20.0060200668895 0.919402985074612  18.9170568561872 -0.111442786069574  17.6147157190635 0.013930348258782  C 16.6508361204014 0.10447761194041  15.8709030100335 0.842786069651766  15.7752508361204 1.75522388059699  Z " fill-rule="nonzero" fill="#606266" stroke="none" transform="matrix(1 0 0 1 267 447 )" />
  </g>
</svg>