<?xml version="1.0" encoding="utf-8"?>
<svg version="1.1" xmlns:xlink="http://www.w3.org/1999/xlink" width="12px" height="14px" xmlns="http://www.w3.org/2000/svg">
  <g transform="matrix(1 0 0 1 -13 -13 )">
    <path d="M 12 13  C 12 13.3681898332205  11.7015231665539 13.6666666666667  11.3333333333333 13.6666666666667  L 0.666666666666667 13.6666666666667  C 0.298476833446138 13.6666666666667  0 13.3681898332205  0 13  L 0 1  C 0 0.631810166779471  0.298476833446138 0.333333333333333  0.666666666666667 0.333333333333333  L 11.3333333333333 0.333333333333333  C 11.7015231665539 0.333333333333333  12 0.631810166779471  12 1  L 12 13  Z M 1.33333333333333 12.3333333333333  L 10.6666666666667 12.3333333333333  L 10.6666666666667 1.66666666666667  L 1.33333333333333 1.66666666666667  L 1.33333333333333 12.3333333333333  Z M 3.33333333333333 5  L 3.33333333333333 3.66666666666667  L 8.66666666666667 3.66666666666667  L 8.66666666666667 5  L 3.33333333333333 5  Z M 3.33333333333333 7.66666666666667  L 3.33333333333333 6.33333333333333  L 8.66666666666667 6.33333333333333  L 8.66666666666667 7.66666666666667  L 3.33333333333333 7.66666666666667  Z M 3.33333333333333 10.3333333333333  L 3.33333333333333 9  L 6.66666666666667 9  L 6.66666666666667 10.3333333333333  L 3.33333333333333 10.3333333333333  Z " fill-rule="nonzero" fill="#86909c" stroke="none" transform="matrix(1 0 0 1 13 13 )" />
  </g>
</svg>