<?xml version="1.0" encoding="utf-8"?>
<svg version="1.1" xmlns:xlink="http://www.w3.org/1999/xlink" width="14px" height="14px" xmlns="http://www.w3.org/2000/svg">
  <g transform="matrix(1 0 0 1 -12 -13 )">
    <path d="M 12.4996666666667 8.09977777777777  L 11.3998888888889 9.19955555555555  L 10.3001111111111 8.09977777777777  L 11.3998888888889 7  C 11.9833504322864 6.41653845660244  12.3111357142451 5.62519478335153  12.3111357142451 4.80005555555556  C 12.3111357142451 3.08179206343794  10.9182079365621 1.68886428575487  9.19994444444444 1.68886428575487  C 8.37480521664847 1.68886428575487  7.58346154339756 2.01664956771356  7 2.60011111111112  L 5.90022222222223 3.69988888888889  L 4.80044444444445 2.60011111111112  L 5.90022222222223 1.50033333333333  C 6.77310622142062 0.641551922296458  7.9485587280692 0.160261645757743  9.1730716875756 0.160261645757743  C 11.7504005201193 0.160261645757743  13.8397383542423 2.2495994798807  13.8397383542423 4.8269283124244  C 13.8397383542423 6.0514412719308  13.3584480777035 7.22689377857937  12.4996666666667 8.09977777777777  Z M 8.09977777777777 10.3001111111111  L 9.19955555555555 11.3998888888889  L 8.09977777777777 12.4996666666667  C 7.22252441419715 13.3913259579268  6.02403441083104 13.8934838679799  4.77318279868675 13.8934838679799  C 2.19585396614306 13.8934838679799  0.10651613202009 11.804146033857  0.10651613202009 9.22681720131325  C 0.10651613202009 7.97596558916895  0.608674042073233 6.77747558580285  1.50033333333334 5.90022222222223  L 2.60011111111112 4.80044444444445  L 3.69988888888889 5.90022222222223  L 2.60011111111112 7  C 2.01664956771356 7.58346154339756  1.68886428575487 8.37480521664847  1.68886428575487 9.19994444444444  C 1.68886428575487 10.9182079365621  3.08179206343794 12.3111357142451  4.80005555555556 12.3111357142451  C 5.62519478335153 12.3111357142451  6.41653845660244 11.9833504322864  7 11.3998888888889  L 8.09977777777777 10.3001111111111  Z M 9.19955555555555 3.69988888888889  L 10.3001111111111 4.80044444444445  L 4.80044444444445 10.2993333333333  L 3.69988888888889 9.19955555555556  L 9.19955555555555 3.70066666666666  Z " fill-rule="nonzero" fill="#165dff" stroke="none" transform="matrix(1 0 0 1 12 13 )" />
  </g>
</svg>