<?xml version="1.0" encoding="utf-8"?>
<svg version="1.1" xmlns:xlink="http://www.w3.org/1999/xlink" width="124px" height="90px" xmlns="http://www.w3.org/2000/svg">
  <g transform="matrix(1 0 0 1 -1140 -334 )">
    <path d="M 124 6.92307692307713  C 124 3.09375  119.7375 0  114.461538461538 0  L 9.53846153846183 0  C 4.2625 0  0 3.09375  0 6.92307692307713  L 0 83.0769230769229  C 0 86.90625  4.2625 90  9.53846153846183 90  L 114.461538461538 90  C 119.7375 90  124 86.90625  124 83.0769230769229  L 124 6.92307692307713  Z M 113 60.5769230769229  L 113.656730769231 60.5769230769229  C 113.656730769231 61.5288461538457  112.583653846155 62.3076923076928  111.272115384615 62  L 12.7278846153855 62  C 11.4163461538454 62.3076923076928  10.3432692307691 61.5288461538457  11 60.5769230769229  L 11 9.23798076923072  C 10.3432692307691 8.28605769230785  11.4163461538454 7.50721153846143  12.7278846153855 8  L 111.301923076924 8  C 112.613461538462 7.50721153846143  113.686538461538 8.28605769230785  113 9.23798076923072  L 113 60.5769230769229  Z " fill-rule="nonzero" fill="#606266" stroke="none" transform="matrix(1 0 0 1 1140 334 )" />
  </g>
</svg>