<?xml version="1.0" encoding="utf-8"?>
<svg version="1.1" xmlns:xlink="http://www.w3.org/1999/xlink" width="6px" height="6px" xmlns="http://www.w3.org/2000/svg">
  <g transform="matrix(1 0 0 1 -167 -102 )">
    <path d="M 2.29609130114565 2.86315509001637  C 2.29609130114565 2.35883035188216  2.7080748690671 1.95394995090017  3.20529644026186 1.95394995090016  C 3.70251801145662 1.95394995090016  4.11450157937806 2.35883035188216  4.11450157937806 2.86315509001637  C 4.11450157937806 3.36747982815058  3.70962117839606 3.77236022913257  3.20529644026186 3.77236022913257  C 2.70097170212765 3.77236022913257  2.29609130114565 3.36747982815057  2.29609130114565 2.86315509001637  Z M 5.67719790507364 2.86315509001637  C 5.67719790507364 1.49934738134207  4.56910414893616 0.391253625204584  3.20529644026186 0.391253567921442  C 1.84148873158755 0.391253567921442  0.733394975450075 1.49934732405892  0.733394975450075 2.86315509001637  C 0.733394975450075 4.22696285597381  1.84148873158755 5.33505655482815  3.20529644026186 5.33505655482815  C 4.56910414893616 5.33505655482815  5.67719790507364 4.22696279869067  5.67719790507364 2.86315509001637  Z " fill-rule="nonzero" fill="#165dff" stroke="none" transform="matrix(1 0 0 1 167 102 )" />
  </g>
</svg>