<?xml version="1.0" encoding="utf-8"?>
<svg version="1.1" xmlns:xlink="http://www.w3.org/1999/xlink" width="5px" height="3px" xmlns="http://www.w3.org/2000/svg">
  <g transform="matrix(1 0 0 1 -139 -113 )">
    <path d="M 2.74291367430441 1.69393561374795  L 1.89763703764321 1.69393561374796  C 1.89053387070376 1.65841977905074  1.89053387070376 1.61580077741408  1.90474020458265 1.57318183306056  C 1.90474020458265 1.56607866612111  1.9118433715221 1.56607866612111  1.9118433715221 1.55897549918167  L 1.9686686497545 1.45953116202946  C 1.77688319967266 1.48084066284779  1.57799458265139 1.50215016366612  1.38620913256955 1.50925333060556  C 1.1589078477905 1.50925333060556  0.967122397708671 1.38139638297872  0.96001923076922 1.21802354337152  C 0.945812896890331 1.05465076104746  1.11628884615384 0.912587422258589  1.34359013093289 0.898381145662846  L 1.35069329787233 0.898381145662846  C 1.67743891980359 0.884174811783961  1.99708131751227 0.848658977086743  2.30962060556465 0.798936808510636  C 2.35934277414075 0.68528613747954  2.40906494271685 0.578738690671031  2.45168388707037 0.465088076923077  C 2.48009655482814 0.386953240589197  2.55112822422257 0.323024795417346  2.6434693371522 0.280405793780687  C 2.73581050736497 0.237786792144025  2.85656428805236 0.230683625204584  2.96311179214402 0.251993126022914  C 3.17620674304418 0.301715294599017  3.30406374795417 0.457984909983633  3.25434157937806 0.614254525368249  C 3.24013524549918 0.656873527004912  3.21882574468084 0.692389361702126  3.20461941080195 0.735008363338789  C 3.23303207855973 0.749214697217674  3.26144474631751 0.749214697217674  3.28275424713583 0.763420973813421  C 3.45323019639934 0.884174754500819  3.46033336333878 1.06885709492635  3.31116685761047 1.19671409983633  C 3.26144468903436 1.23933310147299  3.19041307692306 1.26774576923077  3.11938140752863 1.28195204582651  C 3.06255607201308 1.2961583797054  3.00573073649753 1.30326154664484  2.95600862520457 1.31746788052373  C 2.89208012274958 1.44532482815057  2.81394534369885 1.56607866612111  2.74291367430441 1.69393561374795  Z " fill-rule="nonzero" fill="#d5d5d5" stroke="none" transform="matrix(1 0 0 1 139 113 )" />
  </g>
</svg>