<?xml version="1.0" encoding="utf-8"?>
<svg version="1.1" xmlns:xlink="http://www.w3.org/1999/xlink" width="43px" height="15px" xmlns="http://www.w3.org/2000/svg">
  <g transform="matrix(1 0 0 1 -117 -134 )">
    <path d="M 27.9152760254462 2  L 40 2  L 40 13  L 2 13  L 2 2  L 14.4906321574701 2  C 15.2105886877484 4.97965730769226  17.9522412995868 7.18874165302782  21.2029540914582 7.18874165302782  C 24.4536668833293 7.18874165302782  27.195319495168 4.97965730769226  27.9152760254462 2  Z M 42 14.6044460474632  L 42 0.447837888706999  L 26.5117244146989 0.447837888706999  C 26.5117244146989 3.3104134206219  24.1409584736186 5.62604527004908  21.2102263814199 5.62604532733224  C 18.2794942892215 5.6260453846154  15.9087283481413 3.31041347790506  15.9087283481413 0.447837888706999  L 1 0.447837888706999  L 1 14.6044460474632  L 42 14.6044460474632  Z " fill-rule="nonzero" fill="#685ea7" stroke="none" transform="matrix(1 0 0 1 117 134 )" />
  </g>
</svg>