<?xml version="1.0" encoding="utf-8"?>
<svg version="1.1" xmlns:xlink="http://www.w3.org/1999/xlink" width="91px" height="42px" xmlns="http://www.w3.org/2000/svg">
  <g transform="matrix(1 0 0 1 -1157 -349 )">
    <path d="M 0.608695652173806 40.0149253731338  C -0.182608695652706 40.7880597014928  0.639130434783531 41.8537313432835  2.00869565217412 41.8537313432835  L 60.0478260869557 41.8537313432835  C 61.4173913043481 41.8537313432835  62.2086956521746 40.7880597014928  61.4173913043481 40.0149253731338  L 32.3826086956525 7.96119402985096  C 31.7130434782611 7.29253731343283  30.282608695653 7.29253731343283  29.6130434782616 7.96119402985096  L 0.608695652173806 40.0149253731338  Z M 61.0521739130427 28.4179104477612  C 60.6869565217392 28.7940298507463  60.6869565217392 29.3164179104479  61.0826086956524 29.7343283582093  L 71.734782608695 41.3731343283575  C 72.0391304347828 41.6865671641795  72.5565217391312 41.874626865671  73.1043478260875 41.874626865671  L 89.2956521739137 41.874626865671  C 90.6652173913043 41.874626865671  91.4565217391308 40.8089552238803  90.6652173913043 40.0358208955226  L 71.9173913043477 21.7104477611938  C 71.2478260869563 21.0417910447763  69.8173913043482 21.0417910447763  69.1478260869568 21.7104477611938  L 61.0521739130427 28.4179104477612  Z M 65.2521739130437 5.26567164179096  C 64.7347826086953 8.96417910447781  69.2086956521744 12.0567164179104  74.5956521739132 11.6805970149253  C 78.5826086956517 11.4089552238804  81.8086956521735 9.19402985074635  82.2043478260867 6.45671641791068  C 82.752173913043 2.75820895522384  78.247826086956 -0.334328358208722  72.8608695652172 0.0417910447763461  C 68.8739130434787 0.313432835821231  65.6478260869569 2.5283582089553  65.2521739130437 5.26567164179096  Z " fill-rule="nonzero" fill="#606266" stroke="none" transform="matrix(1 0 0 1 1157 349 )" />
  </g>
</svg>