<?xml version="1.0" encoding="utf-8"?>
<svg version="1.1" xmlns:xlink="http://www.w3.org/1999/xlink" width="30px" height="30px" xmlns="http://www.w3.org/2000/svg">
  <g transform="matrix(1 0 0 1 -263 -442 )">
    <path d="M 30 2.30769230769238  C 30 1.03125  28.96875 0  27.6923076923076 0  L 2.30769230769238 0  C 1.03125 0  0 1.03125  0 2.30769230769238  L 0 27.6923076923076  C 0 28.96875  1.03125 30  2.30769230769238 30  L 27.6923076923076 30  C 28.96875 30  30 28.96875  30 27.6923076923076  L 30 2.30769230769238  Z M 27 20.1923076923076  L 27.4975961538462 20.1923076923076  C 27.4975961538462 20.5096153846152  27.2379807692309 20.7692307692309  26.9206730769229 20.7692307692309  L 3.07932692307713 20.7692307692309  C 2.76201923076906 20.7692307692309  2.50240384615381 20.5096153846152  3 20.1923076923076  L 3 3.07932692307691  C 2.50240384615381 2.76201923076928  2.76201923076906 2.50240384615381  3.07932692307713 3  L 26.9278846153848 3  C 27.2451923076924 2.50240384615381  27.5048076923076 2.76201923076928  27 3.07932692307691  L 27 20.1923076923076  Z " fill-rule="nonzero" fill="#606266" stroke="none" transform="matrix(1 0 0 1 263 442 )" />
  </g>
</svg>