<?xml version="1.0" encoding="utf-8"?>
<svg version="1.1" xmlns:xlink="http://www.w3.org/1999/xlink" width="8px" height="7px" xmlns="http://www.w3.org/2000/svg">
  <g transform="matrix(1 0 0 1 -105 -98 )">
    <path d="M 2.05105510638298 3.46784215220949  C 2.05105516366612 2.45919273322422  2.87502224222586 1.6352255400982  3.88367166121113 1.6352255400982  C 4.89232113747954 1.6352255400982  5.71628827332242 2.45919267594108  5.71628827332242 3.46784215220949  C 5.71628827332242 4.47649162847791  4.89232113747954 5.30045870703765  3.88367166121113 5.30045870703765  C 2.87502218494272 5.30045870703765  2.05105504909984 4.47649157119476  2.05105510638298 3.46784215220949  Z M 7.27898465630115 3.46784215220949  C 7.27898471358429 1.59260653846154  5.75890733224222 0.0725292144026177  3.88367166121113 0.0725291571194759  C 2.00843604746317 0.0725291571194759  0.488358723404255 1.59260648117839  0.488358723404255 3.46784215220949  C 0.488358723404255 5.34307782324059  2.00843604746317 6.86315509001637  3.88367166121113 6.86315509001637  C 5.75890727495908 6.86315509001637  7.278984599018 5.34307776595745  7.27898465630115 3.46784215220949  Z " fill-rule="nonzero" fill="#165dff" stroke="none" transform="matrix(1 0 0 1 105 98 )" />
  </g>
</svg>