<?xml version="1.0" encoding="utf-8"?>
<svg version="1.1" xmlns:xlink="http://www.w3.org/1999/xlink" width="34px" height="34px" xmlns="http://www.w3.org/2000/svg">
  <g transform="matrix(1 0 0 1 -130 -90 )">
    <path d="M 17.3686204582651 7.46165697217676  L 23.1861127495908 10.3668515057283  L 33.8550668003273 0.671031096563013  L 17.3686204582651 7.46165697217676  Z M 17.6527470785597 19.8424738543372  C 17.5817154091653 19.7643390180033  17.4822711292962 19.7217200736498  17.3686204582651 19.7217200163666  C 17.2620729541735 19.7217200163666  17.155525507365 19.7643390180033  17.0844938379705 19.8424738543372  C 16.7080261047463 20.2402510883797  16.3173519803601 20.630925212766  15.9124716366612 20.9860834451719  C 15.7419956873977 21.1494562274959  15.7348925204583 21.4193765139116  15.8911621358429 21.5969556301146  C 16.0332254173486 21.7603284124386  16.2889393698854 21.781637913257  16.4523121522095 21.6324714648118  C 16.8713988870704 21.2417973977087  17.2833824549918 20.844020106383  17.6669534124386 20.4320365384615  C 17.8161198608838 20.261560589198  17.8090166939443 20.0058466366612  17.6527470785597 19.8424738543372  Z M 15.280289893617 22.1012803682488  C 15.1524329459902 21.9094949181669  14.9038221603928 21.8597727495908  14.7191398772504 21.9805265302782  C 14.2858468085106 22.30016898527  13.838347405892 22.5985018821604  13.369538502455 22.8613190016367  C 13.2345783878887 22.9323506710311  13.1422372176759 23.0673107855974  13.1422372176759 23.2235804582651  C 13.1351340507365 23.3798500736498  13.2061657201309 23.5290165793781  13.3340226677578 23.6142545253682  C 13.4618796153846 23.6923893617021  13.6252524549918 23.6923893617021  13.7531094026187 23.6142545253682  C 14.2574341407529 23.3372310720131  14.7404493780687 23.0246918412439  15.2021551145663 22.6837398854337  C 15.3726310638298 22.541676603928  15.408146898527 22.2859626513912  15.280289893617 22.1012803682488  Z M 11.8139453436988 19.7856485188216  C 11.7500168412439 19.6933073486088  11.6505725613748 19.629378903437  11.5440250572831 19.6080694026187  C 11.4374775531915 19.5867599018003  11.3238269394435 19.6151725695581  11.2314857692308 19.67910101473  C 11.0468034860884 19.8140611292962  10.9970813175123 20.0768782487725  11.1320414893617 20.2686637561375  C 11.4090649427169 20.6877504909984  11.5653345581015 21.1707657283142  11.5937472258592 21.6750904664484  C 11.6150567266776 21.9023917512275  11.8139453436988 22.072867700491  12.0483497954173 22.0515581996727  C 12.268547913257 22.0231455319149  12.431920695581 21.8384632487725  12.4177143617021 21.6182651309329  C 12.3821985270049 20.9647739443535  12.1762067430442 20.3325922585925  11.8139453436988 19.7856485188216  Z M 8.24105323240589 18.5354914238953  C 8.290775400982 18.677554705401  8.41863234860883 18.7769990425532  8.56779885433715 18.7983085433715  C 9.07212359247136 18.8764433797054  9.55513882978723 19.0398161620295  10.0097413993453 19.2813237806874  C 10.1375983469722 19.3665617839607  10.3080743535188 19.3594586170213  10.4359313011457 19.274220613748  C 10.5637882487725 19.1889826104746  10.6419230851064 19.0398161620295  10.6277167512275 18.8835465466448  C 10.620613584288 18.7272769312602  10.5282724140753 18.5923167594108  10.393312299509 18.5283882569558  C 9.86057489361701 18.2442616366612  9.29232171031096 18.0524761865794  8.69565580196399 17.9530319067103  C 8.54648935351882 17.931722405892  8.40442601472995 17.995650908347  8.30498173486088 18.1093015220949  C 8.21264056464811 18.2300553027823  8.18422795417348 18.3934281423895  8.24105323240589 18.5354914238953  Z M 8.88033814238952 24.4169122176759  C 8.97267931260229 24.3600868821604  9.03660775777414 24.2677457692308  9.06502042553191 24.1611982651391  C 9.1289489279869 23.9410001472995  9.00819509001636 23.706595695581  8.78799697217676 23.6355640261866  C 8.29787856792144 23.4863975777414  7.83617283142389 23.2590962929624  7.417086096563 22.9678665057283  C 7.32474492635023 22.9110411702128  7.21819747954173 22.8897316693944  7.11164997545008 22.9181443371522  C 7.00510247135843 22.9394538379705  6.91986452536824 23.0033823404255  6.8630391898527 23.0957234533552  C 6.7422854091653 23.287508903437  6.78490435351882 23.5361196890344  6.96248352700491 23.6781830278232  C 7.45260193126023 24.0262380932897  7.9924424468085 24.289055212766  8.56779885433715 24.45242799509  C 8.6743463584288 24.4808406628478  8.78799697217676 24.4666343289689  8.88033814238952 24.4169122176759  Z M 5.13697008183307 19.3807681178396  C 5.17958908346973 19.4375934533552  5.24351758592472 19.4802124549918  5.314549198036 19.4944187315876  C 5.45661247954173 19.5299345662848  5.60577898527005 19.4944187315876  5.71232643207856 19.3949744517185  C 6.07458783142389 19.0753319967267  6.52208723404256 18.869340212766  7.00510252864157 18.805411710311  C 7.15426897708674 18.7769990425532  7.27502281505728 18.6775547626841  7.32474492635025 18.5354914238953  C 7.40287976268413 18.3152933060556  7.29633225859248 18.0737856873977  7.07613414075287 17.9814445744681  C 7.00510247135843 17.9601350736498  6.93407085924715 17.9530319067103  6.86303918985271 17.9601350736498  C 6.22375433715222 18.059579410802  5.62708842880524 18.3437059738134  5.15117641571196 18.7769990425532  C 4.9878036333879 18.9403718248773  4.98070046644845 19.2031889443535  5.13697008183307 19.3807681178396  Z M 6.20244483633388 21.8597727495908  C 5.86149288052373 21.4904081833061  5.59867581833061 21.0500119476268  5.43530303600655 20.5740998199673  C 5.39978720130933 20.4320365384615  5.28613658756138 20.3183858674304  5.13697008183306 20.2828700900164  C 4.99490680032734 20.2402510883797  4.83863712765958 20.2899732569558  4.73919284779051 20.3965207037643  C 4.63264534369885 20.5101713747954  4.59712956628478 20.66644099018  4.6397485106383 20.8156074386252  C 4.83153396072013 21.4193764566285  5.15827958265139 21.9663201963993  5.58446948445172 22.4351290998363  C 5.65550115384615 22.5203671031097  5.75494543371522 22.5700892144026  5.86859610474632 22.5771924386252  C 5.97514360883797 22.5842956055647  6.08879422258592 22.541676603928  6.16692900163666 22.4635417675941  C 6.33740495090017 22.3072721522095  6.35161128477905 22.0373518657938  6.20244483633388 21.8597727495908  Z M 19.8689345908347 17.7612464566285  C 19.9896883715221 17.5765641734861  19.954172594108 17.3208502209493  19.7765934779051 17.1787868821604  C 19.6913554746317 17.1148583797054  19.5848080278232 17.0864457119476  19.4782605237316 17.1006521031097  C 19.3717130196399 17.1148584369885  19.2722687397709 17.1716837725041  19.2083402373159 17.2569217184943  C 18.8815946153846 17.7044211211129  18.547745883797 18.1377141898527  18.1996908183306 18.563904091653  C 18.0647307037643 18.7485863747954  18.0860401472995 19.0043003273322  18.256516096563 19.1534668330606  C 18.3346509328969 19.224498502455  18.4411983797054 19.2600143371522  18.547745883797 19.2529111129296  C 18.6542933878887 19.245807888707  18.7537376677578 19.1960857774141  18.8247693371522 19.1108478314239  C 19.1870307364975 18.6775547626841  19.5350858592471 18.2158490261866  19.8689345908347 17.7612464566285  Z M 21.7583765384615 14.841845589198  C 21.8720272094926 14.6500601391162  21.8080987070377 14.3943461865794  21.6092100900164 14.2664891816694  C 21.5168689198036 14.2096638461538  21.4032183060556 14.195457512275  21.296670801964 14.2167670130933  C 21.1901232978723 14.2451796808511  21.0977821849427 14.3162113502455  21.0480600163666 14.4085525204583  C 20.7710365630115 14.8915677577741  20.4798067757774 15.3674798281506  20.1743707119476 15.8362886743044  C 20.0820295417349 15.9641456219313  20.067823207856 16.1275184615385  20.1388548772504 16.2695817430442  C 20.2027833797054 16.4116450245499  20.3377434942717 16.5039861947627  20.48691 16.5110893617021  C 20.6431796153846 16.5181925286416  20.7852429541735 16.4400576923077  20.8633777332242 16.3050975777414  C 21.1759170212766 15.829185507365  21.4671467512275 15.3319639361702  21.7583765384615 14.841845589198  Z M 23.0298430769231 12.4338725695581  C 23.1221842471358 12.2207776186579  23.0298430769231 11.9721668330606  22.8167481260229 11.8727225531915  C 22.6249626759411 11.7874845499182  22.3905582242226 11.865619386252  22.298217111293 12.0574048363339  C 22.1490506628478 12.3699441243863  21.99278099018 12.675380188216  21.8365113747954 12.980816309329  C 21.7299638707038 13.1868080932897  21.8009955400982 13.4425220458265  21.9998841571195 13.5632758265139  C 22.0993284942717 13.61299799509  22.2129791080196 13.6272043289689  22.3124233878887 13.5916884942717  C 22.4189708919804 13.5561726595745  22.5042088379705 13.48514099018  22.5539310065466 13.385696710311  C 22.7173037888707 13.0731574222586  22.8735734615385 12.7535150245499  23.0298430769231 12.4338725695581  Z M 24.1592463338789 11.3399851472995  L 24.1592463338789 15.2183133224223  L 26.0984104500818 12.3131187888707  L 24.1592463338789 11.3399851472995  Z M 10.7058515875614 26.6615123977087  C 10.8266053682488 26.4697269476268  10.7768832569558 26.2282193289689  10.5993040834697 26.0932591571195  C 10.5140660801964 26.0293306546645  10.4075186333879 26.0009179869067  10.3009711292962 26.0151243780687  C 10.1944236252046 26.0293307119476  10.102082512275 26.0861560474632  10.03815400982 26.1713939934534  C 9.73271788870704 26.6259965630115  9.39176599018003 27.0521864648118  9.0295045908347 27.4641700327332  C 8.87323497545008 27.6417491489362  8.88744130932897 27.9045662684124  9.05081409165303 28.0679390507365  C 9.1289489279869 28.1460738870704  9.23549637479542 28.1815897217676  9.34914698854337 28.1744865548282  C 9.45569449263502 28.1673833878887  9.56224193944353 28.1176612193126  9.63327360883797 28.0324232733224  C 10.0239476759411 27.5991302045827  10.3791059656301 27.1445276350245  10.7058515875614 26.6615123977087  Z M 8.46835451718495 28.657501792144  C 8.39732284779051 28.5793669558102  8.29787856792144 28.5225416775777  8.18422795417349 28.5154385106383  C 8.07768045008184 28.5083353436989  7.96402983633388 28.5438511783961  7.88589500000001 28.6219859574468  C 7.48811776595745 28.998453690671  7.06903103109656 29.3536119803601  6.6428410720131 29.6874607119476  C 6.47236512274959 29.8366271603928  6.44395245499182 30.0923411129296  6.57891262684125 30.2770234533552  C 6.64284112929624 30.3622614566285  6.73518224222587 30.4190867348609  6.84172974631752 30.4403962356792  C 6.94827725040917 30.4546025695581  7.05482469721768 30.4332930687398  7.14006264320786 30.3693645662848  C 7.58756204582652 30.0213095008183  8.02085511456629 29.6519448772504  8.43994184942717 29.2612708101473  C 8.61041779869068 29.0978980278232  8.62462413256956 28.835080908347  8.46835451718495 28.657501792144  Z M 5.88990560556465 30.7813481914894  C 5.82597710310966 30.696110188216  5.73363599018003 30.6321817430442  5.62708848608838 30.6037690180033  C 5.52054098199673 30.5824595171849  5.40689036824877 30.6037690180033  5.314549198036 30.6676975204583  C 4.86704979541735 30.9873399754501  4.40534405891981 31.2856728723404  3.94363832242226 31.569799492635  C 3.75895603927987 31.6976564402619  3.70213070376432 31.9533703927987  3.81578137479542 32.1522590671031  C 3.86550354337152 32.2517034042553  3.95784465630115 32.3227350163666  4.05728899345335 32.3511476841244  C 4.16383649754501 32.3795603518822  4.27748711129296 32.3653540180033  4.36982822422259 32.3085286824877  C 4.84574029459901 32.0101957283142  5.314549198036 31.7047596644844  5.77625493453355 31.3851172094926  C 5.96804038461539 31.2430539279869  6.01776255319149 30.9802368085106  5.88990560556465 30.7813481914894  Z M 3.06994901800327 32.5855521358429  C 3.02733001636661 32.4932109656301  2.94209207037643 32.4221793535188  2.83554456628478 32.3866635188216  C 2.72899706219313 32.3511476841244  2.62244961538461 32.3653540180033  2.52300533551555 32.4150761292962  C 2.04709326513911 32.6849964157119  1.56407802782324 32.9478135351882  1.07395962356792 33.1893211538462  C 0.8679678396072 33.3029718248772  0.796936170212764 33.5586857201309  0.89638050736497 33.7717806710311  C 0.946102675941074 33.8712250081833  1.02423745499181 33.9422566202946  1.13078495908347 33.977772512275  C 1.23022929623568 34.0132883469722  1.34387990998363 34.0061851800327  1.4433241898527 33.9564630114566  C 1.94054576104746 33.7078522258593  2.43066416530278 33.4308287725041  2.91367940261866 33.1609084860884  C 3.10546485270049 33.040154705401  3.17649652209493 32.7915439198036  3.06994901800327 32.5855521358429  Z " fill-rule="nonzero" fill="#165dff" stroke="none" transform="matrix(1 0 0 1 130 90 )" />
  </g>
</svg>