<?xml version="1.0" encoding="utf-8"?>
<svg version="1.1" xmlns:xlink="http://www.w3.org/1999/xlink" width="14px" height="14px" xmlns="http://www.w3.org/2000/svg">
  <g transform="matrix(1 0 0 1 -12 -13 )">
    <path d="M 3.94871794871795 2.42307692307693  L 3.94871794871795 0.897435897435912  L 13.8653846153846 0.897435897435912  L 13.8653846153846 2.42307692307693  L 3.94871794871795 2.42307692307693  Z M 0.13461538461539 2.80448717948721  L 0.13461538461539 0.516025641025635  L 2.42307692307693 0.516025641025635  L 2.42307692307693 2.80448717948721  L 0.13461538461539 2.80448717948721  Z M 0.13461538461539 8.14423076923077  L 0.13461538461539 5.85576923076923  L 2.42307692307693 5.85576923076923  L 2.42307692307693 8.14423076923077  L 0.13461538461539 8.14423076923077  Z M 0.13461538461539 13.4839743589744  L 0.13461538461539 11.1955128205128  L 2.42307692307693 11.1955128205128  L 2.42307692307693 13.4839743589744  L 0.13461538461539 13.4839743589744  Z M 3.94871794871795 7.7628205128205  L 3.94871794871795 6.2371794871795  L 13.8653846153846 6.2371794871795  L 13.8653846153846 7.7628205128205  L 3.94871794871795 7.7628205128205  Z M 3.94871794871795 13.1025641025641  L 3.94871794871795 11.5769230769231  L 13.8653846153846 11.5769230769231  L 13.8653846153846 13.1025641025641  L 3.94871794871795 13.1025641025641  Z " fill-rule="nonzero" fill="#86909c" stroke="none" transform="matrix(1 0 0 1 12 13 )" />
  </g>
</svg>