<?xml version="1.0" encoding="utf-8"?>
<svg version="1.1" xmlns:xlink="http://www.w3.org/1999/xlink" width="14px" height="14px" xmlns="http://www.w3.org/2000/svg">
  <g transform="matrix(1 0 0 1 -12 -13 )">
    <path d="M 13.6666666666667 7  C 13.6666666666667 10.682  10.682 13.6666666666667  7 13.6666666666667  C 3.318 13.6666666666667  0.333333333333333 10.682  0.333333333333333 7  C 0.333333333333333 3.318  3.318 0.333333333333333  7 0.333333333333333  C 10.682 0.333333333333333  13.6666666666667 3.318  13.6666666666667 7  Z M 7 12.3333333333333  C 9.94551866576423 12.3333333333333  12.3333333333333 9.94551866576423  12.3333333333333 7  C 12.3333333333333 4.05448133423577  9.94551866576423 1.66666666666667  7 1.66666666666667  C 4.05448133423577 1.66666666666667  1.66666666666667 4.05448133423577  1.66666666666667 7  C 1.66666666666667 9.94551866576423  4.05448133423577 12.3333333333333  7 12.3333333333333  Z M 7 10.3333333333333  C 5.15905083389736 10.3333333333333  3.66666666666667 8.84094916610264  3.66666666666667 7  L 5 7  C 5 8.10456949966159  5.89543050033841 9  7 9  C 8.10456949966159 9  9 8.10456949966159  9 7  L 10.3333333333333 7  C 10.3333333333333 8.84094916610264  8.84094916610264 10.3333333333333  7 10.3333333333333  Z " fill-rule="nonzero" fill="#86909c" stroke="none" transform="matrix(1 0 0 1 12 13 )" />
  </g>
</svg>