<?xml version="1.0" encoding="utf-8"?>
<svg version="1.1" xmlns:xlink="http://www.w3.org/1999/xlink" width="14px" height="14px" xmlns="http://www.w3.org/2000/svg">
  <g transform="matrix(1 0 0 1 -12 -13 )">
    <path d="M 0.333333333333333 7  C 0.333333333333333 3.318  3.318 0.333333333333333  7 0.333333333333333  C 10.682 0.333333333333333  13.6666666666667 3.318  13.6666666666667 7  C 13.6666666666667 10.682  10.682 13.6666666666667  7 13.6666666666667  C 3.318 13.6666666666667  0.333333333333333 10.682  0.333333333333333 7  Z M 12.3333333333333 7  C 12.3333333333333 4.05466666666667  9.94533333333333 1.66666666666667  7 1.66666666666667  C 4.05466666666667 1.66666666666667  1.66666666666667 4.05466666666667  1.66666666666667 7  C 1.66666666666667 9.94533333333333  4.05466666666667 12.3333333333333  7 12.3333333333333  C 9.94533333333333 12.3333333333333  12.3333333333333 9.94533333333333  12.3333333333333 7  Z M 2.33333333333333 7  C 2.33333333333333 4.42266666666667  4.42266666666667 2.33333333333333  7 2.33333333333333  C 7.67866666666667 2.33333333333333  8.32333333333333 2.478  8.90533333333333 2.73866666666667  L 7.86333333333333 3.78  C 7.588 3.70666666666667  7.29866666666667 3.66666666666667  7 3.66666666666667  C 5.15933333333333 3.66666666666667  3.66666666666667 5.15933333333333  3.66666666666667 7  C 3.66666666666667 7.92  4.04 8.75333333333333  4.64266666666667 9.35733333333333  L 3.7 10.3  L 3.596 10.1926666666667  C 2.81333333333333 9.358  2.33333333333333 8.23466666666667  2.33333333333333 7  Z M 10.22 6.13666666666667  L 11.2613333333333 5.09533333333333  C 11.5213333333333 5.67666666666667  11.6666666666667 6.322  11.6666666666667 7  C 11.6666666666667 8.28866666666667  11.144 9.45533333333333  10.3 10.3  L 9.35733333333333 9.35733333333333  C 9.96 8.75333333333333  10.3333333333333 7.92  10.3333333333333 7  C 10.3333333333333 6.70133333333333  10.294 6.412  10.22 6.13666666666667  Z M 9.828 3.22866666666667  L 10.7713333333333 4.17133333333333  L 8.28866666666667 6.65533333333333  C 8.318 6.76533333333333  8.33333333333333 6.88066666666667  8.33333333333333 7  C 8.33333333333333 7.73666666666667  7.73666666666667 8.33333333333333  7 8.33333333333333  C 6.26333333333333 8.33333333333333  5.66666666666667 7.73666666666667  5.66666666666667 7  C 5.66666666666667 6.26333333333333  6.26333333333333 5.66666666666667  7 5.66666666666667  C 7.11933333333333 5.66666666666667  7.23466666666666 5.682  7.34466666666667 5.71133333333333  L 9.82866666666667 3.22866666666667  Z " fill-rule="nonzero" fill="#165dff" stroke="none" transform="matrix(1 0 0 1 12 13 )" />
  </g>
</svg>