<?xml version="1.0" encoding="utf-8"?>
<svg version="1.1" xmlns:xlink="http://www.w3.org/1999/xlink" width="30px" height="28px" xmlns="http://www.w3.org/2000/svg">
  <g transform="matrix(1 0 0 1 -263 -392 )">
    <path d="M 0 4.05288461538476  C 0 1.73798076923094  3.16586538461547 0.00721153846143352  7.06730769230762 0.00721153846143352  C 10.96875 0.00721153846143352  14.2788461538462 2.01923076923094  14.2788461538462 5.92067307692287  L 14.2788461538462 27.5480769230767  C 14.2788461538462 27.7067307692305  14.0552884615386 27.7427884615386  14.0048076923076 27.5985576923076  L 14.0048076923076 27.5913461538462  C 13.2620192307693 25.125  11.25 22.7163461538462  8.06971153846143 22.5072115384614  C 5.60336538461547 22.3485576923076  3.24519230769238 23.4375  1.35576923076928 25.1826923076924  C 1.24038461538453 25.2908653846152  1.04567307692309 25.3918269230767  0.879807692307622 25.3918269230767  L 0.555288461538566 25.3918269230767  C 0.288461538461434 25.3918269230767  0.00721153846143352 25.1971153846152  0 24.9519230769229  L 0 4.05288461538476  Z M 30 4.03846153846143  C 30 1.73076923076906  26.8341346153845 0  22.9326923076924 0  C 19.03125 0  15.7211538461538 2.01201923076906  15.7211538461538 5.91346153846143  L 15.7211538461538 27.5408653846152  C 15.7211538461538 27.6995192307691  15.9447115384614 27.7355769230767  15.9951923076924 27.5913461538462  L 15.9951923076924 27.5841346153848  C 16.7379807692307 25.1177884615386  18.8365384615386 22.6875  21.9302884615386 22.5  C 24.3028846153845 22.3557692307691  26.5384615384614 23.2932692307691  28.6442307692307 25.1754807692305  C 28.7596153846155 25.2764423076924  28.9543269230769 25.3846153846152  29.1201923076924 25.3846153846152  L 29.4447115384614 25.3846153846152  C 29.7115384615386 25.3846153846152  29.9927884615386 25.1899038461538  30 24.9447115384614  L 30 4.03846153846143  Z " fill-rule="nonzero" fill="#606266" stroke="none" transform="matrix(1 0 0 1 263 392 )" />
  </g>
</svg>