<?xml version="1.0" encoding="utf-8"?>
<svg version="1.1" xmlns:xlink="http://www.w3.org/1999/xlink" width="30px" height="21px" xmlns="http://www.w3.org/2000/svg">
  <g transform="matrix(1 0 0 1 -1031 -626 )">
    <path d="M 21.0208333333334 0.416666666666743  C 20.5104166666667 -0.125  19.65625 -0.135416666666742  19.125 0.385416666666742  C 18.59375 0.90625  18.59375 1.77083333333326  19.1145833333333 2.30208333333326  L 25.4479166666667 9  L 1.34375 9  C 0.604166666666686 8.64583333333326  0 9.25  0 10  C 0 10.75  0.604166666666686 11.3541666666667  1.34375 11  L 25.4375 11  L 19.1041666666667 17.6979166666667  C 18.5833333333333 18.2291666666667  18.59375 19.0833333333335  19.1145833333333 19.6145833333335  C 19.6458333333333 20.1354166666667  20.4895833333333 20.1354166666667  21.0208333333334 19.6041666666667  L 29.6041666666667 10.9583333333333  C 29.71875 10.8333333333333  29.8125 10.6979166666667  29.8854166666667 10.53125  C 29.9583333333333 10.3645833333333  29.9895833333333 10.1875  29.9895833333333 10.0104166666667  C 29.9895833333333 9.65625  29.8541666666667 9.32291666666674  29.6041666666667 9.0625  L 21.0208333333334 0.416666666666743  Z " fill-rule="nonzero" fill="#606266" stroke="none" transform="matrix(1 0 0 1 1031 626 )" />
  </g>
</svg>