<?xml version="1.0" encoding="utf-8"?>
<svg version="1.1" xmlns:xlink="http://www.w3.org/1999/xlink" width="56px" height="71px" xmlns="http://www.w3.org/2000/svg">
  <g transform="matrix(1 0 0 1 -242 -331 )">
    <path d="M 48.2201342281879 61.5585106382979  C 48.1825503355705 62.6159574468085  47.3557046979866 63.4468085106383  46.4161073825503 63  L 9.20805369127517 63  C 8.15570469798658 63.4468085106383  7.32885906040269 62.6159574468085  7.32885906040269 61.5585106382979  C 7.32885906040269 60.5010638297872  8.15570469798658 59.6702127659575  9.20805369127517 59  L 46.3409395973154 59  C 47.393288590604 59.6702127659575  48.2201342281879 60.5010638297872  48.2201342281879 61.5585106382979  Z M 55 9.36595744680851  C 55.6241610738255 8.38404255319149  54.7973154362416 7.5531914893617  53.8201342281879 7.5531914893617  C 52.7677852348993 7.5531914893617  51.9409395973154 8.38404255319149  52 9.44148936170213  L 52 65.4106382978723  C 51.9409395973154 66.468085106383  51.1140939597315 67.2989361702128  50.061744966443 67  L 9.20805369127517 67  C 6.12617449664429 67.2989361702128  3.64563758389262 64.7308510638298  3.64563758389262 61.7095744680851  C 3.64563758389262 58.6127659574468  6.2013422818792 56.1202127659575  9.20805369127517 56  L 42.6577181208054 56  C 45.7395973154362 56.1202127659575  48.2201342281879 53.5521276595745  48 50.5308510638298  L 48 5.66489361702128  C 48.2201342281879 2.56808510638298  45.6644295302013 0.0755319148936171  42.6577181208054 0  L 5.56241610738255 0  C 2.44295302013423 0.0755319148936171  0 2.6436170212766  0 5.66489361702128  L 0 61.6340425531915  C 0 66.7324468085106  4.13422818791946 71  9.32080536912752 71  L 50.2120805369128 71  C 53.2939597315436 71  55.7744966442953 68.431914893617  55 65.4106382978723  L 55 9.36595744680851  Z " fill-rule="nonzero" fill="#68778c" stroke="none" transform="matrix(1 0 0 1 242 331 )" />
  </g>
</svg>