<?xml version="1.0" encoding="utf-8"?>
<svg version="1.1" xmlns:xlink="http://www.w3.org/1999/xlink" width="55px" height="55px" xmlns="http://www.w3.org/2000/svg">
  <g transform="matrix(1 0 0 1 -235 -102 )">
    <path d="M 55 27.5  C 55 12.32  42.68 0  27.5 0  C 12.3200000000001 0  0 12.32  0 27.5  C 0 42.68  12.3200000000001 55  27.5 55  C 42.68 55  55 42.68  55 27.5  Z M 38.3075 24.5575  C 40.81 26.2075  40.81 28.8475  38.3075 30.4425  L 25.41 39.05  C 23.21 40.7  20.9825 39.7375  21 36.7125  L 21 18.2875  C 20.9825 15.345  22.8799999999999 14.355  25.41 15.95  L 38.3075 24.5575  Z " fill-rule="nonzero" fill="#ffffff" stroke="none" transform="matrix(1 0 0 1 235 102 )" />
  </g>
</svg>