<?xml version="1.0" encoding="utf-8"?>
<svg version="1.1" xmlns:xlink="http://www.w3.org/1999/xlink" width="66px" height="66px" xmlns="http://www.w3.org/2000/svg">
  <g transform="matrix(1 0 0 1 -1412 -336 )">
    <path d="M 1.34161493594721 1  C 0.782608739324535 0.223602462635868  0.223602542701864 0.78260865925854  0.223602462635869 1.34161493594721  L 0.223602462635869 3.2049689513781  C 0.223602462635869 3.76397514800078  0.78260865925854 4.32298134462345  1.34161493594721 4.32298134462345  L 3.2049689513781 4.32298134462345  C 3.76397514800078 4.32298134462345  4.32298134462345 4.88198754124612  5 5.44099381793478  L 5 43.4534161490683  C 4.32298134462345 48.2981366532415  7.67701860442547 51.6521739130435  12.5217391085986 51  L 24.8198757545613 51  L 17.5527950383346 64.322981330066  C 17.1801242672748 64.8819875266886  17.3664596127717 65.6273291488742  17.9254658093944 65.8136645744371  C 18.1118012349573 66  18.2981365804542 66  18.4844720860831 66  L 22.024844691382 66  C 22.3975154624418 66  22.7701863135675 65.8136645744371  22.9565217391304 65.4409938033773  L 30.7826087320458 51.6521739130435  L 34.8819876140334 51.6521739130435  L 42.7080745268828 65.4409938033773  C 42.8944099524457 65.8136645744371  43.2670807235054 66  43.6397515746312 66  L 47.1801242599961 66  C 47.7391304566188 66  48.2981366532415 65.4409938033773  48.2981366532415 64.8819876067547  C 48.2981366532415 64.6956521811918  48.2981366532415 64.5093168356949  48.1118012276786 64.322981330066  L 41.4037267080745 51  L 53.7018633540373 51  C 58.5465838582104 51.8385093386064  61.9006211180124 48.4844720788043  62 43.6397515746312  L 62 5.44099381793478  C 61.9006211180124 4.88198762131211  62.4596273146351 4.32298142468944  63.0186335112578 4.32298134462345  L 64.8819876067546 4.32298134462345  C 65.4409938033773 4.32298134462345  66 3.76397514800078  66 3.2049689513781  L 66 1.3416149359472  C 66 0.782608739324533  65.4409938033773 0.223602542701864  64.8819876067546 1  L 1.34161493594721 1  Z M 23 40.4720496603261  C 22.7701863135675 41.0310558569488  22.3975155425078 41.5900620535714  21.6521739203222 41.5900621336374  L 19.7888199048913 41.5900621336374  C 19.2298137082686 41.5900621336374  18.670807511646 41.0310559370147  19 40.4720496603261  L 19 28.1739130143633  C 18.67080743158 27.6149068177407  19.2298136282026 27.055900621118  19.7888199048913 27.055900621118  L 21.6521739203222 27.055900621118  C 22.2111801169449 27.055900621118  22.7701863135675 27.6149068177407  23 28.1739130143633  L 23 40.4720496603261  Z M 35 40.4720496603261  C 35.2546583850932 41.0310558569488  34.6956521884705 41.4037267080745  34.1366459918478 41.4037267080745  L 32.2732918963509 41.4037267080745  C 31.7142856997283 41.4037267080745  31.1552795031056 40.8447205114519  32 40.2857143148292  L 32 13.453416156347  C 31.1552795031056 12.8944099597244  31.7142856997283 12.3354037631017  32.2732918963509 12.3354037631017  L 34.1366459918478 12.3354037631017  C 34.6956521884705 12.3354037631017  35.2546583850932 12.8944099597244  35 13.453416156347  L 35 40.4720496603261  Z M 47 40.4720496603261  C 47.5527950310559 41.0310558569488  47.1801242599961 41.5900620535714  46.4347826378106 41.5900621336374  L 44.5714285423137 41.5900621336374  C 44.012422345691 41.5900621336374  43.4534161490683 41.0310559370147  43 40.4720496603261  L 43 19.7888199048913  C 43.4534161490683 19.2298137082686  44.012422345691 18.670807511646  44.5714285423137 18.67080743158  L 46.4347826378106 18.67080743158  C 46.9937888344332 18.67080743158  47.5527950310559 19.2298136282026  47 19.7888199048913  L 47 40.4720496603261  Z " fill-rule="nonzero" fill="#68778c" stroke="none" transform="matrix(1 0 0 1 1412 336 )" />
  </g>
</svg>