<?xml version="1.0" encoding="utf-8"?>
<svg version="1.1" xmlns:xlink="http://www.w3.org/1999/xlink" width="17px" height="19px" xmlns="http://www.w3.org/2000/svg">
  <g transform="matrix(1 0 0 1 -10 -9 )">
    <path d="M 12.904206539075 3.23867652529762  C 12.9635167464115 3.21879650297619  13.0270633971292 3.23646763392857  13.0927282695375 3.23646763392857  L 14.2598684210526 3.23646763392857  L 14.2598684210526 1.01211402529762  C 14.2598684210526 0.46430896577381  13.8298694178628 0.0181129092261898  13.3066686602871 0  L 0.0826106459329772 0  L 0 0.0136951264880949  L 0 16.896251860119  L 9.16130881180215 18.9726097470238  L 9.16130881180215 16.896251860119  L 13.3066686602871 16.896251860119  C 13.8319876395534 16.896251860119  14.2598684210526 16.4478469122024  14.2598684210526 15.9022507440476  L 14.2598684210526 13.6182570684524  L 13.0927282695375 13.6182570684524  C 13.0270633971292 13.6182570684524  12.9635167464115 13.6359281994048  12.904206539075 13.6182570684524  L 12.904206539075 15.4803524925595  L 9 15.4803524925595  L 9 2.09005301339286  L 5.98821271929818 1.43180338541667  L 12.904206539075 1.43180338541667  L 12.904206539075 3.23867652529762  Z M 6.40762061403502 7.42452566964286  L 7.76328249601268 7.64541480654762  L 7.76328249601268 11.0029296875  L 6.40762061403502 10.7820405505952  L 6.40762061403502 7.42452566964286  Z M 13.2022385946937 12.4400412087912  C 13.4509039311907 12.7162545787546  13.8579931514237 12.7162545787546  14.1086638535375 12.444391025641  L 16.7938484145816 9.53218864468864  C 16.9141703515962 9.40169413919413  16.9803474169543 9.22770146520147  16.9803474169543 9.04065934065934  C 16.9803474169543 8.85361721611721  16.9141703515962 8.67962454212455  16.7938484145816 8.54913003663004  L 14.1086638535375 5.63692765567766  C 13.8579931514237 5.3650641025641  13.4509039311907 5.3650641025641  13.2002332290768 5.63692765567766  C 13.0799112920621 5.76742216117217  13.013734226704 5.94141483516483  13.013734226704 6.12845695970696  C 13.013734226704 6.31549908424909  13.0799112920621 6.48949175824175  13.2002332290768 6.61998626373626  L 14.7884827976704 8.34251373626374  L 11.4074363675582 8.34251373626374  C 11.0544920189819 8.34251373626374  10.7657193701467 8.65570054945054  10.7657193701467 9.03848443223444  C 10.7657193701467 9.4212683150183  11.0544920189819 9.73445512820513  11.4074363675582 9.73445512820513  L 14.7904881632873 9.73445512820513  L 13.2022385946937 11.4569826007326  C 13.081916657679 11.5874771062271  13.015739592321 11.7614697802198  13.015739592321 11.9485119047619  C 13.015739592321 12.135554029304  13.081916657679 12.3095467032967  13.2022385946937 12.4400412087912  Z " fill-rule="nonzero" fill="#000000" stroke="none" transform="matrix(1 0 0 1 10 9 )" />
  </g>
</svg>