<?xml version="1.0" encoding="utf-8"?>
<svg version="1.1" xmlns:xlink="http://www.w3.org/1999/xlink" width="18px" height="18px" xmlns="http://www.w3.org/2000/svg">
  <g transform="matrix(1 0 0 1 -9 -9 )">
    <path d="M 18 2.15859375  C 18 0.980859375  17.06484375 0  15.92578125 0  L 2.07421875 0  C 0.921093750000001 0  0 0.96328125  0 2.15859375  L 0 13.679296875  C 0 14.874609375  0.93515625 15.837890625  2.07421875 15.837890625  L 6.6375 15.837890625  L 8.5078125 17.78203125  C 8.637890625 17.926171875  8.82421875 17.996484375  8.996484375 17.996484375  C 9.16875 17.996484375  9.355078125 17.926171875  9.48515625 17.78203125  L 11.35546875 15.837890625  L 15.92578125 15.837890625  C 17.07890625 15.837890625  18 14.874609375  18 13.679296875  L 18 2.15859375  Z M 6.23671875 7.562109375  C 6.23671875 8.152734375  5.75859375 8.64140625  5.199609375 8.64140625  C 4.623046875 8.64140625  4.1625 8.152734375  4.1625 7.562109375  C 4.1625 6.971484375  4.623046875 6.4828125  5.199609375 6.4828125  C 5.776171875 6.4828125  6.23671875 6.971484375  6.23671875 7.562109375  Z M 10.381640625 7.562109375  C 10.381640625 8.152734375  9.92109375 8.64140625  9.34453125 8.64140625  C 8.76796875 8.64140625  8.307421875 8.152734375  8.307421875 7.562109375  C 8.307421875 6.971484375  8.76796875 6.4828125  9.34453125 6.4828125  C 9.92109375 6.4828125  10.381640625 6.971484375  10.381640625 7.562109375  Z M 14.544140625 7.562109375  C 14.544140625 8.152734375  14.06953125 8.64140625  13.50703125 8.64140625  C 12.93046875 8.64140625  12.469921875 8.152734375  12.469921875 7.562109375  C 12.469921875 6.971484375  12.93046875 6.4828125  13.50703125 6.4828125  C 14.08359375 6.4828125  14.544140625 6.971484375  14.544140625 7.562109375  Z " fill-rule="nonzero" fill="#f8f9fd" stroke="none" transform="matrix(1 0 0 1 9 9 )" />
  </g>
</svg>