<?xml version="1.0" encoding="utf-8"?>
<svg version="1.1" xmlns:xlink="http://www.w3.org/1999/xlink" width="10px" height="15px" preserveAspectRatio="xMidYMin meet" viewBox="1390 455  8 15" xmlns="http://www.w3.org/2000/svg">
  <path d="M 1345 464.5  L 1368 464.5  A 2 2 0 0 0 1370.5 462.5 A 2 2 0 0 1 1372.5 460.5 L 1389 460.5  A 5 5 0 0 1 1394.5 465.5 L 1394.5 470  " stroke-width="1" stroke="#ff3399" fill="none" />
  <path d="M 1347 461.5  A 3 3 0 0 0 1344 464.5 A 3 3 0 0 0 1347 467.5 A 3 3 0 0 0 1350 464.5 A 3 3 0 0 0 1347 461.5 Z " fill-rule="nonzero" fill="#ff3399" stroke="none" />
</svg>