<?xml version="1.0" encoding="utf-8"?>
<svg version="1.1" xmlns:xlink="http://www.w3.org/1999/xlink" width="10px" height="10px" xmlns="http://www.w3.org/2000/svg">
  <g transform="matrix(1 0 0 1 -545 -180 )">
    <path d="M 0.0916043945312595 9.46638955078123  L 4.55799394531249 5  L 0.0916043945312595 0.533610439453128  C -0.0304306347656222 0.41157541992186  -0.0304306347656222 0.213717539062486  0.0916043945312595 0.0916825195312754  C 0.213639423828113 -0.0303525097656348  0.411497294921872 -0.0303525097656348  0.533532324218754 0.0916825195312754  L 4.99992187500001 4.55807207031251  L 9.46631142578124 0.0916825195312754  C 9.58834648437499 -0.0303525097656348  9.78620430664063 -0.0303525097656348  9.90823936523438 0.0916825195312754  C 10.0302743652344 0.213717539062486  10.0302743652344 0.41157541992186  9.90823936523438 0.533610439453128  L 5.44184980468751 5  L 9.90823936523438 9.46638955078123  C 10.0302743652344 9.58842460937501  10.0302743652344 9.78628243164064  9.90823936523438 9.90831749023437  C 9.78620430664063 10.0303524902343  9.58834648437499 10.0303524902343  9.46631142578124 9.90831749023437  L 4.99992187500001 5.44192792968749  L 0.533532324218754 9.90831749023437  C 0.411497294921872 10.0303524902343  0.213639423828113 10.0303524902343  0.0916043945312595 9.90831749023437  C -0.0304306347656222 9.78628243164064  -0.0304306347656222 9.58842460937501  0.0916043945312595 9.46638955078123  Z " fill-rule="nonzero" fill="#e6a23c" stroke="none" transform="matrix(1 0 0 1 545 180 )" />
  </g>
</svg>