<?xml version="1.0" encoding="utf-8"?>
<svg version="1.1" xmlns:xlink="http://www.w3.org/1999/xlink" width="10px" height="15px" preserveAspectRatio="xMidYMin meet" viewBox="1431 175  8 15" xmlns="http://www.w3.org/2000/svg">
  <path d="M 1386 184.5  L 1408 184.5  A 2 2 0 0 0 1410.5 182.5 A 2 2 0 0 1 1412.5 180.5 L 1430 180.5  A 5 5 0 0 1 1435.5 185.5 L 1435.5 190  " stroke-width="1" stroke="#ff3399" fill="none" />
  <path d="M 1388 181.5  A 3 3 0 0 0 1385 184.5 A 3 3 0 0 0 1388 187.5 A 3 3 0 0 0 1391 184.5 A 3 3 0 0 0 1388 181.5 Z " fill-rule="nonzero" fill="#ff3399" stroke="none" />
</svg>