<?xml version="1.0" encoding="utf-8"?>
<svg version="1.1" xmlns:xlink="http://www.w3.org/1999/xlink" width="55px" height="25px" xmlns="http://www.w3.org/2000/svg">
  <g transform="matrix(1 0 0 1 -1233 -498 )">
    <path d="M 1234 502  A 3 3 0 0 1 1237 499 L 1284 499  A 3 3 0 0 1 1287 502 L 1287 519  A 3 3 0 0 1 1284 522 L 1237 522  A 3 3 0 0 1 1234 519 L 1234 502  Z " fill-rule="nonzero" fill="#ffffff" stroke="none" />
    <path d="M 1233.5 502  A 3.5 3.5 0 0 1 1237 498.5 L 1284 498.5  A 3.5 3.5 0 0 1 1287.5 502 L 1287.5 519  A 3.5 3.5 0 0 1 1284 522.5 L 1237 522.5  A 3.5 3.5 0 0 1 1233.5 519 L 1233.5 502  Z " stroke-width="1" stroke="#000000" fill="none" stroke-opacity="0.149019607843137" />
  </g>
</svg>