<?xml version="1.0" encoding="utf-8"?>
<svg version="1.1" xmlns:xlink="http://www.w3.org/1999/xlink" width="1145px" height="151px" xmlns="http://www.w3.org/2000/svg">
  <g transform="matrix(1 0 0 1 -149 -609 )">
    <path d="M 149 609  L 1294 609  L 1294 760  L 149 760  L 149 609  " fill-rule="nonzero" fill="#cccccc" stroke="none" />
    <path d="M 160 620  L 1283 620  L 1283 749  L 160 749  L 160 620  " fill-rule="nonzero" fill="#ffffff" stroke="none" />
    <path d="M 755.725 654.3  C 749.383 654.3  744.4 649.317  744.4 642.975  C 744.4 636.633  749.383 631.65  755.725 631.65  C 762.067 631.65  767.05 636.633  767.05 642.975  C 767.05 649.317  762.067 654.3  755.725 654.3  " fill-rule="nonzero" fill="#cccccc" stroke="none" />
    <path d="M 164 745  L 164 678.45  L 442.75 648.2  L 833 735.425676855895  L 1056 666.35  L 1279 735.425676855895  L 1279 745  L 164 745  " fill-rule="nonzero" fill="#169bd5" stroke="none" />
  </g>
</svg>