<?xml version="1.0" encoding="utf-8"?>
<svg version="1.1" xmlns:xlink="http://www.w3.org/1999/xlink" width="370px" height="170px" xmlns="http://www.w3.org/2000/svg">
  <g transform="matrix(1 0 0 1 -149 -838 )">
    <path d="M 149 838  L 519 838  L 519 1008  L 149 1008  L 149 838  " fill-rule="nonzero" fill="#cccccc" stroke="none" />
    <path d="M 161 850  L 507 850  L 507 996  L 161 996  L 161 850  " fill-rule="nonzero" fill="#ffffff" stroke="none" />
    <path d="M 354.15 889  C 347.01 889  341.4 883.39  341.4 876.25  C 341.4 869.11  347.01 863.5  354.15 863.5  C 361.29 863.5  366.9 869.11  366.9 876.25  C 366.9 883.39  361.29 889  354.15 889  " fill-rule="nonzero" fill="#cccccc" stroke="none" />
    <path d="M 166 992  L 166 916.65  L 250.25 882.4  L 368.2 954.232432432432  L 435.6 902.95  L 503 954.232432432432  L 503 992  L 166 992  " fill-rule="nonzero" fill="#169bd5" stroke="none" />
  </g>
</svg>