<?xml version="1.0" encoding="utf-8"?>
<svg version="1.1" xmlns:xlink="http://www.w3.org/1999/xlink" width="25px" height="10px" preserveAspectRatio="xMinYMid meet" viewBox="1450 209  25 8" xmlns="http://www.w3.org/2000/svg">
  <path d="M 1451 213.5  L 1465 213.5  A 5 5 0 0 0 1470.5 208.5 L 1470.5 205  A 5 5 0 0 1 1475.5 200.5 L 1481 200.5  A 5 5 0 0 1 1486.5 205.5 L 1486.5 219  " stroke-width="1" stroke="#ff3399" fill="none" />
  <path d="M 1453 210.5  A 3 3 0 0 0 1450 213.5 A 3 3 0 0 0 1453 216.5 A 3 3 0 0 0 1456 213.5 A 3 3 0 0 0 1453 210.5 Z " fill-rule="nonzero" fill="#ff3399" stroke="none" />
</svg>