<?xml version="1.0" encoding="utf-8"?>
<svg version="1.1" xmlns:xlink="http://www.w3.org/1999/xlink" width="11px" height="13px" xmlns="http://www.w3.org/2000/svg">
  <g transform="matrix(1 0 0 1 -25 -14 )">
    <path d="M 0 0.5078125  C 0.0406250000000057 0.22735540047654  0.267980400476546 0  0.548437500000006 0  L 9.68906249999999 0  C 9.96951959952345 0  10.196875 0.22735540047654  10 0.5078125  L 10 12.46984375  C 10.196875 12.46984375  10.196875 12.46984375  10.196875 12.46984375  C 10.196875 12.7503008495235  9.96951959952345 12.97765625  9.68906249999999 12.97765625  C 9.62800993391963 12.97765625  9.56745770185123 12.9666467532603  9.5103125 12.94515625  L 5.3503125 11.383125  C 5.23642239361781 11.3404757840002  5.11100833394606 11.3401153987713  4.996875 11.382109375  L 0.723124999999996 12.952265625  C 0.667165484425595 12.9727669341751  0.608033967346302 12.9832576993792  0.548437230344888 12.9832576993792  C 0.267980130821428 12.9832576993792  0.0406247303448879 12.7559022989027  0.0406247303448879 12.4754451993792  C 0.0406247303448879 12.4752707578847  0.0406248202299366 12.4750963164019  0 12.474921875  L 0 0.5078125  Z " fill-rule="nonzero" fill="#606266" stroke="none" transform="matrix(1 0 0 1 25 14 )" />
  </g>
</svg>