<?xml version="1.0" encoding="utf-8"?>
<svg version="1.1" xmlns:xlink="http://www.w3.org/1999/xlink" width="16px" height="16px" xmlns="http://www.w3.org/2000/svg">
  <g transform="matrix(1 0 0 1 -1199 -555 )">
    <path d="M 15.429269130244 0  C 15.5483144781273 0  15.6554552912222 0.0327380952380736  15.750691569529 0.0982142857143344  C 15.9471163935364 0.241071428571445  16.0274720033577 0.431547619047592  15.9917583989927 0.66964285714289  L 13.7060877196329 14.3839285714286  C 13.676326382662 14.5565476190476  13.5810901043554 14.6904761904761  13.420378884713 14.7857142857143  C 13.3370471411946 14.8333333333334  13.2447869965851 14.8571428571429  13.1435984508842 14.8571428571429  C 13.0781235095484 14.8571428571429  13.0066963008184 14.8422619047619  12.9293168246942 14.8125  L 8.88475113035845 13.1607142857143  L 6.72407806627626 15.7946428571429  C 6.61693725318119 15.9315476190476  6.47110670202421 16  6.28658641280509 16  C 6.20920693668092 16  6.14373199534499 15.9880952380952  6.09016158879751 15.9642857142857  C 5.97706850830844 15.922619047619  5.88629643054738 15.8526785714286  5.81784535551444 15.7544642857143  C 5.74939428048151 15.65625  5.71516874296504 15.547619047619  5.71516874296504 15.4285714285714  L 5.71516874296504 12.3125  L 13.4293072858042 2.85714285714289  L 3.88484651925907 11.1160714285714  L 0.358128088215756 9.66964285714289  C 0.137894194631611 9.58630952380952  0.0188488467483114 9.42261904761904  0.000992044565742508 9.17857142857144  C -0.0109124902225988 8.94047619047615  0.084323788084132 8.76488095238096  0.286700879485707 8.65178571428567  L 15.143560295324 0.0803571428571104  C 15.2328443062365 0.0267857142856656  15.3280805845431 0  15.429269130244 0  Z " fill-rule="nonzero" fill="#666666" stroke="none" transform="matrix(1 0 0 1 1199 555 )" />
  </g>
</svg>