<?xml version="1.0" encoding="utf-8"?>
<svg version="1.1" xmlns:xlink="http://www.w3.org/1999/xlink" width="16px" height="16px" xmlns="http://www.w3.org/2000/svg">
  <g transform="matrix(1 0 0 1 -1199 -602 )">
    <path d="M 2.37 13.140625  C 2.49666666666667 13.0121527777778  2.55999999999995 12.8541666666667  2.55999999999995 12.6666666666667  C 2.55999999999995 12.4861111111111  2.49666666666667 12.3298611111111  2.37 12.1979166666667  C 2.24333333333334 12.0659722222222  2.09333333333336 12  1.91999999999996 12  C 1.74000000000001 12  1.58833333333337 12.0659722222222  1.46499999999992 12.1979166666667  C 1.3416666666667 12.3298611111111  1.28000000000009 12.4861111111111  1.28000000000009 12.6666666666667  C 1.28000000000009 12.8541666666667  1.3416666666667 13.0121527777778  1.46499999999992 13.140625  C 1.58833333333337 13.2690972222222  1.74000000000001 13.3333333333333  1.91999999999996 13.3333333333333  C 2.09333333333336 13.3333333333333  2.24333333333334 13.2690972222222  2.37 13.140625  Z M 3.97000000000003 6.86458333333331  C 4.09666666666669 6.99652777777777  4.16000000000008 7.15277777777777  4.16000000000008 7.33333333333331  L 4.16000000000008 14  C 4.16000000000008 14.1805555555555  4.09666666666669 14.3368055555555  3.97000000000003 14.46875  C 3.84333333333325 14.6006944444445  3.69333333333327 14.6666666666667  3.51999999999998 14.6666666666667  L 0.639999999999986 14.6666666666667  C 0.466666666666697 14.6666666666667  0.316666666666606 14.6006944444445  0.189999999999941 14.46875  C 0.0633333333332757 14.3368055555555  0 14.1805555555555  0 14  L 0 7.33333333333331  C 0 7.15277777777777  0.0633333333332757 6.99652777777777  0.189999999999941 6.86458333333331  C 0.316666666666606 6.73263888888891  0.466666666666697 6.66666666666669  0.639999999999986 6.66666666666669  L 3.51999999999998 6.66666666666669  C 3.69333333333327 6.66666666666669  3.84333333333325 6.73263888888891  3.97000000000003 6.86458333333331  Z M 15.43 5.92708333333331  C 15.8100000000001 6.32291666666669  16 6.79166666666669  16 7.33333333333331  C 16 7.93055555555554  15.8166666666667 8.44791666666674  15.45 8.88541666666674  C 15.55 9.19097222222217  15.6 9.45486111111109  15.6 9.67708333333326  C 15.62 10.2048611111111  15.4766666666667 10.6805555555555  15.17 11.1041666666667  C 15.2833333333333 11.4930555555555  15.2833333333333 11.8993055555555  15.17 12.3229166666667  C 15.0700000000001 12.71875  14.89 13.0451388888889  14.63 13.3020833333333  C 14.6899999999999 14.0798611111111  14.5266666666668 14.7083333333333  14.14 15.1875  C 13.7133333333334 15.7152777777778  13.0566666666667 15.9861111111111  12.17 16  L 11.8099999999999 16  L 11.05 16  L 10.88 16  C 10.4400000000001 16  9.96000000000004 15.9461805555555  9.43999999999994 15.8385416666667  C 8.91999999999996 15.7309027777778  8.51499999999999 15.6302083333333  8.22499999999991 15.5364583333333  C 7.93500000000006 15.4427083333333  7.5333333333333 15.3055555555555  7.01999999999998 15.125  C 6.20000000000005 14.8263888888889  5.67333333333329 14.6736111111111  5.43999999999994 14.6666666666667  C 5.26666666666665 14.6597222222222  5.11666666666667 14.5920138888889  4.99000000000001 14.4635416666667  C 4.86333333333334 14.3350694444445  4.79999999999995 14.1805555555555  4.79999999999995 14  L 4.79999999999995 7.32291666666669  C 4.79999999999995 7.14930555555554  4.86000000000001 6.99826388888891  4.98000000000002 6.86979166666669  C 5.10000000000002 6.74131944444446  5.24333333333334 6.67013888888891  5.40999999999997 6.65625  C 5.57000000000005 6.64236111111109  5.82333333333327 6.4375  6.17000000000007 6.04166666666669  C 6.51666666666665 5.64583333333331  6.85333333333335 5.22569444444446  7.17999999999995 4.78125  C 7.63333333333333 4.17708333333331  7.97000000000003 3.76041666666669  8.19000000000005 3.53125  C 8.31000000000006 3.40625  8.41333333333341 3.23958333333331  8.5 3.03125  C 8.5866666666667 2.82291666666669  8.64499999999998 2.65451388888891  8.67499999999995 2.52604166666669  C 8.70499999999993 2.39756944444446  8.75 2.1875  8.80999999999995 1.89583333333331  C 8.85666666666668 1.625  8.89833333333331 1.41319444444446  8.93499999999995 1.26041666666669  C 8.97166666666669 1.10763888888891  9.03666666666675 0.927083333333314  9.13 0.71875  C 9.22333333333336 0.510416666666686  9.3366666666667 0.336805555555543  9.46999999999991 0.197916666666686  C 9.59666666666658 0.0659722222222285  9.74666666666667 0  9.91999999999996 0  C 10.2266666666666 0  10.5016666666667 0.0364583333333144  10.745 0.109375  C 10.9883333333333 0.182291666666686  11.1883333333334 0.272569444444457  11.3449999999999 0.380208333333314  C 11.5016666666667 0.487847222222229  11.635 0.628472222222229  11.745 0.802083333333314  C 11.8549999999999 0.975694444444457  11.9349999999999 1.13194444444446  11.985 1.27083333333331  C 12.035 1.40972222222223  12.075 1.58333333333331  12.105 1.79166666666669  C 12.135 2  12.1516666666666 2.15625  12.155 2.26041666666669  C 12.1583333333333 2.36458333333331  12.16 2.5  12.16 2.66666666666669  C 12.16 2.93055555555554  12.1283333333333 3.19444444444446  12.0649999999999 3.45833333333331  C 12.0016666666667 3.72222222222223  11.9383333333334 3.93055555555554  11.875 4.08333333333331  C 11.8116666666667 4.23611111111109  11.7199999999999 4.43055555555554  11.5999999999999 4.66666666666669  C 11.58 4.70833333333331  11.5466666666666 4.77083333333331  11.5 4.85416666666669  C 11.4533333333334 4.9375  11.4166666666666 5.01388888888891  11.39 5.08333333333331  C 11.3633333333333 5.15277777777777  11.3366666666666 5.23611111111109  11.3100000000001 5.33333333333331  L 14.08 5.33333333333331  C 14.5999999999999 5.33333333333331  15.05 5.53125  15.43 5.92708333333331  Z " fill-rule="nonzero" fill="#666666" stroke="none" transform="matrix(1 0 0 1 1199 602 )" />
  </g>
</svg>