<?xml version="1.0" encoding="utf-8"?>
<svg version="1.1" xmlns:xlink="http://www.w3.org/1999/xlink" width="30px" height="30px" xmlns="http://www.w3.org/2000/svg">
  <g transform="matrix(1 0 0 1 -110 -62 )">
    <path d="M 125 62  C 133.4 62  140 68.6  140 77  C 140 85.4  133.4 92  125 92  C 116.6 92  110 85.4  110 77  C 110 68.6  116.6 62  125 62  Z " fill-rule="nonzero" fill="#f2f3f5" stroke="none" />
    <path d="M 125 62.5  C 133.12 62.5  139.5 68.88  139.5 77  C 139.5 85.12  133.12 91.5  125 91.5  C 116.88 91.5  110.5 85.12  110.5 77  C 110.5 68.88  116.88 62.5  125 62.5  Z " stroke-width="1" stroke="#ffffff" fill="none" />
  </g>
</svg>