<?xml version="1.0" encoding="utf-8"?>
<svg version="1.1" xmlns:xlink="http://www.w3.org/1999/xlink" width="26px" height="15px" xmlns="http://www.w3.org/2000/svg">
  <g transform="matrix(1 0 0 1 -280 -40 )">
    <path d="M 14.7828571428572 3.12217194570121  C 14.1885714285713 3.2239819004526  13.5875324675326 3.28506787330298  12.9662337662335 3.28506787330298  C 10.0758441558442 3.28506787330298  7.46909090909116 2.05656108597282  5.63896103896127 0.0950226244342502  C 5.51064935064937 -0.0407239819005554  5.28779220779211 -0.0203619909502777  5.19324675324674 0.142533936651716  L 0.0742857142856792 9.1493212669684  C -0.13506493506452 9.52262443438894  0.128311688311896 9.98416289592751  0.560519480519361 9.98416289592751  L 5.96987012987006 9.98416289592751  C 6.1657142857141 9.98416289592751  6.34805194805222 10.0859728506789  6.44935064935089 10.2556561085973  L 9.0831168831171 14.6606334841626  C 9.31272727272722 15.047511312217  9.88000000000011 15.0135746606334  10.0690909090908 14.606334841629  L 12.972987012987 8.18552036199071  L 15.086753246753 3.50904977375558  C 15.1812987012991 3.30542986425348  15.0057142857145 3.08144796380088  14.7828571428572 3.12217194570121  Z M 20.7459740259737 0.128959276018122  C 20.6446753246755 -0.0203619909502777  20.4218181818185 -0.0475113122170114  20.2935064935066 0.0882352941175668  C 19.3075324675322 1.14027149321282  18.1054545454547 1.9886877828053  16.7480519480516 2.53846153846143  C 16.6805194805195 2.56561085972862  16.6264935064933 2.61312217194563  16.5994805194803 2.68099547511315  L 13.580779220779 9.31221719457017  C 13.5470129870132 9.38687782805437  13.5470129870132 9.46832579185525  13.580779220779 9.54298642533945  L 15.8701298701296 14.5995475113123  C 16.0524675324677 15.0067873303167  16.6264935064933 15.0407239819006  16.8561038961041 14.6538461538462  L 19.4898701298703 10.2488687782807  C 19.5911688311689 10.079185520362  19.7735064935064 9.97737556561106  19.9693506493504 9.97737556561106  L 25.3787012987009 9.97737556561106  C 25.8041558441557 9.97737556561106  26.0742857142857 9.51583710407249  25.8649350649355 9.14253393665172  L 20.7459740259737 0.128959276018122  Z " fill-rule="nonzero" fill="#606266" stroke="none" transform="matrix(1 0 0 1 280 40 )" />
  </g>
</svg>