<?xml version="1.0" encoding="utf-8"?>
<svg version="1.1" xmlns:xlink="http://www.w3.org/1999/xlink" width="16px" height="16px" xmlns="http://www.w3.org/2000/svg">
  <g transform="matrix(1 0 0 1 -1199 -500 )">
    <path d="M 13.1875 6.78125  C 13.3125 6.65625  13.375 6.5  13.375 6.3125  C 13.375 6.1180555555556  13.3125 5.95833333333331  13.1875 5.83333333333331  L 12.2395833333334 4.89583333333331  C 12.1076388888888 4.76388888888886  11.9513888888888 4.69791666666669  11.7708333333334 4.69791666666669  C 11.5902777777777 4.69791666666669  11.4340277777777 4.76388888888886  11.3020833333334 4.89583333333331  L 7.05208333333337 9.13541666666669  L 4.69791666666663 6.78125  C 4.56597222222229 6.6493055555556  4.40972222222229 6.58333333333331  4.22916666666663 6.58333333333331  C 4.0486111111112 6.58333333333331  3.8923611111112 6.6493055555556  3.76041666666663 6.78125  L 2.8125 7.71875  C 2.6875 7.84375  2.625 8.00347222222223  2.625 8.19791666666669  C 2.625 8.38541666666669  2.6875 8.54166666666669  2.8125 8.66666666666669  L 6.58333333333337 12.4375  C 6.71527777777771 12.5694444444444  6.87152777777771 12.6354166666667  7.05208333333337 12.6354166666667  C 7.23958333333337 12.6354166666667  7.39930555555554 12.5694444444444  7.53125 12.4375  L 13.1875 6.78125  Z M 14.9270833333334 3.984375  C 15.6423611111112 5.2100694444444  16 6.54861111111114  16 8  C 16 9.45138888888886  15.6423611111112 10.7899305555556  14.9270833333334 12.015625  C 14.2118055555555 13.2413194444444  13.2413194444445 14.2118055555556  12.015625 14.9270833333333  C 10.7899305555555 15.6423611111111  9.4513888888888 16  8 16  C 6.5486111111112 16  5.21006944444446 15.6423611111111  3.984375 14.9270833333333  C 2.75868055555554 14.2118055555556  1.78819444444446 13.2413194444444  1.07291666666663 12.015625  C 0.3576388888888 10.7899305555556  0 9.45138888888886  0 8  C 0 6.54861111111114  0.3576388888888 5.2100694444444  1.07291666666663 3.984375  C 1.78819444444446 2.7586805555556  2.75868055555554 1.7881944444444  3.984375 1.07291666666669  C 5.21006944444446 0.357638888888857  6.5486111111112 0  8 0  C 9.4513888888888 0  10.7899305555555 0.357638888888857  12.015625 1.07291666666669  C 13.2413194444445 1.7881944444444  14.2118055555555 2.7586805555556  14.9270833333334 3.984375  Z " fill-rule="nonzero" fill="#666666" stroke="none" transform="matrix(1 0 0 1 1199 500 )" />
  </g>
</svg>