<?xml version="1.0" encoding="utf-8"?>
<svg version="1.1" xmlns:xlink="http://www.w3.org/1999/xlink" width="48px" height="21px" xmlns="http://www.w3.org/2000/svg">
  <defs>
    <mask fill="white" id="clip994">
      <path d="M 9.9622641509434 21  C 4.38339622641512 21  0 16.38  0 10.5  C 0 4.61999999999998  4.38339622641512 0  9.9622641509434 0  L 28.0754716981132 0  L 38.0377358490566 0  C 43.6166037735849 0  48 4.61999999999998  48 10.5  C 48 16.38  43.6166037735849 21  38.0377358490566 21  L 9.9622641509434 21  Z " fill-rule="evenodd" />
    </mask>
  </defs>
  <g transform="matrix(1 0 0 1 -620 -126 )">
    <path d="M 9.9622641509434 21  C 4.38339622641512 21  0 16.38  0 10.5  C 0 4.61999999999998  4.38339622641512 0  9.9622641509434 0  L 28.0754716981132 0  L 38.0377358490566 0  C 43.6166037735849 0  48 4.61999999999998  48 10.5  C 48 16.38  43.6166037735849 21  38.0377358490566 21  L 9.9622641509434 21  Z " fill-rule="nonzero" fill="#7f7f7f" stroke="none" transform="matrix(1 0 0 1 620 126 )" />
    <path d="M 9.9622641509434 21  C 4.38339622641512 21  0 16.38  0 10.5  C 0 4.61999999999998  4.38339622641512 0  9.9622641509434 0  L 28.0754716981132 0  L 38.0377358490566 0  C 43.6166037735849 0  48 4.61999999999998  48 10.5  C 48 16.38  43.6166037735849 21  38.0377358490566 21  L 9.9622641509434 21  Z " stroke-width="2" stroke="#cccccc" fill="none" transform="matrix(1 0 0 1 620 126 )" mask="url(#clip994)" />
  </g>
</svg>