<?xml version="1.0" encoding="utf-8"?>
<svg version="1.1" xmlns:xlink="http://www.w3.org/1999/xlink" width="16px" height="15px" xmlns="http://www.w3.org/2000/svg">
  <g transform="matrix(1 0 0 1 -117 -69 )">
    <path d="M 0.222222222222229 14.2222222222222  L 0.222222222222229 3.33333333333331  C 0.222222222222229 2.904  0.576111111111118 2.55555555555554  0.99377777777778 2.55555555555554  L 15.0062222222222 2.55555555555554  C 15.4324444444445 2.55555555555554  15.7777777777778 2.90166666666664  15.7777777777778 3.33333333333331  L 15.7777777777778 14.2222222222222  C 15.7777777777778 14.6515555555555  15.4238888888889 15  15.0062222222222 15  L 0.99377777777778 15  C 0.567403003096047 14.9991498742451  0.222208128309234 14.653266047797  0.222208128309234 14.2268904256061  C 0.222208128309234 14.2253343471737  0.222212826301643 14.2237782722872  0.222222222222229 14.2222222222222  Z M 14.2222222222222 4.11111111111109  L 1.77777777777777 4.11111111111109  L 1.77777777777777 13.4444444444445  L 14.2222222222222 13.4444444444445  L 14.2222222222222 4.11111111111109  Z M 9.55555555555554 11.1111111111111  C 10.8442199718274 11.1111111111111  11.8888888888889 10.0664421940496  11.8888888888889 8.77777777777777  C 11.8888888888889 7.48911336150593  10.8442199718274 6.44444444444446  9.55555555555554 6.44444444444446  C 8.2668911392837 6.44444444444446  7.22222222222223 7.48911336150593  7.22222222222223 8.77777777777777  C 7.22222222222223 10.0664421940496  8.2668911392837 11.1111111111111  9.55555555555554 11.1111111111111  Z M 9.55555555555554 12.6666666666667  C 7.40778152843581 12.6666666666667  5.66666666666666 10.9255518048975  5.66666666666666 8.77777777777777  C 5.66666666666666 6.63000375065803  7.40778152843581 4.88888888888891  9.55555555555554 4.88888888888891  C 11.7033295826753 4.88888888888891  13.4444444444445 6.63000375065803  13.4444444444445 8.77777777777777  C 13.4444444444445 10.9255518048975  11.7033295826753 12.6666666666667  9.55555555555554 12.6666666666667  Z M 1.77777777777777 1.77777777777777  L 1.77777777777777 0.222222222222229  L 6.44444444444446 0.222222222222229  L 6.44444444444446 1.77777777777777  L 1.77777777777777 1.77777777777777  Z " fill-rule="nonzero" fill="#165dff" stroke="none" transform="matrix(1 0 0 1 117 69 )" />
  </g>
</svg>