<?xml version="1.0" encoding="utf-8"?>
<svg version="1.1" xmlns:xlink="http://www.w3.org/1999/xlink" width="18px" height="18px" xmlns="http://www.w3.org/2000/svg">
  <g transform="matrix(1 0 0 1 -285 -25 )">
    <path d="M 0.0274809160307541 9.0889733840304  C 0.0687022900765442 13.8730038022813  4.12900763358789 17.9178707224332  8.92442748091594 17.9589353612168  C 13.9396946564887 18  18.013740458015 13.9414448669204  17.9725190839692 8.93840304182504  C 17.9312977099235 4.15437262357409  13.8709923664121 0.109505703422201  9.07557251908406 0.0684410646390461  C 4.06030534351135 0.0273764258554365  -0.013740458015036 4.0859315589355  0.0274809160307541 9.0889733840304  Z M 3.96412213740473 8.68517110266157  C 4.12213740458037 6.18022813688231  6.1557251908398 4.15437262357409  8.67022900763368 3.99011406844102  C 11.7137404580153 3.79847908745251  14.2282442748092 6.303422053232  14.0358778625953 9.34220532319387  C 13.8778625954196 11.8471482889731  11.8442748091602 13.8730038022813  9.32977099236632 14.0372623574144  C 6.28625954198469 14.2288973384029  3.77175572519081 11.7239543726234  3.96412213740473 8.68517110266157  Z " fill-rule="nonzero" fill="#606266" stroke="none" transform="matrix(1 0 0 1 285 25 )" />
  </g>
</svg>