<?xml version="1.0" encoding="utf-8"?>
<svg version="1.1" xmlns:xlink="http://www.w3.org/1999/xlink" width="10px" height="16px" preserveAspectRatio="xMidYMin meet" viewBox="1479 185  8 16" xmlns="http://www.w3.org/2000/svg">
  <path d="M 1434 195.5  L 1457.5 195.5  A 2.5 2.5 0 0 0 1460.5 193 A 2.5 2.5 0 0 1 1463 190.5 L 1478 190.5  A 5 5 0 0 1 1483.5 195.5 L 1483.5 201  " stroke-width="1" stroke="#ff3399" fill="none" />
  <path d="M 1436 192.5  A 3 3 0 0 0 1433 195.5 A 3 3 0 0 0 1436 198.5 A 3 3 0 0 0 1439 195.5 A 3 3 0 0 0 1436 192.5 Z " fill-rule="nonzero" fill="#ff3399" stroke="none" />
</svg>