<?xml version="1.0" encoding="utf-8"?>
<svg version="1.1" xmlns:xlink="http://www.w3.org/1999/xlink" width="332px" height="264px" xmlns="http://www.w3.org/2000/svg">
  <g>
    <path d="M 0 0  L 332 0  L 332 264  L 0 264  L 0 0  " fill-rule="nonzero" fill="#cccccc" stroke="none" />
    <path d="M 18 18  L 314 18  L 314 246  L 18 246  L 18 18  " fill-rule="nonzero" fill="#ffffff" stroke="none" />
    <path d="M 192.44 79.2  C 181.352 79.2  172.64 70.488  172.64 59.4  C 172.64 48.312  181.352 39.6  192.44 39.6  C 203.528 39.6  212.24 48.312  212.24 59.4  C 212.24 70.488  203.528 79.2  192.44 79.2  " fill-rule="nonzero" fill="#cccccc" stroke="none" />
    <path d="M 25 240  L 25 121.75  L 95.75 68  L 194.8 137.421686746988  L 251.4 100.25  L 308 137.421686746988  L 308 240  L 25 240  " fill-rule="nonzero" fill="#169bd5" stroke="none" />
  </g>
</svg>