<?xml version="1.0" encoding="utf-8"?>
<svg version="1.1" xmlns:xlink="http://www.w3.org/1999/xlink" width="162px" height="103px" xmlns="http://www.w3.org/2000/svg">
  <g>
    <path d="M 0 0  L 162 0  L 162 103  L 0 103  L 0 0  " fill-rule="nonzero" fill="#cccccc" stroke="none" />
    <path d="M 7 7  L 155 7  L 155 96  L 7 96  L 7 7  " fill-rule="nonzero" fill="#ffffff" stroke="none" />
    <path d="M 91.965 30.9  C 87.639 30.9  84.24 27.501  84.24 23.175  C 84.24 18.849  87.639 15.45  91.965 15.45  C 96.291 15.45  99.69 18.849  99.69 23.175  C 99.69 27.501  96.291 30.9  91.965 30.9  " fill-rule="nonzero" fill="#cccccc" stroke="none" />
    <path d="M 10 94  L 10 47.8  L 45.75 26.8  L 95.8 61.9555555555556  L 124.4 39.4  L 153 61.9555555555556  L 153 94  L 10 94  " fill-rule="nonzero" fill="#169bd5" stroke="none" />
  </g>
</svg>