<?xml version="1.0" encoding="utf-8"?>
<svg version="1.1" xmlns:xlink="http://www.w3.org/1999/xlink" width="14px" height="24px" xmlns="http://www.w3.org/2000/svg">
  <g transform="matrix(1 0 0 1 -996 -2520 )">
    <path d="M 0.578571428571422 21.0785714285714  L 9.64999999999998 12  L 0.571428571428555 2.92857142857139  C -0.100000000000023 2.25714285714292  -0.100000000000023 1.17142857142863  0.571428571428555 0.507142857142924  C 1.24285714285713 -0.157142857142929  2.32857142857142 -0.157142857142929  3 0.507142857142924  L 13.2857142857143 10.7857142857143  C 13.9357142857143 11.4357142857143  13.95 12.4785714285714  13.3357142857143 13.15  L 3.00714285714287 23.5  C 2.67142857142858 23.8357142857143  2.2285714285714 24  1.7928571428572 24  C 1.35714285714289 24  0.914285714285711 23.8357142857143  0.578571428571422 23.5  C -0.0928571428571559 22.8285714285714  -0.0928571428571559 21.7428571428571  0.578571428571422 21.0785714285714  Z " fill-rule="nonzero" fill="#606266" stroke="none" transform="matrix(1 0 0 1 996 2520 )" />
  </g>
</svg>