<?xml version="1.0" encoding="utf-8"?>
<svg version="1.1" xmlns:xlink="http://www.w3.org/1999/xlink" width="37px" height="36px" xmlns="http://www.w3.org/2000/svg">
  <g transform="matrix(1 0 0 1 -662 -776 )">
    <path d="M 18.5007688805556 36  C 13.559688775 36  8.91455805138889 34.1284892  5.42055899444445 30.7308673  C 1.92655993750001 27.3332453  0 22.8100687  0 17.9993298  C 0 13.1885909  1.92535469333332 8.66801377  5.41935375027776 5.26913274  C 8.91335280722221 1.87025172  13.5576522333333 0  18.4995636055556 0  C 23.4414749777778 0  28.0857743833333 1.87151082  31.5793578583333 5.26913274  C 35.0729413333333 8.66675467  37 13.1898906  37 17.9977458  C 37 22.805601  35.0749777722223 27.3304022  31.5794410055556 30.7292426  C 28.0839042388889 34.128083  23.4419736555556 36  18.5008104027778 36  Z M 30.1313894777778 6.68956941  C 27.0274500222222 3.66986322  22.8950849805556 2  18.5012710527778 2  C 14.1062073472222 2  9.97556632055556 3.66476279  6.86990285000003 6.68826269  C 3.76423938972222 9.7117626  2.05555555555556 13.7275697  2.05555555555556 18.0008009  C 2.05555555555556 22.2740321  3.76462729361111 26.2919468  6.86860983361113 29.3117373  C 9.97259237361109 32.3315278  14.1036644194445 34  18.5000211722222 34  C 22.896377925 34  27.025725925 32.3356587  30.1313894777778 29.3117373  C 33.2370529277778 26.2878159  34.9457367722222 22.2723881  34.9444444444444 17.999157  C 34.9431506777778 13.7259679  33.2353288305556 9.70927561000001  30.1313894777778 6.68956941  Z M 8.22222222222222 18  C 8.22222222222222 17.4477153  8.68237400694443 17  9.25 17  L 27.75 17  C 28.3176259416666 17  28.7777777777778 17.4477153  28.7777777777778 18  C 28.7777777777778 18.5522847  28.3176259416666 19  27.75 19  L 9.25 19  C 8.68237400694443 19  8.22222222222222 18.5522847  8.22222222222222 18  Z M 18 9  C 17.4722222222222 8.44771525  17.9323740583334 8  18.5 8  C 19.0676259416666 8  19.5277777777778 8.44771525  19 9  L 19 27  C 19.5277777777778 27.5522847  19.0676259416666 28  18.5 28  C 17.9323740583334 28  17.4722222222222 27.5522847  18 27  L 18 9  Z " fill-rule="nonzero" fill="#409eff" stroke="none" transform="matrix(1 0 0 1 662 776 )" />
  </g>
</svg>