<?xml version="1.0" encoding="utf-8"?>
<svg version="1.1" xmlns:xlink="http://www.w3.org/1999/xlink" width="1140px" height="160px" xmlns="http://www.w3.org/2000/svg">
  <g transform="matrix(1 0 0 1 -220 -714 )">
    <path d="M 221 718  A 3 3 0 0 1 224 715 L 1356 715  A 3 3 0 0 1 1359 718 L 1359 870  A 3 3 0 0 1 1356 873 L 224 873  A 3 3 0 0 1 221 870 L 221 718  Z " fill-rule="nonzero" fill="#edf5ff" stroke="none" />
    <path d="M 220.5 718  A 3.5 3.5 0 0 1 224 714.5 L 1356 714.5  A 3.5 3.5 0 0 1 1359.5 718 L 1359.5 870  A 3.5 3.5 0 0 1 1356 873.5 L 224 873.5  A 3.5 3.5 0 0 1 220.5 870 L 220.5 718  Z " stroke-width="1" stroke-dasharray="9,4" stroke="#409eff" fill="none" stroke-dashoffset="0.5" />
  </g>
</svg>