<?xml version="1.0" encoding="utf-8"?>
<svg version="1.1" xmlns:xlink="http://www.w3.org/1999/xlink" width="50px" height="45px" xmlns="http://www.w3.org/2000/svg">
  <g transform="matrix(1 0 0 1 0 -136 )">
    <path d="M 6.78013392857143 17.5  L 17.8571428571429 28.6516853932584  L 17.8571428571429 30.6179775280899  C 17.8571428571429 31.4044943820225  17.4944196428571 31.9569288389513  16.7689732142857 32.2752808988764  C 16.5271577380952 32.3689138576779  16.2946428571429 32.4157303370786  16.0714285714286 32.4157303370786  C 15.5691964285714 32.4157303370786  15.1506696428571 32.2378277153558  14.8158482142857 31.8820224719101  L 0.530133928571429 17.5  C 0.17671130952381 17.1441947565543  0 16.7228464419476  0 16.2359550561798  C 0 15.749063670412  0.17671130952381 15.3277153558052  0.530133928571429 14.9719101123596  L 14.8158482142857 0.58988764044944  C 15.3552827380952 0.00936329588014817  16.0063244047619 -0.121722846441956  16.7689732142857 0.196629213483147  C 17.4944196428571 0.514981273408239  17.8571428571429 1.06741573033708  17.8571428571429 1.85393258426966  L 17.8571428571429 3.79213483146067  L 6.78013392857143 14.9719101123596  C 6.42671130952381 15.3277153558052  6.25 15.749063670412  6.25 16.2359550561798  C 6.25 16.7228464419476  6.42671130952381 17.1441947565543  6.78013392857143 17.5  Z M 45.2845982142857 15.4213483146067  C 48.4281994047619 18.6610486891386  50 23.4269662921348  50 29.7191011235955  C 50 30.8052434456929  49.8418898809524 32.0552434456929  49.5256696428571 33.4691011235955  C 49.2094494047619 34.8829588014981  48.8513764880952 36.1750936329588  48.4514508928571 37.3455056179775  C 48.0515252976191 38.5159176029963  47.6050967261905 39.686329588015  47.1121651785714 40.8567415730337  C 46.6192336309524 42.0271535580524  46.2425595238095 42.874531835206  45.9821428571429 43.3988764044944  L 45.4241071428571 44.5224719101124  C 45.2752976190476 44.8408239700374  45.014880952381 45  44.6428571428571 45  C 44.53125 45  44.4475446428571 44.9906367041199  44.3917410714286 44.9719101123596  C 43.9267113095238 44.8220973782772  43.7127976190476 44.5037453183521  43.75 44.0168539325843  C 44.5498511904762 36.5262172284644  43.5639880952381 31.2359550561798  40.7924107142857 28.1460674157303  C 39.6019345238095 26.8164794007491  38.0161830357143 25.7818352059925  36.03515625 25.0421348314607  C 34.0541294642857 24.3024344569288  31.5662202380952 23.810861423221  28.5714285714286 23.5674157303371  L 28.5714285714286 30.6179775280899  C 28.5714285714286 31.4044943820225  28.2087053571429 31.9569288389513  27.4832589285714 32.2752808988764  C 27.241443452381 32.3689138576779  27.0089285714286 32.4157303370786  26.7857142857143 32.4157303370786  C 26.2834821428571 32.4157303370786  25.8649553571429 32.2378277153558  25.5301339285714 31.8820224719101  L 11.2444196428571 17.5  C 10.8909970238095 17.1441947565543  10.7142857142857 16.7228464419476  10.7142857142857 16.2359550561798  C 10.7142857142857 15.749063670412  10.8909970238095 15.3277153558052  11.2444196428571 14.9719101123596  L 25.5301339285714 0.58988764044944  C 26.069568452381 0.00936329588014817  26.7206101190476 -0.121722846441956  27.4832589285714 0.196629213483147  C 28.2087053571429 0.514981273408239  28.5714285714286 1.06741573033708  28.5714285714286 1.85393258426966  L 28.5714285714286 9.21348314606741  C 36.2165178571429 9.7378277153558  41.7875744047619 11.8071161048689  45.2845982142857 15.4213483146067  Z " fill-rule="nonzero" fill="#bec0c6" stroke="none" transform="matrix(1 0 0 1 0 136 )" />
  </g>
</svg>