<?xml version="1.0" encoding="utf-8"?>
<svg version="1.1" xmlns:xlink="http://www.w3.org/1999/xlink" width="414px" height="242px" xmlns="http://www.w3.org/2000/svg">
  <g transform="matrix(1 0 0 1 -512 -425 )">
    <path d="M 512 425  L 926 425  L 926 667  L 512 667  L 512 425  " fill-rule="nonzero" fill="#cccccc" stroke="none" />
    <path d="M 529 442  L 909 442  L 909 650  L 529 650  L 529 442  " fill-rule="nonzero" fill="#ffffff" stroke="none" />
    <path d="M 745.43 497.6  C 735.266 497.6  727.28 489.614  727.28 479.45  C 727.28 469.286  735.266 461.3  745.43 461.3  C 755.594 461.3  763.58 469.286  763.58 479.45  C 763.58 489.614  755.594 497.6  745.43 497.6  " fill-rule="nonzero" fill="#cccccc" stroke="none" />
    <path d="M 535 644  L 535 536.2  L 627 487.2  L 755.8 575.257971014493  L 829.4 516.6  L 903 575.257971014493  L 903 644  L 535 644  " fill-rule="nonzero" fill="#169bd5" stroke="none" />
  </g>
</svg>