<?xml version="1.0" encoding="utf-8"?>
<svg version="1.1" xmlns:xlink="http://www.w3.org/1999/xlink" width="12px" height="18px" xmlns="http://www.w3.org/2000/svg">
  <g transform="matrix(1 0 0 1 -8 -36 )">
    <path d="M 11.1555102439841 15.5786489392903  L 3.49326145552573 8.86890214097173  L 11.1615435107468 2.16443445107047  C 11.7286705864278 1.66819825984947  11.7286705864278 0.865773780428171  11.1615435107468 0.374816697624397  C 10.5944164350654 -0.121419493596605  9.67735988715555 -0.116140385179378  9.11023281147417 0.374816697624397  L 0.422328673379525 7.97145371004011  C -0.126698602014033 8.45185257600939  -0.138765135539123 9.22260240492715  0.380095806041709 9.71883859614822  L 9.10419954471182 17.3682666927364  C 9.38776308255212 17.6163847883469  9.76182562183148 17.7378042819435  10.1298548943481 17.7378042819435  C 10.4978841668647 17.7378042819435  10.8719467061437 17.6163847883469  11.1555102439841 17.3682666927364  C 11.7226373196655 16.8720305015154  11.7226373196655 16.0696060220941  11.1555102439841 15.5786489392903  Z " fill-rule="nonzero" fill="#606266" stroke="none" transform="matrix(1 0 0 1 8 36 )" />
  </g>
</svg>