<?xml version="1.0" encoding="utf-8"?>
<svg version="1.1" xmlns:xlink="http://www.w3.org/1999/xlink" width="260px" height="170px" xmlns="http://www.w3.org/2000/svg">
  <g transform="matrix(1 0 0 1 -355 0 )">
    <path d="M 355 0  L 615 0  L 615 170  L 355 170  L 355 0  " fill-rule="nonzero" fill="#cccccc" stroke="none" />
    <path d="M 367 12  L 603 12  L 603 158  L 367 158  L 367 12  " fill-rule="nonzero" fill="#ffffff" stroke="none" />
    <path d="M 502.95 51  C 495.81 51  490.2 45.39  490.2 38.25  C 490.2 31.11  495.81 25.5  502.95 25.5  C 510.09 25.5  515.7 31.11  515.7 38.25  C 515.7 45.39  510.09 51  502.95 51  " fill-rule="nonzero" fill="#cccccc" stroke="none" />
    <path d="M 372 154  L 372 78.65  L 428.75 44.4  L 508.2 100.253846153846  L 553.6 64.95  L 599 100.253846153846  L 599 154  L 372 154  " fill-rule="nonzero" fill="#169bd5" stroke="none" />
  </g>
</svg>