<?xml version="1.0" encoding="utf-8"?>
<svg version="1.1" xmlns:xlink="http://www.w3.org/1999/xlink" width="30px" height="30px" xmlns="http://www.w3.org/2000/svg">
  <g transform="matrix(1 0 0 1 -480 -113 )">
    <path d="M 495 114  C 502.84 114  509 120.16  509 128  C 509 135.84  502.84 142  495 142  C 487.16 142  481 135.84  481 128  C 481 120.16  487.16 114  495 114  Z " fill-rule="nonzero" fill="#ffffff" stroke="none" />
    <path d="M 495 114  C 502.84 114  509 120.16  509 128  C 509 135.84  502.84 142  495 142  C 487.16 142  481 135.84  481 128  C 481 120.16  487.16 114  495 114  Z " stroke-width="2" stroke="#000000" fill="none" />
  </g>
</svg>