<?xml version="1.0" encoding="utf-8"?>
<svg version="1.1" xmlns:xlink="http://www.w3.org/1999/xlink" width="7px" height="7px" xmlns="http://www.w3.org/2000/svg">
  <g transform="matrix(1 0 0 1 0 -70 )">
    <path d="M 3.5 71  C 4.9 71  6 72.1  6 73.5  C 6 74.9  4.9 76  3.5 76  C 2.1 76  1 74.9  1 73.5  C 1 72.1  2.1 71  3.5 71  Z " fill-rule="nonzero" fill="#ffffff" stroke="none" />
    <path d="M 3.5 71  C 4.9 71  6 72.1  6 73.5  C 6 74.9  4.9 76  3.5 76  C 2.1 76  1 74.9  1 73.5  C 1 72.1  2.1 71  3.5 71  Z " stroke-width="2" stroke="#1890ff" fill="none" />
  </g>
</svg>