<?xml version="1.0" encoding="utf-8"?>
<svg version="1.1" xmlns:xlink="http://www.w3.org/1999/xlink" width="14px" height="24px" xmlns="http://www.w3.org/2000/svg">
  <g transform="matrix(1 0 0 1 -13 -21 )">
    <path d="M 13.0147619513148 20.7715319190537  L 4.07547169811335 11.825202854629  L 13.021800762538 2.88591260142729  C 13.6834490174991 2.22426434646596  13.6834490174991 1.15436504057089  13.021800762538 0.499755596832529  C 12.3601525075763 -0.161892658128806  11.2902532016815 -0.154853846905837  10.6286049467199 0.499755596832529  L 0.492716785609446 10.6286049467201  C -0.147815035683038 11.2691367680125  -0.161892658128977 12.2968032065695  0.44344510704866 12.958451461531  L 10.6215661354971 23.1576889236485  C 10.9523902629775 23.4885130511292  11.3887965588034 23.650405709258  11.8181640434061 23.650405709258  C 12.2475315280088 23.650405709258  12.6839378238343 23.4885130511292  13.0147619513148 23.1576889236485  C 13.6764102062764 22.4960406686872  13.6764102062764 21.4261413627921  13.0147619513148 20.7715319190537  Z " fill-rule="nonzero" fill="#ffffff" stroke="none" transform="matrix(1 0 0 1 13 21 )" />
  </g>
</svg>