<?xml version="1.0" encoding="utf-8"?>
<svg version="1.1" xmlns:xlink="http://www.w3.org/1999/xlink" width="91px" height="89px" xmlns="http://www.w3.org/2000/svg">
  <defs>
    <filter x="20px" y="18px" width="91px" height="89px" filterUnits="userSpaceOnUse" id="filter24">
      <feOffset dx="1" dy="1" in="SourceAlpha" result="shadowOffsetInner" />
      <feGaussianBlur stdDeviation="2.5" in="shadowOffsetInner" result="shadowGaussian" />
      <feComposite in2="shadowGaussian" operator="atop" in="SourceAlpha" result="shadowComposite" />
      <feColorMatrix type="matrix" values="0 0 0 0 0  0 0 0 0 0  0 0 0 0 0  0 0 0 0.698039215686274 0  " in="shadowComposite" />
    </filter>
    <g id="widget25">
      <path d="M 64.5 22  C 87.18 22  105 39.38  105 61.5  C 105 83.62  87.18 101  64.5 101  C 41.82 101  24 83.62  24 61.5  C 24 39.38  41.82 22  64.5 22  Z " fill-rule="nonzero" fill="#ffffff" stroke="none" />
      <path d="M 64.5 22.5  C 86.9 22.5  104.5 39.66  104.5 61.5  C 104.5 83.34  86.9 100.5  64.5 100.5  C 42.1 100.5  24.5 83.34  24.5 61.5  C 24.5 39.66  42.1 22.5  64.5 22.5  Z " stroke-width="1" stroke="#ffffff" fill="none" />
    </g>
  </defs>
  <g transform="matrix(1 0 0 1 -20 -18 )">
    <use xlink:href="#widget25" filter="url(#filter24)" />
    <use xlink:href="#widget25" />
  </g>
</svg>