<?xml version="1.0" encoding="utf-8"?>
<svg version="1.1" xmlns:xlink="http://www.w3.org/1999/xlink" width="29px" height="10px" preserveAspectRatio="xMinYMid meet" viewBox="1416 341  29 8" xmlns="http://www.w3.org/2000/svg">
  <path d="M 1417 345.5  L 1437.5 345.5  A 2.5 2.5 0 0 0 1440.5 343 A 2.5 2.5 0 0 1 1443 340.5 L 1481 340.5  A 5 5 0 0 1 1486.5 345.5 L 1486.5 351  " stroke-width="1" stroke="#ff3399" fill="none" />
  <path d="M 1419 342.5  A 3 3 0 0 0 1416 345.5 A 3 3 0 0 0 1419 348.5 A 3 3 0 0 0 1422 345.5 A 3 3 0 0 0 1419 342.5 Z " fill-rule="nonzero" fill="#ff3399" stroke="none" />
</svg>