<?xml version="1.0" encoding="utf-8"?>
<svg version="1.1" xmlns:xlink="http://www.w3.org/1999/xlink" width="13px" height="13px" xmlns="http://www.w3.org/2000/svg">
  <g transform="matrix(1 0 0 1 -39 -296 )">
    <path d="M 12.5896602050781 4.87608801367185  L 11.3717229716797 4.87608801367185  C 11.3505992919922 4.87608801367185  11.3300991933594 4.87937477929688  11.3097809677734 4.88241472265628  C 11.235692203125 4.66192820996093  11.1472351757813 4.44822310156252  11.0448775683594 4.24298825488285  C 11.0611165615234 4.23060764648437  11.0777842626953 4.21840892382812  11.09277609375 4.2037808388672  L 11.9538972490234 3.34233489941408  C 12.1124157705078 3.18419312402347  12.1124157705078 2.92679863378908  11.9538972490234 2.76865685839846  L 10.2317069003906 1.0461547128906  C 10.0731883789062 0.887571229492209  9.81580687597658 0.887571229492209  9.65771706250001 1.0461547128906  L 8.79621916113282 1.90760065234377  C 8.78160407617186 1.92221573730467  8.76919748046875 1.93887045117185  8.75742746582033 1.95510944433596  C 8.55158202539064 1.85284278613278  8.33805880273436 1.76468455566408  8.11758527734374 1.69023203222656  C 8.12067718261719 1.66990081933596  8.12389899902342 1.64940072070311  8.12389899902342 1.62827704101562  L 8.12389899902342 0.410404744140635  C 8.12389899902342 0.186280694335949  7.94202230859374 0.00440401660154066  7.71789827148437 0.00440401660154066  L 5.28210174121095 0.00440401660154066  C 5.05797769140626 0.00440401660154066  4.87610101367186 0.186280707031244  4.87610101367186 0.410404744140635  L 4.87610101367186 1.6282640410156  C 4.87610101367186 1.64938772070315  4.87938777929688 1.66988781933594  4.88242772265627 1.69021903222654  C 4.66195420996094 1.76430779687502  4.44823610156251 1.85282978613282  4.24300125488283 1.95509644433594  C 4.23062064648437 1.93885745117188  4.21842192382812 1.92220275  4.20379383886719 1.90758765234375  L 3.34234789941406 1.04614171289063  C 3.18420612402343 0.887558229492186  2.92681163378904 0.887558229492186  2.76866985839845 1.04614171289063  L 1.04616771289061 2.76864385839843  C 0.887584229492177 2.92678563378905  0.887584229492177 3.18418012402344  1.04616771289061 3.34232189941406  L 1.90761365234374 4.20376783886718  C 1.9222287373047 4.21838292382813  1.93888345117188 4.23077653222657  1.95512244433595 4.24297525488282  C 1.85285578613281 4.44839198730472  1.76469755566407 4.66192820996093  1.69024503222658 4.88240172265625  C 1.66991381933593 4.87936177929686  1.64941372070312 4.87607501367188  1.62829004101562 4.87607501367188  L 0.410404744140635 4.87607502636718  C 0.186280694335949 4.87607502636718  0.00440401660154777 5.05795171679688  0.00440401660154777 5.28207575390627  L 0.00440401660154777 7.71788527148436  C 0.00440401660154777 7.94200932128905  0.186280707031237 8.12389899902342  0.410404744140635 8.12389899902342  L 1.62826404101564 8.12389899902342  C 1.64938772070314 8.12389899902342  1.66988781933595 8.12067718261721  1.69021903222657 8.11758527734372  C 1.764307796875 8.33804580273437  1.8528297861328 8.55175091113279  1.95509644433593 8.75742746582029  C 1.93885745117186 8.76937936621096  1.92220275000001 8.78159108886717  1.90758765234376 8.7962191611328  L 1.04614171289063 9.65771706250001  C 0.887558229492207 9.81579388867186  0.887558229492207 10.0731883789063  1.04614171289063 10.2317069003906  L 2.76864385839843 11.9538972490234  C 2.92678563378907 12.1124157705078  3.18418012402345 12.1124157705078  3.34232189941408 11.9538972490234  L 4.20376783886717 11.09277609375  C 4.21838292382813 11.0777842626953  4.23077653222656 11.0611165615234  4.24297525488281 11.0448775683594  C 4.44839198730467 11.1472221757813  4.66192820996092 11.2354973300781  4.88240172265625 11.3097809677735  C 4.87936177929686 11.3300991933594  4.87607501367189 11.3505992919922  4.87607501367189 11.3717229716797  L 4.87607501367189 12.5896602050781  C 4.87607501367189 12.8137063056641  5.05795170410158 12.9955829833984  5.28207574121094 12.9955829833984  L 7.71788525878908 12.9955829833984  C 7.94200930859377 12.9955829833984  8.12388598632813 12.8137062929687  8.12388598632813 12.5896602050781  L 8.12388598632813 11.3717229716797  C 8.12388598632813 11.3505992919922  8.12066416992189 11.3300991933594  8.11757226464844 11.3097809677735  C 8.33803279003905 11.235692203125  8.55173789843751 11.1472351757812  8.75741445312499 11.0448775683594  C 8.76936635351562 11.0611165615234  8.78157807617188 11.0777842626953  8.79620614843748 11.09277609375  L 9.65770404980466 11.9538972490234  C 9.81579386328124 12.1124157705078  10.0731753662109 12.1124157705078  10.2316938876953 11.9538972490234  L 11.9538972617187 10.2317069003906  C 12.1124157832031 10.0731883789063  12.1124157832031 9.81579388867186  11.9538972617187 9.65771706250001  L 11.0927761064453 8.7962191611328  C 11.0777842753906 8.7816040761719  11.0611165742187 8.76919748046873  11.0448775810547 8.75742746582029  C 11.1472221884766 8.55158202539064  11.2354973427734 8.33804580273437  11.3097809804688 8.11758527734372  C 11.3300992060547 8.12067718261721  11.3505993046875 8.12389899902342  11.371722984375 8.12389899902342  L 12.5896602177734 8.12389899902342  C 12.8137063183594 8.12389899902342  12.9955829960937 7.94202230859378  12.9955829960937 7.71788527148436  L 12.9955829960937 5.28210174121091  C 12.9955959833985 5.05796470410155  12.8137192929688 4.87608801367185  12.5896602050781 4.87608801367185  Z M 6.50003897460937 10.1537857382813  C 4.48248088183595 10.1537857382813  2.84621426171874 8.51789587695311  2.84621426171874 6.50003897460937  C 2.84621426171874 4.48248088183595  4.48248086914062 2.84621426171873  6.50003897460937 2.84621426171873  C 8.51832457226562 2.84621426171873  10.1537857382813 4.4824808691406  10.1537857382813 6.50003897460937  C 10.1537857382813 8.51789586425781  8.51832457226562 10.1537857382813  6.50003897460937 10.1537857382813  Z M 4.47016522265626 6.50003897460937  C 4.47016522265626 6.23427815917967  4.52294843457031 5.96872520410159  4.62465647363282 5.72321766503904  C 4.72631255078123 5.47773610058596  4.87677653124999 5.25254677441404  5.06466814648437 5.06466815917969  C 5.25255976171874 4.87677654394531  5.47773608789061 4.72631256347654  5.72321765234373 4.62465648632815  C 5.96872520410155 4.52293544726564  6.23429114648437 4.47016523535154  6.50003896191404 4.47016523535154  C 6.7657088408203 4.47016523535154  7.03133974511719 4.52294844726561  7.27678233496093 4.62465648632815  C 7.52226389941406 4.72631256347654  7.74745322558594 4.87677654394531  7.93533184082031 5.06466815917969  C 8.12322345605469 5.25254677441404  8.27368743652344 5.47773610058596  8.37534351367189 5.72321766503904  C 8.47707754003905 5.96872521679688  8.5299127138672 6.23429115917969  8.5299127138672 6.50003897460937  C 8.5299127138672 6.7657088535156  8.47707754003905 7.03133975781248  8.37534351367189 7.27678234765625  C 8.27368743652344 7.52226391210939  8.12322345605469 7.74746622558592  7.93533184082031 7.93533185351561  C 7.74745322558594 8.12322346874998  7.52226389941406 8.27368744921876  7.27678233496093 8.3753435263672  C 7.03133974511719 8.47707755273439  6.7657088408203 8.52991272656249  6.50003896191404 8.52991272656249  C 6.23427814648436 8.52991272656249  5.96872519140626 8.47707755273439  5.72321765234373 8.3753435263672  C 5.47772310058593 8.27368744921876  5.25255976171874 8.12322346874998  5.06466814648437 7.93533185351561  C 4.87677653124999 7.74745323828125  4.72631255078123 7.52226391210934  4.62465647363282 7.27678234765625  C 4.52293544726563 7.03133975781248  4.47016522265626 6.7657088535156  4.47016522265626 6.50003897460937  Z " fill-rule="nonzero" fill="#797979" stroke="none" transform="matrix(1 0 0 1 39 296 )" />
  </g>
</svg>