<?xml version="1.0" encoding="utf-8"?>
<svg version="1.1" xmlns:xlink="http://www.w3.org/1999/xlink" width="10px" height="10px" xmlns="http://www.w3.org/2000/svg">
  <g transform="matrix(1 0 0 1 -48 -85 )">
    <path d="M 53 89  C 53.56 89  54 89.44  54 90  C 54 90.56  53.56 91  53 91  C 52.44 91  52 90.56  52 90  C 52 89.44  52.44 89  53 89  Z " fill-rule="nonzero" fill="#ffffff" stroke="none" />
    <path d="M 53 87.5  C 54.4 87.5  55.5 88.6  55.5 90  C 55.5 91.4  54.4 92.5  53 92.5  C 51.6 92.5  50.5 91.4  50.5 90  C 50.5 88.6  51.6 87.5  53 87.5  Z " stroke-width="5" stroke="#409eff" fill="none" />
  </g>
</svg>