<?xml version="1.0" encoding="utf-8"?>
<svg version="1.1" xmlns:xlink="http://www.w3.org/1999/xlink" width="10px" height="10px" xmlns="http://www.w3.org/2000/svg">
  <g transform="matrix(1 0 0 1 -48 -85 )">
    <path d="M 53 85  C 55.8 85  58 87.2  58 90  C 58 92.8  55.8 95  53 95  C 50.2 95  48 92.8  48 90  C 48 87.2  50.2 85  53 85  Z " fill-rule="nonzero" fill="#ffffff" stroke="none" />
    <path d="M 53 85.5  C 55.52 85.5  57.5 87.48  57.5 90  C 57.5 92.52  55.52 94.5  53 94.5  C 50.48 94.5  48.5 92.52  48.5 90  C 48.5 87.48  50.48 85.5  53 85.5  Z " stroke-width="1" stroke="#409eff" fill="none" />
  </g>
</svg>