<?xml version="1.0" encoding="utf-8"?>
<svg version="1.1" xmlns:xlink="http://www.w3.org/1999/xlink" width="51px" height="20px" xmlns="http://www.w3.org/2000/svg">
  <g transform="matrix(1 0 0 1 -420 -374 )">
    <path d="M 421 376  A 1 1 0 0 1 422 375 L 469 375  A 1 1 0 0 1 470 376 L 470 392  A 1 1 0 0 1 469 393 L 422 393  A 1 1 0 0 1 421 392 L 421 376  Z " fill-rule="nonzero" fill="#c9c9c9" stroke="none" fill-opacity="0.00784313725490196" />
    <path d="M 420.5 376  A 1.5 1.5 0 0 1 422 374.5 L 469 374.5  A 1.5 1.5 0 0 1 470.5 376 L 470.5 392  A 1.5 1.5 0 0 1 469 393.5 L 422 393.5  A 1.5 1.5 0 0 1 420.5 392 L 420.5 376  Z " stroke-width="1" stroke="#5e5e5e" fill="none" stroke-opacity="0.298039215686275" />
  </g>
</svg>