<?xml version="1.0" encoding="utf-8"?>
<svg version="1.1" xmlns:xlink="http://www.w3.org/1999/xlink" width="36px" height="20px" xmlns="http://www.w3.org/2000/svg">
  <g transform="matrix(1 0 0 1 -477 -374 )">
    <path d="M 478 376  A 1 1 0 0 1 479 375 L 511 375  A 1 1 0 0 1 512 376 L 512 392  A 1 1 0 0 1 511 393 L 479 393  A 1 1 0 0 1 478 392 L 478 376  Z " fill-rule="nonzero" fill="#c9c9c9" stroke="none" fill-opacity="0.00784313725490196" />
    <path d="M 477.5 376  A 1.5 1.5 0 0 1 479 374.5 L 511 374.5  A 1.5 1.5 0 0 1 512.5 376 L 512.5 392  A 1.5 1.5 0 0 1 511 393.5 L 479 393.5  A 1.5 1.5 0 0 1 477.5 392 L 477.5 376  Z " stroke-width="1" stroke="#5e5e5e" fill="none" stroke-opacity="0.298039215686275" />
  </g>
</svg>