<?xml version="1.0" encoding="utf-8"?>
<svg version="1.1" xmlns:xlink="http://www.w3.org/1999/xlink" width="263px" height="263px" xmlns="http://www.w3.org/2000/svg">
  <g transform="matrix(1 0 0 1 -1055 -508 )">
    <path d="M 263 131.5  C 263 205.14  205.14 263  131.5 263  C 57.8599999999999 263  0 205.14  0 131.5  C 0 57.86  57.8599999999999 0  131.5 0  C 205.14 0  263 57.86  263 131.5  Z M 38 132  C 38 184.64  79.3599999999999 226  132 226  C 184.64 226  226 184.64  226 132  C 226 79.36  184.64 38  132 38  C 79.3599999999999 38  38 79.36  38 132  Z " fill-rule="nonzero" fill="#76a5f3" stroke="none" transform="matrix(1 0 0 1 1055 508 )" />
  </g>
</svg>