<?xml version="1.0" encoding="utf-8"?>
<svg version="1.1" xmlns:xlink="http://www.w3.org/1999/xlink" width="100px" height="100px" xmlns="http://www.w3.org/2000/svg">
  <g transform="matrix(1 0 0 1 -1069 -328 )">
    <path d="M 100 50  C 100 22.4  77.5999999999999 0  50 0  C 22.4000000000001 0  0 22.4  0 50  C 0 77.6  22.4000000000001 100  50 100  C 77.5999999999999 100  100 77.6  100 50  Z M 69.6500000000001 44.65  C 74.2 47.65  74.2 52.45  69.6500000000001 55.35  L 46.2 71  C 42.2 74  38.1500000000001 72.25  39 66.75  L 39 33.25  C 38.1500000000001 27.9  41.5999999999999 26.1  46.2 29  L 69.6500000000001 44.65  Z " fill-rule="nonzero" fill="#ffffff" stroke="none" transform="matrix(1 0 0 1 1069 328 )" />
  </g>
</svg>