<?xml version="1.0" encoding="utf-8"?>
<svg version="1.1" xmlns:xlink="http://www.w3.org/1999/xlink" width="15px" height="9px" xmlns="http://www.w3.org/2000/svg">
  <g transform="matrix(1 0 0 1 -133 -13 )">
    <path d="M 0.100334448160517 8.57462686567153  C -0.0301003344482483 8.74029850746274  0.105351170568714 8.96865671641789  0.331103678929801 8.96865671641789  L 9.89799331103665 8.96865671641789  C 10.123745819398 8.96865671641789  10.2541806020068 8.74029850746274  10.123745819398 8.57462686567153  L 5.33779264214052 1.70597014925378  C 5.22742474916392 1.56268656716418  4.99163879598675 1.56268656716418  4.88127090301015 1.70597014925378  L 0.100334448160517 8.57462686567153  Z M 10.0635451505015 6.08955223880597  C 10.0033444816054 6.17014925373134  10.0033444816054 6.28208955223883  10.0685618729097 6.37164179104484  L 11.824414715719 8.8656716417909  C 11.8745819397994 8.9328358208956  11.9598662207359 8.97313432835806  12.0501672240804 8.97313432835806  L 14.7190635451506 8.97313432835806  C 14.9448160535117 8.97313432835806  15.0752508361205 8.74477611940292  14.9448160535117 8.579104477612  L 11.8545150501672 4.6522388059701  C 11.7441471571906 4.50895522388065  11.5083612040134 4.50895522388065  11.3979933110368 4.6522388059701  L 10.0635451505015 6.08955223880597  Z M 10.7558528428094 1.12835820895521  C 10.6705685618728 1.9208955223881  11.4080267558529 2.58358208955222  12.2959866220736 2.50298507462685  C 12.953177257525 2.44477611940295  13.4849498327758 1.97014925373136  13.5501672240802 1.38358208955229  C 13.6404682274247 0.591044776119393  12.8979933110367 -0.0716417910447262  12.010033444816 0.00895522388064559  C 11.3528428093646 0.0671641791045496  10.8210702341138 0.541791044776135  10.7558528428094 1.12835820895521  Z " fill-rule="nonzero" fill="#606266" stroke="none" transform="matrix(1 0 0 1 133 13 )" />
  </g>
</svg>