<?xml version="1.0" encoding="utf-8"?>
<svg version="1.1" xmlns:xlink="http://www.w3.org/1999/xlink" width="20px" height="20px" xmlns="http://www.w3.org/2000/svg">
  <g transform="matrix(1 0 0 1 -160 -10 )">
    <path d="M 20 5.20833333333333  C 20 4.546875  19.734375 3.91145833333333  19.265625 3.44270833333333  L 16.5625 0.739583333333333  C 16.09375 0.270833333333333  15.453125 0  14.7864583333333 0  L 13.328125 0  C 12.8697916666667 0  12.4947916666667 0.380208333333333  12.4947916666667 0.84375  L 12.4947916666667 5.01041666666667  C 12.4947916666667 5.46875  12.1197916666667 5.84375  11.6614583333333 5.84375  L 5 5.84375  C 4.54166666666667 5.84375  4.16666666666667 5.46875  4.16666666666667 5.01041666666667  L 4.16666666666667 0.84375  C 4.16666666666667 0.385416666666667  3.79166666666667 0  3.33333333333333 0  L 1.66666666666667 0  C 0.75 0  0 0.75  0 1.66666666666667  L 0 18.3333333333333  C 0 19.25  0.75 20  1.66666666666667 20  L 18.3333333333333 20  C 19.25 20  20 19.25  20 18.3333333333333  L 20 5.20833333333333  Z M 13.4375 12.5052083333333  L 13.4375 17.5052083333333  C 13.4375 17.9635416666667  13.0208333333333 18.3385416666667  12.5104166666667 18.3385416666667  L 4.15625 18.3385416666667  C 3.64583333333333 18.3385416666667  3.22916666666667 17.9635416666667  3.22916666666667 17.5052083333333  L 3.22916666666667 12.5052083333333  C 3.22916666666667 12.046875  3.64583333333333 11.671875  4.15625 11.671875  L 12.5104166666667 11.671875  C 13.0208333333333 11.671875  13.4375 12.046875  13.4375 12.5052083333333  Z " fill-rule="nonzero" fill="#606266" stroke="none" transform="matrix(1 0 0 1 160 10 )" />
  </g>
</svg>