<?xml version="1.0" encoding="utf-8"?>
<svg version="1.1" xmlns:xlink="http://www.w3.org/1999/xlink" width="15px" height="20px" xmlns="http://www.w3.org/2000/svg">
  <g transform="matrix(1 0 0 1 -105 -10 )">
    <path d="M 15 1.42857142857143  L 13.9285714285714 1.42857142857143  C 10.3571428571429 1.42857142857143  8.57142857142857 2.26190476190476  8.57142857142857 3.92857142857143  L 8.57142857142857 8.57142857142857  L 10.7142857142857 8.57142857142857  L 10.7142857142857 10  L 8.57142857142857 10  L 8.57142857142857 16.0714285714286  C 8.57142857142857 17.7380952380952  10.3571428571429 18.5714285714286  13.9285714285714 18.5714285714286  L 15 18.5714285714286  L 15 20  L 13.9285714285714 20  C 10.8928571428571 20  8.75 19.4568452380952  7.5 18.3705357142857  C 6.25 19.4568452380952  4.10714285714286 20  1.07142857142857 20  L 0 20  L 0 18.5714285714286  L 1.07142857142857 18.5714285714286  C 4.64285714285714 18.5714285714286  6.42857142857143 17.7380952380952  6.42857142857143 16.0714285714286  L 6.42857142857143 10  L 4.28571428571429 10  L 4.28571428571429 8.57142857142857  L 6.42857142857143 8.57142857142857  L 6.42857142857143 3.92857142857143  C 6.42857142857143 2.26190476190476  4.64285714285714 1.42857142857143  1.07142857142857 1.42857142857143  L 0 1.42857142857143  L 0 0  L 1.07142857142857 0  C 4.10714285714286 0  6.25 0.543154761904763  7.5 1.62946428571429  C 8.75 0.543154761904763  10.8928571428571 0  13.9285714285714 0  L 15 0  L 15 1.42857142857143  Z " fill-rule="nonzero" fill="#333333" stroke="none" transform="matrix(1 0 0 1 105 10 )" />
  </g>
</svg>