<?xml version="1.0" encoding="utf-8"?>
<svg version="1.1" xmlns:xlink="http://www.w3.org/1999/xlink" width="20px" height="20px" xmlns="http://www.w3.org/2000/svg">
  <g transform="matrix(1 0 0 1 -130 -10 )">
    <path d="M 20 1.53846153846159  C 20 0.6875  19.3125 0  18.4615384615384 0  L 1.53846153846159 0  C 0.6875 0  0 0.6875  0 1.53846153846159  L 0 18.4615384615384  C 0 19.3125  0.6875 20  1.53846153846159 20  L 18.4615384615384 20  C 19.3125 20  20 19.3125  20 18.4615384615384  L 20 1.53846153846159  Z M 18 13.4615384615384  L 18.3317307692308 13.4615384615384  C 18.3317307692308 13.6730769230768  18.158653846154 13.846153846154  17.9471153846152 13.846153846154  L 2.05288461538476 13.846153846154  C 1.84134615384604 13.846153846154  1.66826923076921 13.6730769230768  2 13.4615384615384  L 2 2.0528846153846  C 1.66826923076921 1.84134615384619  1.84134615384604 1.66826923076921  2.05288461538476 2  L 17.9519230769232 2  C 18.1634615384616 1.66826923076921  18.3365384615384 1.84134615384619  18 2.0528846153846  L 18 13.4615384615384  Z " fill-rule="nonzero" fill="#606266" stroke="none" transform="matrix(1 0 0 1 130 10 )" />
  </g>
</svg>