<?xml version="1.0" encoding="utf-8"?>
<svg version="1.1" xmlns:xlink="http://www.w3.org/1999/xlink" width="31px" height="10px" preserveAspectRatio="xMinYMid meet" viewBox="1464 802  31 8" xmlns="http://www.w3.org/2000/svg">
  <path d="M 1465 806.5  L 1487 806.5  A 3 3 0 0 0 1490.5 803.5 A 3 3 0 0 1 1493.5 800.5 L 1501 800.5  A 5 5 0 0 1 1506.5 805.5 L 1506.5 812  " stroke-width="1" stroke="#ff3399" fill="none" />
  <path d="M 1467 803.5  A 3 3 0 0 0 1464 806.5 A 3 3 0 0 0 1467 809.5 A 3 3 0 0 0 1470 806.5 A 3 3 0 0 0 1467 803.5 Z " fill-rule="nonzero" fill="#ff3399" stroke="none" />
</svg>