<?xml version="1.0" encoding="utf-8"?>
<svg version="1.1" xmlns:xlink="http://www.w3.org/1999/xlink" width="18px" height="18px" preserveAspectRatio="xMinYMid meet" viewBox="1440 756  18 16" xmlns="http://www.w3.org/2000/svg">
  <path d="M 1447 764.5  L 1468 764.5  A 2 2 0 0 0 1470.5 762.5 A 2 2 0 0 1 1472.5 760.5 L 1477 760.5  A 5 5 0 0 1 1482.5 765.5 L 1482.5 770  " stroke-width="1" stroke="#ff3399" fill="none" />
  <path d="M 1449 761.5  A 3 3 0 0 0 1446 764.5 A 3 3 0 0 0 1449 767.5 A 3 3 0 0 0 1452 764.5 A 3 3 0 0 0 1449 761.5 Z " fill-rule="nonzero" fill="#ff3399" stroke="none" />
</svg>