<?xml version="1.0" encoding="utf-8"?>
<svg version="1.1" xmlns:xlink="http://www.w3.org/1999/xlink" width="10px" height="15px" preserveAspectRatio="xMidYMin meet" viewBox="1416 325  8 15" xmlns="http://www.w3.org/2000/svg">
  <path d="M 1398 335.5  L 1417.5 335.5  A 2.5 2.5 0 0 0 1420.5 333 A 2.5 2.5 0 0 1 1423 330.5 L 1442 330.5  A 5 5 0 0 1 1447.5 335.5 L 1447.5 341  " stroke-width="1" stroke="#ff3399" fill="none" />
  <path d="M 1400 332.5  A 3 3 0 0 0 1397 335.5 A 3 3 0 0 0 1400 338.5 A 3 3 0 0 0 1403 335.5 A 3 3 0 0 0 1400 332.5 Z " fill-rule="nonzero" fill="#ff3399" stroke="none" />
</svg>