<?xml version="1.0" encoding="utf-8"?>
<svg version="1.1" xmlns:xlink="http://www.w3.org/1999/xlink" width="13px" height="16px" xmlns="http://www.w3.org/2000/svg">
  <g transform="matrix(1 0 0 1 -16 -22 )">
    <path d="M 13 1.07332293750005  C 12.9395513725728 0.474258968750064  12.4606879478155 0  11.8558078240291 0  L 1.0939824053398 0  C 0.514305621359242 0  0.0354421966019345 0.474258968750064  0 1.07332293750005  L 0 14.9266770624999  C 0.0354421966019345 15.5007800312499  0.514305621359242 16  1.11918574514563 16  L 11.8558078240291 16  C 12.4354846080097 16  12.9395513725728 15.5257410312499  13 14.9266770624999  L 13 1.07332293750005  Z M 4 1.34789392187508  L 4 14.57722309375  L 3 14.57722309375  L 3 1.34789392187508  L 4 1.34789392187508  Z M 10.1419808276699 4.39313571875005  L 10.1671841674757 4.39313571875005  L 9.08344061893203 3.31981279687489  L 7.99969707038834 4.39313571875005  L 7.99969707038834 1.19812792187508  L 10.1419808276699 1.19812792187508  L 10.1419808276699 4.39313571875005  Z " fill-rule="nonzero" fill="#c9c9c9" stroke="none" transform="matrix(1 0 0 1 16 22 )" />
  </g>
</svg>