<?xml version="1.0" encoding="utf-8"?>
<svg version="1.1" xmlns:xlink="http://www.w3.org/1999/xlink" width="30px" height="10px" xmlns="http://www.w3.org/2000/svg">
  <g transform="matrix(1 0 0 1 -998 -532 )">
    <path d="M 28.9636363636364 3.84033613445378  C 30.3428571428572 3.16806722689076  30.3428571428572 2.06722689075629  28.9714285714285 1.39495798319327  L 26.5012987012987 0.184873949579824  C 26.1740259740259 0.0252100840336311  25.8 0.0252100840336311  25.4727272727272 0.184873949579824  L 17.0571428571429 4.29411764705881  C 15.8649350649351 4.73109243697479  14.2051948051948 4.73109243697479  13.0129870129871 4.29411764705881  L 4.59740259740272 0.184873949579824  C 4.27012987012995 0.0252100840335885  3.89610389610391 0.0252100840335885  3.56883116883125 0.184873949579824  L 1.09870129870137 1.39495798319327  C -0.272727272727366 2.06722689075629  -0.272727272727366 3.16806722689076  1.09870129870137 3.84033613445378  L 12.6311688311688 9.5126050420168  C 13.9480519480519 10.1596638655462  16.1142857142856 10.1596638655462  17.4311688311687 9.5126050420168  L 28.9636363636364 3.84033613445378  Z " fill-rule="nonzero" fill="#606266" stroke="none" transform="matrix(1 0 0 1 998 532 )" />
  </g>
</svg>