<?xml version="1.0" encoding="utf-8"?>
<svg version="1.1" xmlns:xlink="http://www.w3.org/1999/xlink" width="10px" height="18px" preserveAspectRatio="xMidYMin meet" viewBox="1425 205  8 18" xmlns="http://www.w3.org/2000/svg">
  <path d="M 1380 217.5  L 1396.5 217.5  A 3.5 3.5 0 0 0 1400.5 214 A 3.5 3.5 0 0 1 1404 210.5 L 1424 210.5  A 5 5 0 0 1 1429.5 215.5 L 1429.5 223  " stroke-width="1" stroke="#ff3399" fill="none" />
  <path d="M 1382 214.5  A 3 3 0 0 0 1379 217.5 A 3 3 0 0 0 1382 220.5 A 3 3 0 0 0 1385 217.5 A 3 3 0 0 0 1382 214.5 Z " fill-rule="nonzero" fill="#ff3399" stroke="none" />
</svg>