<?xml version="1.0" encoding="utf-8"?>
<svg version="1.1" xmlns:xlink="http://www.w3.org/1999/xlink" width="30px" height="30px" xmlns="http://www.w3.org/2000/svg">
  <g transform="matrix(1 0 0 1 -998 -519 )">
    <path d="M 28.96875 8.08051948051948  C 30.34375 7.45714285714287  30.34375 6.43636363636364  28.96875 5.81298701298701  L 17.2968750000001 0.506493506493499  C 16.03125 -0.0701298701298754  13.9609374999999 -0.0701298701298754  12.6953125 0.506493506493499  L 1.03125 5.81298701298701  C -0.34375 6.43636363636364  -0.34375 7.45714285714287  1.03125 8.08051948051948  L 12.59375 13.3402597402598  C 13.9140625 13.9402597402597  16.0859375 13.9402597402597  17.40625 13.3402597402598  L 28.96875 8.08051948051948  Z M 17.40625 24.3272727272727  C 16.0859375 24.9272727272727  13.9140625 24.9272727272727  12.59375 24.3272727272727  L 4.796875 20.7818181818182  C 4.46874999999989 20.6337662337662  4.08593750000011 20.6337662337662  3.7578125 20.7818181818182  L 1.03125 22.0207792207792  C -0.34375 22.6441558441558  -0.34375 23.6649350649351  1.03125 24.2883116883117  L 12.59375 29.5480519480519  C 13.9140625 30.1480519480519  16.0859375 30.1480519480519  17.40625 29.5480519480519  L 28.96875 24.2883116883117  C 30.34375 23.6649350649351  30.34375 22.6441558441558  28.96875 22.0207792207792  L 26.2421875 20.7818181818182  C 25.9140624999999 20.6337662337662  25.5312500000001 20.6337662337662  25.203125 20.7818181818182  L 17.40625 24.3272727272727  Z " fill-rule="nonzero" fill="#606266" stroke="none" transform="matrix(1 0 0 1 998 519 )" />
  </g>
</svg>