<?xml version="1.0" encoding="utf-8"?>
<svg version="1.1" xmlns:xlink="http://www.w3.org/1999/xlink" width="30px" height="30px" xmlns="http://www.w3.org/2000/svg">
  <g transform="matrix(1 0 0 1 -656 -216 )">
    <path d="M 30 15  C 30 6.71394230769238  23.2860576923077 0  15 0  C 6.71394230769226 0  0 6.71394230769238  0 15  C 0 23.2860576923076  6.71394230769226 30  15 30  C 23.2860576923077 30  30 23.2860576923076  30 15  Z M 21.0432692307693 14.71875  C 21.2524038461538 14.8413461538462  21.2524038461538 15.1586538461538  21.0432692307693 15.28125  L 11.1490384615385 21.2668269230769  C 10.9399038461538 21.3966346153845  10.6658653846154 21.2379807692307  11 20.9855769230769  L 11 9.01442307692309  C 10.6658653846154 8.76201923076928  10.9326923076923 8.60336538461547  11.1490384615385 8.73317307692309  L 21.0432692307693 14.71875  Z " fill-rule="nonzero" fill="#606266" stroke="none" transform="matrix(1 0 0 1 656 216 )" />
  </g>
</svg>