<?xml version="1.0" encoding="utf-8"?>
<svg version="1.1" xmlns:xlink="http://www.w3.org/1999/xlink" width="30px" height="28px" xmlns="http://www.w3.org/2000/svg">
  <g transform="matrix(1 0 0 1 -657 -520 )">
    <path d="M 30 3.75  C 30 3.90865384615387  29.8701923076924 4.03846153846153  29.7115384615385 4  L 0.288461538461547 4  C 0.129807692307622 4.03846153846153  0 3.90865384615387  0 3.75  L 0 2.30769230769236  C 0 1.03125000000003  1.03125 0  2.30769230769238 0  L 27.6923076923076 0  C 28.96875 0  30 1.03125000000003  30 2.30769230769236  L 30 3.75  Z M 28.8461538461539 6.49038461538458  C 28.8461538461539 6.17307692307701  28.5865384615385 5.91346153846153  28.2692307692308 6  L 1.73076923076917 6  C 1.41346153846155 5.91346153846153  1.15384615384608 6.17307692307701  1.15384615384608 6.49038461538458  L 1.15384615384608 25.3846153846154  C 1.15384615384608 26.6538461538462  2.19230769230774 27.6923076923078  3.46153846153845 27.6923076923078  L 26.5384615384615 27.6923076923078  C 27.8076923076923 27.6923076923078  28.8461538461539 26.6538461538462  28.8461538461539 25.3846153846154  L 28.8461538461539 6.49038461538458  Z M 19.6081730769231 15.0216346153846  C 19.6802884615385 15.6274038461539  19.204326923077 16.1538461538463  18.6057692307692 16.1538461538463  L 11.4230769230769 16.1538461538463  C 10.9110576923076 16.1538461538463  10.4567307692308 15.7788461538461  10.3918269230769 15.2668269230769  C 10.3197115384615 14.6538461538462  10.795673076923 14.1346153846154  11.3942307692308 14.1346153846154  L 18.5769230769231 14.1346153846154  C 19.0889423076924 14.1346153846154  19.5432692307692 14.5096153846154  19.6081730769231 15.0216346153846  Z " fill-rule="nonzero" fill="#606266" stroke="none" transform="matrix(1 0 0 1 657 520 )" />
  </g>
</svg>