<?xml version="1.0" encoding="utf-8"?>
<svg version="1.1" xmlns:xlink="http://www.w3.org/1999/xlink" width="167px" height="120px" xmlns="http://www.w3.org/2000/svg">
  <g transform="matrix(1 0 0 1 -480 -472 )">
    <path d="M 480 472  L 647 472  L 647 592  L 480 592  L 480 472  " fill-rule="nonzero" fill="#cccccc" stroke="none" />
    <path d="M 488 480  L 639 480  L 639 584  L 488 584  L 488 480  " fill-rule="nonzero" fill="#ffffff" stroke="none" />
    <path d="M 575.84 508  C 570.8 508  566.84 504.04  566.84 499  C 566.84 493.96  570.8 490  575.84 490  C 580.88 490  584.84 493.96  584.84 499  C 584.84 504.04  580.88 508  575.84 508  " fill-rule="nonzero" fill="#cccccc" stroke="none" />
    <path d="M 491 581  L 491 527.1  L 527.25 502.6  L 578 538.748502994012  L 607 517.3  L 636 538.748502994012  L 636 581  L 491 581  " fill-rule="nonzero" fill="#169bd5" stroke="none" />
  </g>
</svg>