<?xml version="1.0" encoding="utf-8"?>
<svg version="1.1" xmlns:xlink="http://www.w3.org/1999/xlink" width="22px" height="14px" xmlns="http://www.w3.org/2000/svg">
  <g transform="matrix(1 0 0 1 -573 -172 )">
    <path d="M 21.985982300885 10.2013333333332  C 22.2476460176991 7.18044444444445  18.6357522123893 6.20977777777784  18.6357522123893 6.20977777777784  C 18.6357522123893 6.20977777777784  18.4831150442478 1.19311111111119  14.3915044247788 0.195999999999913  C 10.2998938053097 -0.80111111111114  8.32807079646022 3.50466666666671  8.28757522123897 3.62755555555555  C 8.24707964601771 3.75044444444438  8.04615929203544 3.69444444444457  8.04615929203544 3.69444444444457  C 7.71907964601769 3.38488888888878  6.27681415929203 2.67399999999998  4.76134513274337 3.58555555555563  C 3.24743362831862 4.49711111111105  3.79568141592915 6.22844444444445  3.79568141592915 6.22844444444445  C 3.79568141592915 6.22844444444445  1.55129203539821 6.04644444444443  0.400283185840749 9.50755555555565  C -0.749168141592918 12.9717777777778  3.28325663716817 13.9533333333334  3.28325663716817 13.9533333333334  L 10.0522477876107 13.9533333333334  L 10.0522477876107 10.2682222222222  L 8.69720353982302 10.2682222222222  L 8.57883185840706 10.2682222222222  L 8.48693805309733 10.2682222222222  L 8.48693805309733 10.2619999999999  C 8.40906194690263 10.2619999999999  8.34676106194695 10.1997777777779  8.34676106194695 10.1204444444445  C 8.34676106194695 10.0737777777777  8.37168141592917 10.0333333333333  8.40906194690263 10.0068888888889  L 11.1830088495575 7.09333333333325  C 11.2219469026548 7.04977777777776  11.2764601769911 7.02022222222217  11.3403185840708 7.02022222222217  C 11.4057345132744 7.02022222222217  11.4633628318584 7.0528888888889  11.5023008849557 7.10111111111109  L 14.256 9.99133333333339  C 14.2606725663717 9.99444444444453  14.2653451327434 9.99911111111123  14.270017699115 10.0037777777777  L 14.2964955752212 10.0317777777777  L 14.2871504424779 10.0317777777777  C 14.3011681415929 10.0566666666666  14.3105132743362 10.0784444444444  14.3105132743362 10.1079999999999  C 14.3105132743362 10.1951111111111  14.2404247787611 10.2666666666667  14.1516460176991 10.2666666666667  C 14.1485309734513 10.2666666666667  14.1485309734513 10.2635555555555  14.1454159292035 10.2635555555555  L 14.1454159292035 10.2697777777778  L 12.6533097345133 10.2697777777778  L 12.6533097345133 13.9548888888889  L 18.7977345132743 13.9548888888889  C 18.7977345132743 13.9548888888889  21.7274336283186 13.2222222222222  21.985982300885 10.2013333333332  Z " fill-rule="nonzero" fill="#333333" stroke="none" transform="matrix(1 0 0 1 573 172 )" />
  </g>
</svg>