<?xml version="1.0" encoding="utf-8"?>
<svg version="1.1" xmlns:xlink="http://www.w3.org/1999/xlink" width="20px" height="12px" xmlns="http://www.w3.org/2000/svg">
  <g transform="matrix(1 0 0 1 -529 -173 )">
    <path d="M 0.500548358473907 11.6555272376311  C 0.178990042147461 11.3239499362818  0.178990042147461 10.7858818965518  0.500548358473907 10.453418601949  L 9.46447570541272 0.337357949775139  C 9.63569675133112 0.160534617691155  9.86288639418831 0.084822245127441  10.0876744043924 0.0963401836581852  C 10.3116531543924 0.0847953785607274  10.538921113576 0.160534617691155  10.7101421594944 0.337357949775139  L 19.6733124656168 10.453418601949  C 19.9949229758211 10.785855029985  19.9949229758211 11.3239499362818  19.6733124656168 11.6555003710644  C 19.3525372870454 11.9878562518741  18.8317736390861 11.9878562518741  18.5108940472494 11.6555003710644  L 10.0876744043924 2.14911238005999  L 1.66374991459634 11.6555272376311  C 1.34219159826966 11.9878831184408  0.821349633984255 11.9878831184408  0.500548358473907 11.6555272376311  Z " fill-rule="nonzero" fill="#d7d7d7" stroke="none" transform="matrix(1 0 0 1 529 173 )" />
  </g>
</svg>