<?xml version="1.0" encoding="utf-8"?>
<svg version="1.1" xmlns:xlink="http://www.w3.org/1999/xlink" width="20px" height="19px" xmlns="http://www.w3.org/2000/svg">
  <g transform="matrix(1 0 0 1 -350 -169 )">
    <path d="M 0.856498863636375 17.5658871454741  L 19.1284748347107 17.5658871454741  C 19.5268169543338 17.5658871454741  19.8497370454545 17.8858842530115  19.8497370454545 18.2806206896553  C 19.8497370454545 18.6753571262989  19.5268169543338 18.9953542338362  19.1284748347107 18.9953542338362  C 19.1284748347107 18.9953542338362  19.1284748347107 18.9953542338362  19.1284748347107 19  L 0.856498863636375 19  C 0.856498863636375 18.9953542338362  0.856498863636375 18.9953542338362  0.856498863636375 18.9953542338362  C 0.458156744013309 18.9953542338362  0.135236652892559 18.6753571262989  0.135236652892559 18.2806206896553  C 0.135236652892559 17.8858842530115  0.458156744013309 17.5658871454741  0.856498863636375 17.5658871454741  Z M 19.641051838843 3.35793729849138  C 19.641051838843 3.82823197306038  19.4559278719008 4.27041379310344  19.1203005165289 4.60300314224151  L 7.67386927685951 15.9463009385777  L 3.21166041322314 16.3980125484914  L 3.66797896694214 11.9761943480603  L 13.6209166115702 2.11287147521557  L 15.1144102272727 0.632896551724116  C 15.7856649173553 -0.0322821260774617  16.9560330578512 -0.0322821260774617  17.6272877479339 0.632896551724116  L 19.1203005165289 2.11287147521557  C 19.4546975943773 2.44233378051013  19.642209950902 2.89065760907624  19.641051838843 3.35793729849138  Z M 5.05039820247933 12.6270783717673  L 4.82680692148762 14.7974859008621  L 7.0165589876033 14.5759184859912  L 16.096769338843 5.57742319935346  L 14.1310894008265 3.62905955926726  L 5.05039820247933 12.6270783717673  Z M 16.6074229958678 1.64400626400879  C 16.5448103749432 1.58162538328156  16.4596358070932 1.54662877554938  16.3708489876033 1.54680250969841  C 16.2820409292797 1.54652234991386  16.1968266114188 1.58153529016818  16.1342749793388 1.64400626400879  L 15.1509541735537 2.61794984698281  L 17.1171149586777 4.56678996120695  L 18.0999549173554 3.59236990409477  C 18.2305562153024 3.46287381360071  18.2305562153024 3.25300078338228  18.0999549173554 3.12350469288799  L 16.6074229958678 1.64400626400879  Z " fill-rule="nonzero" fill="#409eff" stroke="none" transform="matrix(1 0 0 1 350 169 )" />
  </g>
</svg>