<?xml version="1.0" encoding="utf-8"?>
<svg version="1.1" xmlns:xlink="http://www.w3.org/1999/xlink" width="15px" height="15px" xmlns="http://www.w3.org/2000/svg">
  <g transform="matrix(1 0 0 1 -835 -1079 )">
    <path d="M 14.59375 12.828125  L 9.26562500000003 7.5  L 14.59375 2.17187500000001  C 15.078125 1.68750000000003  15.078125 0.890624999999972  14.59375 0.406249999999986  C 14.109375 -0.078125  13.3125 -0.078125  12.828125 0.406249999999986  L 7.5 5.73437499999997  L 2.17187500000001 0.406249999999986  C 1.68750000000003 -0.078125  0.890624999999972 -0.078125  0.406249999999986 0.406249999999986  C 0.164062500000028 0.648437500000014  0.0390625 0.968749999999972  0.0390625 1.2890625  C 0.0390625 1.60937500000003  0.164062500000028 1.92968749999999  0.406249999999986 2.17187500000001  L 5.73437499999997 7.5  L 0.406249999999986 12.828125  C 0.164062500000028 13.0703125  0.0390625 13.390625  0.0390625 13.7109375  C 0.0390625 14.03125  0.164062500000028 14.3515625  0.406249999999986 14.59375  C 0.890624999999972 15.078125  1.68750000000003 15.078125  2.17187500000001 14.59375  L 7.5 9.26562500000003  L 12.828125 14.59375  C 13.3125 15.078125  14.109375 15.078125  14.59375 14.59375  C 15.078125 14.109375  15.078125 13.3125  14.59375 12.828125  Z " fill-rule="nonzero" fill="#606266" stroke="none" transform="matrix(1 0 0 1 835 1079 )" />
  </g>
</svg>