<?xml version="1.0" encoding="utf-8"?>
<svg version="1.1" xmlns:xlink="http://www.w3.org/1999/xlink" width="15px" height="15px" xmlns="http://www.w3.org/2000/svg">
  <g transform="matrix(1 0 0 1 -539 -1112 )">
    <path d="M 14.9709302325581 7.5  C 14.9709302325581 6.98837209302323  14.5523255813954 6.56976744186045  14.0406976744186 6.56976744186045  L 8.43023255813954 6.56976744186045  L 8.43023255813954 0.959302325581413  C 8.43023255813954 0.44767441860464  8.01162790697674 0.0290697674418539  7.5 0.0290697674418539  C 6.98837209302326 0.0290697674418539  6.56976744186046 0.44767441860464  6.56976744186046 0.959302325581413  L 6.56976744186046 6.56976744186045  L 0.95930232558139 6.56976744186045  C 0.447674418604649 6.56976744186045  0.0290697674418539 6.98837209302323  0.0290697674418539 7.5  C 0.0290697674418539 7.75581395348834  0.133720930232557 7.98837209302325  0.302325581395353 8.15697674418604  C 0.470930232558131 8.32558139534882  0.70348837209302 8.43023255813955  0.95930232558139 8.43023255813955  L 6.56976744186046 8.43023255813955  L 6.56976744186046 14.0406976744186  C 6.56976744186046 14.2965116279069  6.67441860465117 14.5290697674418  6.84302325581394 14.6976744186046  C 7.01162790697674 14.8662790697674  7.24418604651163 14.9709302325581  7.5 14.9709302325581  C 8.01162790697674 14.9709302325581  8.43023255813954 14.5523255813954  8.43023255813954 14.0406976744186  L 8.43023255813954 8.43023255813955  L 14.0406976744186 8.43023255813955  C 14.5523255813954 8.43023255813955  14.9709302325581 8.01162790697677  14.9709302325581 7.5  Z " fill-rule="nonzero" fill="#606266" stroke="none" transform="matrix(1 0 0 1 539 1112 )" />
  </g>
</svg>