<?xml version="1.0" encoding="utf-8"?>
<svg version="1.1" xmlns:xlink="http://www.w3.org/1999/xlink" width="70px" height="44px" xmlns="http://www.w3.org/2000/svg">
  <g transform="matrix(1 0 0 1 -159 0 )">
    <path d="M 159 0  L 229 0  L 229 44  L 159 44  L 159 0  " fill-rule="nonzero" fill="#cccccc" stroke="none" />
    <path d="M 162 3  L 226 3  L 226 41  L 162 41  L 162 3  " fill-rule="nonzero" fill="#ffffff" stroke="none" />
    <path d="M 198.7 13.2  C 196.852 13.2  195.4 11.748  195.4 9.9  C 195.4 8.052  196.852 6.6  198.7 6.6  C 200.548 6.6  202 8.052  202 9.9  C 202 11.748  200.548 13.2  198.7 13.2  " fill-rule="nonzero" fill="#cccccc" stroke="none" />
    <path d="M 163 40  L 163 20.2  L 178.5 11.2  L 200.2 26.4228571428571  L 212.6 16.6  L 225 26.4228571428571  L 225 40  L 163 40  " fill-rule="nonzero" fill="#169bd5" stroke="none" />
  </g>
</svg>