<?xml version="1.0" encoding="utf-8"?>
<svg version="1.1" xmlns:xlink="http://www.w3.org/1999/xlink" width="190px" height="32px" xmlns="http://www.w3.org/2000/svg">
  <g transform="matrix(1 0 0 1 -21 -76 )">
    <path d="M 22 80  A 3 3 0 0 1 25 77 L 207 77  A 3 3 0 0 1 210 80 L 210 104  A 3 3 0 0 1 207 107 L 25 107  A 3 3 0 0 1 22 104 L 22 80  Z " fill-rule="nonzero" fill="#ffffff" stroke="none" />
    <path d="M 21.5 80  A 3.5 3.5 0 0 1 25 76.5 L 207 76.5  A 3.5 3.5 0 0 1 210.5 80 L 210.5 104  A 3.5 3.5 0 0 1 207 107.5 L 25 107.5  A 3.5 3.5 0 0 1 21.5 104 L 21.5 80  Z " stroke-width="1" stroke="#000000" fill="none" stroke-opacity="0.149019607843137" />
  </g>
</svg>