<?xml version="1.0" encoding="utf-8"?>
<svg version="1.1" xmlns:xlink="http://www.w3.org/1999/xlink" width="10px" height="10px" xmlns="http://www.w3.org/2000/svg">
  <g transform="matrix(1 0 0 1 -139 -885 )">
    <path d="M 9.0222 3.1254  C 9.0222 2.9602  8.9536 2.802  8.8332 2.6858  L 6.316 0.2596  C 6.1984 0.1462  6.0416 0.0831999999999997  5.8764 0.0831999999999997  L 1.9214 0.0747999999999998  C 1.9214 0.0747999999999998  0.9778 0.1364  0.9778 0.9988  L 0.9778 9.0026  C 0.9778 9.0026  1.0198 9.9266  1.9214 9.9266  L 8.0786 9.9266  C 8.0786 9.9266  9.0222 9.8832  9.0222 9.0026  L 9.0222 3.1254  Z M 6.3272 2.4142  C 6.3286 2.1202  6.3286 1.1206  6.3286 1.1206  L 7.9778 2.7222  L 6.6422 2.7222  C 6.6422 2.7222  6.3272 2.7082  6.3272 2.4142  Z M 8.3936 3.3368  L 8.3936 9.0012  C 8.3936 9.3106  8.0786 9.3092  8.0786 9.3092  L 1.9214 9.3092  C 1.6274 9.3092  1.6064 9.0012  1.6064 9.0012  L 1.6064 0.9974  C 1.6064 0.7104  1.9214 0.6894  1.9214 0.6894  L 5.7 0.6894  L 5.7 2.4128  C 5.7 3.2668  6.6436 3.3368  6.6436 3.3368  L 8.3936 3.3368  Z " fill-rule="nonzero" fill="#515a6e" stroke="none" transform="matrix(1 0 0 1 139 885 )" />
  </g>
</svg>