<?xml version="1.0" encoding="utf-8"?>
<svg version="1.1" xmlns:xlink="http://www.w3.org/1999/xlink" width="14px" height="14px" xmlns="http://www.w3.org/2000/svg">
  <g transform="matrix(1 0 0 1 -461 -967 )">
    <path d="M 14 7.00008000000002  C 14 3.13406400000002  10.866048 8.00000000253931E-05  6.99996800000002 8.00000000253931E-05  C 3.13419199999998 8.00000000253931E-05  0 3.13406400000002  0 7.00008000000002  C 0 10.866  3.13419199999998 13.999904  6.99996800000002 13.999904  C 10.866048 13.999904  14 10.865984  14 7.00008000000002  Z M 10.217104 9.722128  C 10.353792 9.85884800000002  10.353792 10.080416  10.217104 10.217088  C 10.080448 10.353776  9.85883200000001 10.353776  9.72203200000001 10.217088  L 6.99996800000002 7.49494399999998  L 4.27793599999995 10.217088  C 4.14126400000004 10.353776  3.91966400000001 10.353776  3.78297600000002 10.217088  C 3.646208 10.080416  3.646208 9.85884800000002  3.78297600000002 9.722128  L 6.50507199999998 7.00001600000002  L 3.78297600000002 4.27783999999997  C 3.646208 4.14127999999999  3.646208 3.919648  3.78297600000002 3.78291199999995  C 3.91967999999997 3.64632  4.14127999999999 3.64632  4.27793599999995 3.78291199999995  L 7.00003199999998 6.50504000000001  L 9.47470399999997 4.03035200000005  C 9.61135999999999 3.89376000000004  9.83297600000003 3.89376000000004  9.96948799999996 4.03035200000005  C 10.106192 4.16708799999998  10.106192 4.38871999999998  9.96948799999996 4.52531199999999  L 7.49494399999998 6.99995199999995  L 10.217104 9.722128  Z " fill-rule="nonzero" fill="#ed4014" stroke="none" transform="matrix(1 0 0 1 461 967 )" />
  </g>
</svg>