<?xml version="1.0" encoding="utf-8"?>
<svg version="1.1" xmlns:xlink="http://www.w3.org/1999/xlink" width="14px" height="14px" xmlns="http://www.w3.org/2000/svg">
  <g transform="matrix(1 0 0 1 -461 -1001 )">
    <path d="M 13.8901293938053 7.05655869911504  C 13.8901293938053 3.2229774778761  10.7824344977876 0.115282581858395  6.94885327654868 0.115282581858395  C 3.11527205530973 0.115282581858395  0.0075771592920546 3.2229774778761  0.0075771592920546 7.05655869911504  C 0.0075771592920546 10.890139920354  3.11527205530973 13.9978348163717  6.94885327654868 13.9978348163717  C 10.7824344977876 13.9978348163717  13.8901293938053 10.890139920354  13.8901293938053 7.05655869911504  Z M 11.1295458517699 4.42337452212388  C 11.3176575951327 4.61457654867257  11.3176575951327 4.92441420353981  11.1295458517699 5.11564794690264  L 6.32648388053099 10.0227656615044  C 6.31011324999997 10.0473295442478  6.2918884402655 10.0707840818584  6.27041485619469 10.0925270730089  C 6.08216048008848 10.2837291150443  5.77698203761059 10.2837291150443  5.58860087168142 10.0925270730089  L 3.2028303938053 7.67003755309736  C 3.01471863495573 7.47881965265486  3.01471863495573 7.16896617035397  3.2028303938053 6.97803353539823  C 3.39106892699112 6.78681563495576  3.6962473539823 6.78681563495576  3.88450174557522 6.97803353539823  L 5.9223051039823 9.04693001106196  L 10.4477318672567 4.42337452212388  C 10.6361288761062 4.23217248008851  10.9411646858407 4.23217248008851  11.1295458517699 4.42337452212388  Z " fill-rule="nonzero" fill="#19be6b" stroke="none" transform="matrix(1 0 0 1 461 1001 )" />
  </g>
</svg>