<?xml version="1.0" encoding="utf-8"?>
<svg version="1.1" xmlns:xlink="http://www.w3.org/1999/xlink" width="184px" height="104px" xmlns="http://www.w3.org/2000/svg">
  <g transform="matrix(1 0 0 1 -139 -195 )">
    <path d="M 139 195  L 323 195  L 323 299  L 139 299  L 139 195  " fill-rule="nonzero" fill="#cccccc" stroke="none" />
    <path d="M 146 202  L 316 202  L 316 292  L 146 292  L 146 202  " fill-rule="nonzero" fill="#ffffff" stroke="none" />
    <path d="M 242.48 226.2  C 238.112 226.2  234.68 222.768  234.68 218.4  C 234.68 214.032  238.112 210.6  242.48 210.6  C 246.848 210.6  250.28 214.032  250.28 218.4  C 250.28 222.768  246.848 226.2  242.48 226.2  " fill-rule="nonzero" fill="#cccccc" stroke="none" />
    <path d="M 149 290  L 149 243.25  L 190.25 222  L 248 261.173913043478  L 281 234.75  L 314 261.173913043478  L 314 290  L 149 290  " fill-rule="nonzero" fill="#169bd5" stroke="none" />
  </g>
</svg>