<?xml version="1.0" encoding="utf-8"?>
<svg version="1.1" xmlns:xlink="http://www.w3.org/1999/xlink" width="6px" height="4px" xmlns="http://www.w3.org/2000/svg">
  <g transform="matrix(1 0 0 1 -141 -889 )">
    <path d="M 1.3102 0.2216  C 1.1366 0.2216  0.995200000000001 0.3602  0.995200000000001 0.529599999999999  C 0.995200000000001 0.700399999999999  1.1366 0.8376  1.3102 0.8376  L 4.7052 0.8376  C 4.8788 0.8376  5.0202 0.699  5.0202 0.529599999999999  C 5.0202 0.3602  4.8788 0.2216  4.7052 0.2216  L 1.3102 0.2216  Z M 5.0202 2.0836  C 5.0202 1.9142  4.8788 1.7756  4.7052 1.7756  L 1.3102 1.7756  C 1.1366 1.7756  0.995200000000001 1.9142  0.995200000000001 2.0836  C 0.995200000000001 2.253  1.1366 2.3916  1.3102 2.3916  L 4.7052 2.3916  C 4.8788 2.3916  5.0202 2.253  5.0202 2.0836  Z M 5.0202 3.6376  C 5.0202 3.4682  4.8788 3.3296  4.7052 3.3296  L 1.3102 3.3296  C 1.1366 3.3296  0.995200000000001 3.4682  0.995200000000001 3.6376  C 0.995200000000001 3.807  1.1366 3.9456  1.3102 3.9456  L 4.7052 3.9456  C 4.8788 3.9456  5.0202 3.807  5.0202 3.6376  Z " fill-rule="nonzero" fill="#515a6e" stroke="none" transform="matrix(1 0 0 1 141 889 )" />
  </g>
</svg>