<svg width="152" height="36" viewBox="0 0 152 36" fill="none" xmlns="http://www.w3.org/2000/svg">
<rect width="152" height="36" rx="6" fill="#F0F5F7"/>
<path d="M40.228 21.432C39.234 21.936 38.072 22.328 36.756 22.622L36.882 23.602C38.128 23.294 39.248 22.874 40.228 22.356V21.432ZM38.8 11.534C38.296 13.158 37.68 14.586 36.98 15.846C36.868 16.028 36.728 16.154 36.574 16.21L36.826 17.12C37.568 17.008 38.31 16.882 39.052 16.728C38.338 18.016 37.736 18.926 37.232 19.458C37.106 19.57 36.952 19.668 36.77 19.738L37.05 20.648C38.198 20.48 39.388 20.186 40.648 19.766V18.87C39.836 19.15 39.038 19.388 38.226 19.556C38.982 18.604 39.962 16.994 41.138 14.726L40.256 14.404C40.004 14.908 39.752 15.384 39.528 15.832C38.94 15.958 38.338 16.056 37.736 16.14C38.408 15.09 39.08 13.676 39.738 11.898L38.8 11.534ZM47.956 24.358C48.586 24.358 48.908 24.022 48.908 23.378V17.75H42.51V24.414H43.336V21.292H44.442V24.162H45.184V21.292H46.206V24.162H46.948V21.292H48.068V23.182C48.068 23.462 47.942 23.602 47.69 23.602L47.13 23.574L47.354 24.358H47.956ZM43.336 20.452V18.618H44.442V20.452H43.336ZM45.184 18.618H46.206V20.452H45.184V18.618ZM46.948 18.618H48.068V20.452H46.948V18.618ZM47.928 13.872V15.664H42.468V13.872H47.928ZM42.468 16.532H48.852V12.976H45.702C45.534 12.416 45.352 11.926 45.17 11.492L44.12 11.66C44.344 12.052 44.54 12.5 44.722 12.976H41.53V16.378C41.516 19.388 40.956 21.838 39.836 23.742L40.564 24.386C41.796 22.202 42.426 19.584 42.468 16.532ZM53.36 15.44V17.526H51.904C52.254 16.644 52.59 15.622 52.898 14.474H56.076V13.522H53.136C53.262 12.934 53.388 12.332 53.514 11.688L52.562 11.548C52.422 12.248 52.296 12.906 52.156 13.522H50.714V14.474H51.932C51.596 15.72 51.246 16.756 50.882 17.568L51.106 18.436H53.36V20.55C52.506 20.69 51.596 20.83 50.63 20.942L50.756 21.908C51.652 21.796 52.52 21.656 53.36 21.516V24.414H54.34V21.32C54.956 21.194 55.544 21.054 56.104 20.914V19.99C55.558 20.116 54.97 20.242 54.34 20.368V18.436H55.894V17.526H54.34V15.44H53.36ZM57 12.094V15.02H62.544V12.094H57ZM61.578 14.25H57.966V12.906H61.578V14.25ZM57.112 16.77V22.384L55.768 22.496L55.894 23.392C57.854 23.224 59.66 23.028 61.34 22.776V24.428H62.306V22.636L63.482 22.426V21.558C63.104 21.614 62.712 21.684 62.306 21.754V16.77H63.342V15.874H56.104V16.77H57.112ZM61.34 16.77V18.002H58.064V16.77H61.34ZM58.064 22.286V20.872H61.34V21.894C60.318 22.034 59.226 22.16 58.064 22.286ZM58.064 20.046V18.828H61.34V20.046H58.064Z" fill="#1B91BB"/>
<path d="M32 10H16V26H32V10Z" fill="white" fill-opacity="0.01"/>
<path d="M18.334 24H30.334" stroke="#1B91BB" stroke-width="1.4" stroke-linecap="round" stroke-linejoin="round"/>
<path d="M19.668 18.9066V21.3333H22.107L29.0013 14.436L26.5663 12L19.668 18.9066Z" stroke="#1B91BB" stroke-width="1.4" stroke-linejoin="round"/>
<path d="M117.688 12.85V21.544H118.57V12.85H117.688ZM119.648 24.288C120.432 24.288 120.838 23.84 120.838 22.972V11.618H119.914V22.748C119.914 23.21 119.718 23.448 119.326 23.448C118.808 23.448 118.262 23.42 117.702 23.392L117.912 24.288H119.648ZM108.686 17.176V18.086H109.54C109.512 20.354 109.19 22.216 108.574 23.7L109.288 24.344C109.988 22.748 110.366 20.662 110.408 18.086H111.626V23.042C111.626 23.364 111.472 23.532 111.164 23.532C110.926 23.532 110.674 23.518 110.394 23.49L110.618 24.33H111.444C112.144 24.33 112.494 23.994 112.494 23.336V18.086H113.488V18.352C113.474 20.508 113.25 22.3 112.816 23.714L113.516 24.344C114.048 22.804 114.328 20.774 114.342 18.282V18.086H115.546V23.07C115.546 23.378 115.42 23.546 115.182 23.546C114.944 23.546 114.692 23.532 114.44 23.504L114.664 24.344H115.448C116.092 24.344 116.428 24.008 116.428 23.364V18.086H117.198V17.176H116.428V12.108H113.488V17.176H112.494V12.108H109.54V17.176H108.686ZM115.546 17.176H114.342V12.976H115.546V17.176ZM111.626 17.176H110.408V12.976H111.626V17.176ZM123.148 12.122V24.414H124.128V13.074H126.102C125.78 14.25 125.346 15.58 124.786 17.05C125.626 18.212 126.046 19.262 126.046 20.2C126.046 20.508 125.962 20.718 125.822 20.844C125.682 20.97 125.388 21.04 124.954 21.068C124.814 21.068 124.632 21.04 124.408 21.012L124.744 22.034C125.654 22.034 126.298 21.852 126.662 21.516C126.914 21.25 127.054 20.816 127.054 20.2C126.998 19.22 126.578 18.114 125.794 16.896C126.312 15.524 126.76 14.194 127.124 12.92V12.122H123.148ZM130.708 24.26C131.408 24.26 131.772 23.868 131.772 23.098V18.926H134.908V17.946H131.772V16.294H133.48V15.356H128.888V16.294H130.736V17.946H127.46V18.926H130.736V22.846C130.736 23.168 130.61 23.336 130.358 23.336C129.938 23.336 129.49 23.308 129.028 23.28L129.252 24.26H130.708ZM130.75 11.772C129.77 13.27 128.496 14.502 126.928 15.468L127.502 16.322C128.958 15.426 130.204 14.222 131.24 12.738C132.164 14.194 133.382 15.356 134.908 16.238L135.496 15.384C133.83 14.418 132.57 13.214 131.73 11.772H130.75ZM133.382 19.878L132.598 20.354C133.298 21.502 133.858 22.538 134.264 23.476L135.104 22.902C134.698 22.034 134.124 21.026 133.382 19.878ZM128.748 19.948C128.216 21.124 127.572 22.132 126.844 22.972L127.67 23.56C128.412 22.664 129.056 21.6 129.616 20.382L128.748 19.948Z" fill="#1B91BB"/>
<path d="M88 10H104V26H88V10Z" fill="white" fill-opacity="0.01"/>
<path d="M90.9961 13.3315V24.6649H100.996V13.3315H90.9961Z" stroke="#1B91BB" stroke-width="1.3" stroke-linejoin="round"/>
<path d="M94.6641 16.6653V20.9986" stroke="#1B91BB" stroke-width="1.3" stroke-linecap="round" stroke-linejoin="round"/>
<path d="M97.3301 16.6653V20.9986" stroke="#1B91BB" stroke-width="1.3" stroke-linecap="round" stroke-linejoin="round"/>
<path d="M89.3301 13.3315H102.663" stroke="#1B91BB" stroke-width="1.3" stroke-linecap="round" stroke-linejoin="round"/>
<path d="M93.3301 13.3315L94.4264 11.3315H97.5891L98.6634 13.3315H93.3301Z" fill="white" stroke="#1B91BB" stroke-width="1.3" stroke-linejoin="round"/>
</svg>
