<svg width="18" height="18" viewBox="0 0 18 18" fill="none" xmlns="http://www.w3.org/2000/svg">
<g clip-path="url(#clip0)">
<path d="M15.6693 3.60007H11.7007L13.8648 1.85156C14.2946 1.5084 14.3801 0.860537 14.0533 0.41022C13.9825 0.304036 13.8903 0.213887 13.7825 0.1456C13.6747 0.0773135 13.5537 0.0324093 13.4275 0.0137902C13.3012 -0.00482886 13.1725 0.00325164 13.0496 0.0375094C12.9266 0.0717671 12.8122 0.13144 12.7138 0.212669L8.98532 3.22255L5.2564 0.212669C4.82653 -0.130488 4.24206 -0.0405062 3.9169 0.41022C3.60851 0.860946 3.6944 1.50881 4.10464 1.85156L6.28751 3.60007H2.30091C1.25345 3.60007 0.394531 4.51829 0.394531 5.65533V15.9447C0.394531 17.0797 1.25345 18 2.30091 18H15.6669C16.7143 18 17.5728 17.0814 17.5728 15.9447V5.65574C17.5753 4.52033 16.7156 3.60007 15.6693 3.60007ZM11.9915 11.3859L7.86832 14.3598C7.42209 14.6833 7.07894 14.467 7.07894 13.9091V7.72818C7.07894 7.1707 7.43845 6.95311 7.86832 7.27704L11.9915 10.2513C12.4369 10.5581 12.4369 11.0792 11.9915 11.3859Z" fill="#1B91BB"/>
</g>
<defs>
<clipPath id="clip0">
<rect width="18" height="18" fill="white"/>
</clipPath>
</defs>
</svg>
