<?xml version="1.0" encoding="utf-8"?>
<svg version="1.1" xmlns:xlink="http://www.w3.org/1999/xlink" width="10px" height="14px" preserveAspectRatio="xMidYMin meet" viewBox="1436 295  8 14" xmlns="http://www.w3.org/2000/svg">
  <path d="M 1417 304.5  L 1438 304.5  A 2 2 0 0 0 1440.5 302.5 A 2 2 0 0 1 1442.5 300.5 L 1453 300.5  A 5 5 0 0 1 1458.5 305.5 L 1458.5 310  " stroke-width="1" stroke="#ff3399" fill="none" />
  <path d="M 1419 301.5  A 3 3 0 0 0 1416 304.5 A 3 3 0 0 0 1419 307.5 A 3 3 0 0 0 1422 304.5 A 3 3 0 0 0 1419 301.5 Z " fill-rule="nonzero" fill="#ff3399" stroke="none" />
</svg>