<?xml version="1.0" encoding="utf-8"?>
<svg version="1.1" xmlns:xlink="http://www.w3.org/1999/xlink" width="28px" height="29px" xmlns="http://www.w3.org/2000/svg">
  <g transform="matrix(1 0 0 1 -216 -270 )">
    <path d="M 27.9303977272727 22.1559244791667  C 27.9767992424242 22.7915581597222  28 23.4429253472222  28 24.1100260416667  C 28 25.6204427083333  27.5160984848485 26.8130425347222  26.5482954545455 27.6878255208333  C 25.5804924242424 28.5626085069444  24.2945075757576 29  22.6903409090909 29  L 5.30965909090909 29  C 3.70549242424242 29  2.41950757575758 28.5626085069444  1.45170454545455 27.6878255208333  C 0.483901515151515 26.8130425347222  0 25.6204427083333  0 24.1100260416667  C 0 23.4429253472222  0.0232007575757576 22.7915581597222  0.0696022727272727 22.1559244791667  C 0.116003787878788 21.5202907986111  0.208806818181818 20.8343098958333  0.348011363636364 20.0979817708333  C 0.487215909090909 19.3616536458333  0.662878787878788 18.6788194444444  0.875 18.0494791666667  C 1.08712121212121 17.4201388888889  1.37215909090909 16.8065321180556  1.73011363636364 16.2086588541667  C 2.08806818181818 15.6107855902778  2.49905303030303 15.1010199652778  2.96306818181818 14.6793619791667  C 3.42708333333333 14.2577039930556  3.9938446969697 13.9210069444444  4.66335227272727 13.6692708333333  C 5.33285984848485 13.4175347222222  6.0719696969697 13.2916666666667  6.88068181818182 13.2916666666667  C 7 13.2916666666667  7.27840909090909 13.4269748263889  7.71590909090909 13.6975911458333  C 8.15340909090909 13.9682074652778  8.64725378787879 14.2702907986111  9.19744318181818 14.6038411458333  C 9.74763257575758 14.9373914930556  10.4635416666667 15.2394748263889  11.3451704545455 15.5100911458333  C 12.2267992424242 15.7807074652778  13.1117424242424 15.916015625  14 15.916015625  C 14.8882575757576 15.916015625  15.7732007575758 15.7807074652778  16.6548295454545 15.5100911458333  C 17.5364583333333 15.2394748263889  18.2523674242424 14.9373914930556  18.8025568181818 14.6038411458333  C 19.3527462121212 14.2702907986111  19.8465909090909 13.9682074652778  20.2840909090909 13.6975911458333  C 20.7215909090909 13.4269748263889  21 13.2916666666667  21.1193181818182 13.2916666666667  C 21.9280303030303 13.2916666666667  22.6671401515152 13.4175347222222  23.3366477272727 13.6692708333333  C 24.0061553030303 13.9210069444444  24.5729166666667 14.2577039930556  25.0369318181818 14.6793619791667  C 25.500946969697 15.1010199652778  25.9119318181818 15.6107855902778  26.2698863636364 16.2086588541667  C 26.6278409090909 16.8065321180556  26.9128787878788 17.4201388888889  27.125 18.0494791666667  C 27.3371212121212 18.6788194444444  27.5127840909091 19.3616536458333  27.6519886363636 20.0979817708333  C 27.7911931818182 20.8343098958333  27.8839962121212 21.5202907986111  27.9303977272727 22.1559244791667  Z M 19.3991477272727 2.1240234375  C 20.890625 3.5400390625  21.6363636363636 5.24869791666667  21.6363636363636 7.25  C 21.6363636363636 9.25130208333333  20.890625 10.9599609375  19.3991477272727 12.3759765625  C 17.9076704545455 13.7919921875  16.1079545454545 14.5  14 14.5  C 11.8920454545455 14.5  10.0923295454545 13.7919921875  8.60085227272727 12.3759765625  C 7.109375 10.9599609375  6.36363636363636 9.25130208333333  6.36363636363636 7.25  C 6.36363636363636 5.24869791666667  7.109375 3.5400390625  8.60085227272727 2.1240234375  C 10.0923295454545 0.7080078125  11.8920454545455 0  14 0  C 16.1079545454545 0  17.9076704545455 0.7080078125  19.3991477272727 2.1240234375  Z " fill-rule="nonzero" fill="#333333" stroke="none" transform="matrix(1 0 0 1 216 270 )" />
  </g>
</svg>