<?xml version="1.0" encoding="utf-8"?>
<svg version="1.1" xmlns:xlink="http://www.w3.org/1999/xlink" width="36px" height="36px" xmlns="http://www.w3.org/2000/svg">
  <g transform="matrix(1 0 0 1 -667 -871 )">
    <path d="M 18.0007481 36  C 13.1932107 36  8.67362405 34.1284892  5.2740574 30.7308673  C 1.87449075000001 27.3332453  0 22.8100687  0 17.9993298  C 0 13.1885909  1.87331807999999 8.66801377  5.27288472999999 5.26913274  C 8.67245137999998 1.87025172  13.1912292 0  17.9995754 0  C 22.8079216 0  27.3266994 1.87151082  30.7258617 5.26913274  C 34.125024 8.66675467  36 13.1898906  36 17.9977458  C 36 22.805601  34.1270054 27.3304022  30.7259426 30.7292426  C 27.3248798 34.128083  22.8084068 36  18.0007885 36  Z M 29.3170276 6.68956941  C 26.2969784 3.66986322  22.2762989 2  18.0012367 2  C 13.7249585 2  9.70595642000001 3.66476279  6.68422980000003 6.68826269  C 3.66250319 9.7117626  2 13.7275697  2 18.0008009  C 2 22.2740321  3.66288061 26.2919468  6.68297173000002 29.3117373  C 9.70306284999998 32.3315278  13.7224843 34  18.0000206 34  C 22.2775569 34  26.2953009 32.3356587  29.3170276 29.3117373  C 32.3387542 26.2878159  34.0012574 22.2723881  34 17.999157  C 33.9987412 13.7259679  32.3370767 9.70927561000001  29.3170276 6.68956941  Z M 8 18  C 8 17.4477153  8.44771524999999 17  9 17  L 27 17  C 27.5522847 17  28 17.4477153  28 18  C 28 18.5522847  27.5522847 19  27 19  L 9 19  C 8.44771524999999 19  8 18.5522847  8 18  Z M 17 9  C 17 8.44771525  17.4477153 8  18 8  C 18.5522847 8  19 8.44771525  19 9  L 19 27  C 19 27.5522847  18.5522847 28  18 28  C 17.4477153 28  17 27.5522847  17 27  L 17 9  Z " fill-rule="nonzero" fill="#409eff" stroke="none" transform="matrix(1 0 0 1 667 871 )" />
  </g>
</svg>