<?xml version="1.0" encoding="utf-8"?>
<svg version="1.1" xmlns:xlink="http://www.w3.org/1999/xlink" width="1120px" height="160px" xmlns="http://www.w3.org/2000/svg">
  <g transform="matrix(1 0 0 1 -233 -809 )">
    <path d="M 234 813  A 3 3 0 0 1 237 810 L 1349 810  A 3 3 0 0 1 1352 813 L 1352 965  A 3 3 0 0 1 1349 968 L 237 968  A 3 3 0 0 1 234 965 L 234 813  Z " fill-rule="nonzero" fill="#edf5ff" stroke="none" />
    <path d="M 233.5 813  A 3.5 3.5 0 0 1 237 809.5 L 1349 809.5  A 3.5 3.5 0 0 1 1352.5 813 L 1352.5 965  A 3.5 3.5 0 0 1 1349 968.5 L 237 968.5  A 3.5 3.5 0 0 1 233.5 965 L 233.5 813  Z " stroke-width="1" stroke-dasharray="9,4" stroke="#409eff" fill="none" stroke-dashoffset="0.5" />
  </g>
</svg>