<?xml version="1.0" encoding="utf-8"?>
<svg version="1.1" xmlns:xlink="http://www.w3.org/1999/xlink" width="215px" height="160px" xmlns="http://www.w3.org/2000/svg">
  <g transform="matrix(1 0 0 1 -80 -650 )">
    <path d="M 80 650  L 295 650  L 295 810  L 80 810  L 80 650  " fill-rule="nonzero" fill="#cccccc" stroke="none" />
    <path d="M 91 661  L 284 661  L 284 799  L 91 799  L 91 661  " fill-rule="nonzero" fill="#ffffff" stroke="none" />
    <path d="M 203.8 698  C 197.08 698  191.8 692.72  191.8 686  C 191.8 679.28  197.08 674  203.8 674  C 210.52 674  215.8 679.28  215.8 686  C 215.8 692.72  210.52 698  203.8 698  " fill-rule="nonzero" fill="#cccccc" stroke="none" />
    <path d="M 95 795  L 95 723.5  L 141.25 691  L 206 736.953488372093  L 243 710.5  L 280 736.953488372093  L 280 795  L 95 795  " fill-rule="nonzero" fill="#808080" stroke="none" />
  </g>
</svg>