<?xml version="1.0" encoding="utf-8"?>
<svg version="1.1" xmlns:xlink="http://www.w3.org/1999/xlink" width="350px" height="504px" xmlns="http://www.w3.org/2000/svg">
  <g transform="matrix(1 0 0 1 -146 -100 )">
    <path d="M 146 100  L 496 100  L 496 604  L 146 604  L 146 100  " fill-rule="nonzero" fill="#cccccc" stroke="none" />
    <path d="M 171 125  L 471 125  L 471 579  L 171 579  L 171 125  " fill-rule="nonzero" fill="#ffffff" stroke="none" />
    <path d="M 354.25 228.1  C 339.55 228.1  328 216.55  328 201.85  C 328 187.15  339.55 175.6  354.25 175.6  C 368.95 175.6  380.5 187.15  380.5 201.85  C 380.5 216.55  368.95 228.1  354.25 228.1  " fill-rule="nonzero" fill="#cccccc" stroke="none" />
    <path d="M 180 570  L 180 330.2  L 250.5 221.2  L 349.2 308.4  L 405.6 286.6  L 462 308.4  L 462 570  L 180 570  " fill-rule="nonzero" fill="#169bd5" stroke="none" />
  </g>
</svg>