<?xml version="1.0" encoding="utf-8"?>
<svg version="1.1" xmlns:xlink="http://www.w3.org/1999/xlink" width="12px" height="12px" viewBox="424 599  12 12" xmlns="http://www.w3.org/2000/svg">
  <path d="M 430 599  C 433.36 599  436 601.64  436 605  C 436 608.36  433.36 611  430 611  C 426.64 611  424 608.36  424 605  C 424 601.64  426.64 599  430 599  Z " fill-rule="nonzero" fill="#f0f0f0" stroke="none" />
  <path d="M 430 599.5  C 433.08 599.5  435.5 601.92  435.5 605  C 435.5 608.08  433.08 610.5  430 610.5  C 426.92 610.5  424.5 608.08  424.5 605  C 424.5 601.92  426.92 599.5  430 599.5  Z " stroke-width="1" stroke="#797979" fill="none" />
  <path d="M 430 608  C 428.32 608  427 606.68  427 605  C 427 603.32  428.32 602  430 602  C 431.68 602  433 603.32  433 605  C 433 606.68  431.68 608  430 608  " fill-rule="nonzero" fill="#797979" stroke="none" />
</svg>