<?xml version="1.0" encoding="utf-8"?>
<svg version="1.1" xmlns:xlink="http://www.w3.org/1999/xlink" width="12px" height="12px" viewBox="556 1223  12 12" xmlns="http://www.w3.org/2000/svg">
  <path d="M 562 1223  C 565.36 1223  568 1225.64  568 1229  C 568 1232.36  565.36 1235  562 1235  C 558.64 1235  556 1232.36  556 1229  C 556 1225.64  558.64 1223  562 1223  Z " fill-rule="nonzero" fill="#ffffff" stroke="none" />
  <path d="M 562 1223.5  C 565.08 1223.5  567.5 1225.92  567.5 1229  C 567.5 1232.08  565.08 1234.5  562 1234.5  C 558.92 1234.5  556.5 1232.08  556.5 1229  C 556.5 1225.92  558.92 1223.5  562 1223.5  Z " stroke-width="1" stroke="#797979" fill="none" />
  <path d="M 562 1232  C 560.32 1232  559 1230.68  559 1229  C 559 1227.32  560.32 1226  562 1226  C 563.68 1226  565 1227.32  565 1229  C 565 1230.68  563.68 1232  562 1232  " fill-rule="nonzero" fill="#797979" stroke="none" />
</svg>