<?xml version="1.0" encoding="utf-8"?>
<svg version="1.1" xmlns:xlink="http://www.w3.org/1999/xlink" width="12px" height="12px" viewBox="755 1192  12 12" xmlns="http://www.w3.org/2000/svg">
  <path d="M 761 1192  C 764.36 1192  767 1194.64  767 1198  C 767 1201.36  764.36 1204  761 1204  C 757.64 1204  755 1201.36  755 1198  C 755 1194.64  757.64 1192  761 1192  Z " fill-rule="nonzero" fill="#f0f0f0" stroke="none" />
  <path d="M 761 1192.5  C 764.08 1192.5  766.5 1194.92  766.5 1198  C 766.5 1201.08  764.08 1203.5  761 1203.5  C 757.92 1203.5  755.5 1201.08  755.5 1198  C 755.5 1194.92  757.92 1192.5  761 1192.5  Z " stroke-width="1" stroke="#797979" fill="none" />
  <path d="M 761 1201  C 759.32 1201  758 1199.68  758 1198  C 758 1196.32  759.32 1195  761 1195  C 762.68 1195  764 1196.32  764 1198  C 764 1199.68  762.68 1201  761 1201  " fill-rule="nonzero" fill="#797979" stroke="none" />
</svg>