<?xml version="1.0" encoding="utf-8"?>
<svg version="1.1" xmlns:xlink="http://www.w3.org/1999/xlink" width="12px" height="12px" viewBox="556 1163  12 12" xmlns="http://www.w3.org/2000/svg">
  <path d="M 562 1163  C 565.36 1163  568 1165.64  568 1169  C 568 1172.36  565.36 1175  562 1175  C 558.64 1175  556 1172.36  556 1169  C 556 1165.64  558.64 1163  562 1163  Z " fill-rule="nonzero" fill="#ffffff" stroke="none" />
  <path d="M 562 1163.5  C 565.08 1163.5  567.5 1165.92  567.5 1169  C 567.5 1172.08  565.08 1174.5  562 1174.5  C 558.92 1174.5  556.5 1172.08  556.5 1169  C 556.5 1165.92  558.92 1163.5  562 1163.5  Z " stroke-width="1" stroke="#797979" fill="none" />
  <path d="M 562 1172  C 560.32 1172  559 1170.68  559 1169  C 559 1167.32  560.32 1166  562 1166  C 563.68 1166  565 1167.32  565 1169  C 565 1170.68  563.68 1172  562 1172  " fill-rule="nonzero" fill="#797979" stroke="none" />
</svg>