<?xml version="1.0" encoding="utf-8"?>
<svg version="1.1" xmlns:xlink="http://www.w3.org/1999/xlink" width="12px" height="12px" viewBox="414 2123  12 12" xmlns="http://www.w3.org/2000/svg">
  <path d="M 420 2123  C 423.36 2123  426 2125.64  426 2129  C 426 2132.36  423.36 2135  420 2135  C 416.64 2135  414 2132.36  414 2129  C 414 2125.64  416.64 2123  420 2123  Z " fill-rule="nonzero" fill="#ffffff" stroke="none" />
  <path d="M 420 2123.5  C 423.08 2123.5  425.5 2125.92  425.5 2129  C 425.5 2132.08  423.08 2134.5  420 2134.5  C 416.92 2134.5  414.5 2132.08  414.5 2129  C 414.5 2125.92  416.92 2123.5  420 2123.5  Z " stroke-width="1" stroke="#797979" fill="none" />
  <path d="M 420 2132  C 418.32 2132  417 2130.68  417 2129  C 417 2127.32  418.32 2126  420 2126  C 421.68 2126  423 2127.32  423 2129  C 423 2130.68  421.68 2132  420 2132  " fill-rule="nonzero" fill="#797979" stroke="none" />
</svg>