<?xml version="1.0" encoding="utf-8"?>
<svg version="1.1" xmlns:xlink="http://www.w3.org/1999/xlink" width="680px" height="170px" xmlns="http://www.w3.org/2000/svg">
  <g transform="matrix(1 0 0 1 -374 -183 )">
    <path d="M 374 183  L 1054 183  L 1054 353  L 374 353  L 374 183  " fill-rule="nonzero" fill="#cccccc" stroke="none" />
    <path d="M 386 195  L 1042 195  L 1042 341  L 386 341  L 386 195  " fill-rule="nonzero" fill="#ffffff" stroke="none" />
    <path d="M 740.35 234  C 733.21 234  727.6 228.39  727.6 221.25  C 727.6 214.11  733.21 208.5  740.35 208.5  C 747.49 208.5  753.1 214.11  753.1 221.25  C 753.1 228.39  747.49 234  740.35 234  " fill-rule="nonzero" fill="#cccccc" stroke="none" />
    <path d="M 391 337  L 391 261.65  L 552.75 227.4  L 779.2 316.45  L 908.6 247.95  L 1038 316.45  L 1038 337  L 391 337  " fill-rule="nonzero" fill="#169bd5" stroke="none" />
  </g>
</svg>