<?xml version="1.0" encoding="utf-8"?>
<svg version="1.1" xmlns:xlink="http://www.w3.org/1999/xlink" width="12px" height="12px" viewBox="657 1164  12 12" xmlns="http://www.w3.org/2000/svg">
  <path d="M 663 1164  C 666.36 1164  669 1166.64  669 1170  C 669 1173.36  666.36 1176  663 1176  C 659.64 1176  657 1173.36  657 1170  C 657 1166.64  659.64 1164  663 1164  Z " fill-rule="nonzero" fill="#ffffff" stroke="none" />
  <path d="M 663 1164.5  C 666.08 1164.5  668.5 1166.92  668.5 1170  C 668.5 1173.08  666.08 1175.5  663 1175.5  C 659.92 1175.5  657.5 1173.08  657.5 1170  C 657.5 1166.92  659.92 1164.5  663 1164.5  Z " stroke-width="1" stroke="#797979" fill="none" />
  <path d="M 663 1173  C 661.32 1173  660 1171.68  660 1170  C 660 1168.32  661.32 1167  663 1167  C 664.68 1167  666 1168.32  666 1170  C 666 1171.68  664.68 1173  663 1173  " fill-rule="nonzero" fill="#797979" stroke="none" />
</svg>