<?xml version="1.0" encoding="utf-8"?>
<svg version="1.1" xmlns:xlink="http://www.w3.org/1999/xlink" width="12px" height="12px" viewBox="418 2336  12 12" xmlns="http://www.w3.org/2000/svg">
  <path d="M 424 2336  C 427.36 2336  430 2338.64  430 2342  C 430 2345.36  427.36 2348  424 2348  C 420.64 2348  418 2345.36  418 2342  C 418 2338.64  420.64 2336  424 2336  Z " fill-rule="nonzero" fill="#ffffff" stroke="none" />
  <path d="M 424 2336.5  C 427.08 2336.5  429.5 2338.92  429.5 2342  C 429.5 2345.08  427.08 2347.5  424 2347.5  C 420.92 2347.5  418.5 2345.08  418.5 2342  C 418.5 2338.92  420.92 2336.5  424 2336.5  Z " stroke-width="1" stroke="#797979" fill="none" />
  <path d="M 424 2345  C 422.32 2345  421 2343.68  421 2342  C 421 2340.32  422.32 2339  424 2339  C 425.68 2339  427 2340.32  427 2342  C 427 2343.68  425.68 2345  424 2345  " fill-rule="nonzero" fill="#797979" stroke="none" />
</svg>