<?xml version="1.0" encoding="utf-8"?>
<svg version="1.1" xmlns:xlink="http://www.w3.org/1999/xlink" width="12px" height="12px" viewBox="556 1192  12 12" xmlns="http://www.w3.org/2000/svg">
  <path d="M 562 1192  C 565.36 1192  568 1194.64  568 1198  C 568 1201.36  565.36 1204  562 1204  C 558.64 1204  556 1201.36  556 1198  C 556 1194.64  558.64 1192  562 1192  Z " fill-rule="nonzero" fill="#ffffff" stroke="none" />
  <path d="M 562 1192.5  C 565.08 1192.5  567.5 1194.92  567.5 1198  C 567.5 1201.08  565.08 1203.5  562 1203.5  C 558.92 1203.5  556.5 1201.08  556.5 1198  C 556.5 1194.92  558.92 1192.5  562 1192.5  Z " stroke-width="1" stroke="#797979" fill="none" />
  <path d="M 562 1201  C 560.32 1201  559 1199.68  559 1198  C 559 1196.32  560.32 1195  562 1195  C 563.68 1195  565 1196.32  565 1198  C 565 1199.68  563.68 1201  562 1201  " fill-rule="nonzero" fill="#797979" stroke="none" />
</svg>