<?xml version="1.0" encoding="utf-8"?>
<svg version="1.1" xmlns:xlink="http://www.w3.org/1999/xlink" width="12px" height="12px" viewBox="657 1223  12 12" xmlns="http://www.w3.org/2000/svg">
  <path d="M 663 1223  C 666.36 1223  669 1225.64  669 1229  C 669 1232.36  666.36 1235  663 1235  C 659.64 1235  657 1232.36  657 1229  C 657 1225.64  659.64 1223  663 1223  Z " fill-rule="nonzero" fill="#f0f0f0" stroke="none" />
  <path d="M 663 1223.5  C 666.08 1223.5  668.5 1225.92  668.5 1229  C 668.5 1232.08  666.08 1234.5  663 1234.5  C 659.92 1234.5  657.5 1232.08  657.5 1229  C 657.5 1225.92  659.92 1223.5  663 1223.5  Z " stroke-width="1" stroke="#797979" fill="none" />
  <path d="M 663 1232  C 661.32 1232  660 1230.68  660 1229  C 660 1227.32  661.32 1226  663 1226  C 664.68 1226  666 1227.32  666 1229  C 666 1230.68  664.68 1232  663 1232  " fill-rule="nonzero" fill="#797979" stroke="none" />
</svg>