<?xml version="1.0" encoding="utf-8"?>
<svg version="1.1" xmlns:xlink="http://www.w3.org/1999/xlink" width="12px" height="12px" viewBox="418 2588  12 12" xmlns="http://www.w3.org/2000/svg">
  <path d="M 424 2588  C 427.36 2588  430 2590.64  430 2594  C 430 2597.36  427.36 2600  424 2600  C 420.64 2600  418 2597.36  418 2594  C 418 2590.64  420.64 2588  424 2588  Z " fill-rule="nonzero" fill="#ffffff" stroke="none" />
  <path d="M 424 2588.5  C 427.08 2588.5  429.5 2590.92  429.5 2594  C 429.5 2597.08  427.08 2599.5  424 2599.5  C 420.92 2599.5  418.5 2597.08  418.5 2594  C 418.5 2590.92  420.92 2588.5  424 2588.5  Z " stroke-width="1" stroke="#797979" fill="none" />
  <path d="M 424 2597  C 422.32 2597  421 2595.68  421 2594  C 421 2592.32  422.32 2591  424 2591  C 425.68 2591  427 2592.32  427 2594  C 427 2595.68  425.68 2597  424 2597  " fill-rule="nonzero" fill="#797979" stroke="none" />
</svg>