<?xml version="1.0" encoding="utf-8"?>
<svg version="1.1" xmlns:xlink="http://www.w3.org/1999/xlink" width="30px" height="18px" xmlns="http://www.w3.org/2000/svg">
  <g transform="matrix(1 0 0 1 -428 -2832 )">
    <path d="M 30 0.19133858267719  C 30 0.0637795275590634  29.8413461538462 0.007086614173204  29.7548076923076 0.0921259842518793  L 21.9951923076924 7.85905511811029  C 21.9375 7.91574803149615  21.9375 8.00078740157483  21.9951923076924 8.05748031496069  L 27.4254807692307 13.7409448818898  C 27.7932692307693 14.1023622047244  27.7932692307693 14.6834645669292  27.4254807692307 15.0448818897637  C 27.2451923076924 15.2220472440945  27 15.3141732283464  26.7620192307693 15.3141732283464  C 26.5240384615386 15.3141732283464  26.2788461538462 15.2220472440945  26.0985576923076 15.0448818897637  L 20.6899038461538 9.38267716535438  C 20.6322115384614 9.32598425196852  20.5384615384614 9.32598425196852  20.4807692307693 9.38267716535438  L 19.1610576923076 10.7007874015749  C 18.0576923076924 11.7992125984251  16.59375 12.4086614173229  15.0216346153845 12.4157480314962  C 13.4278846153845 12.4228346456694  11.9134615384614 11.7637795275591  10.7956730769231 10.6511811023622  L 9.52644230769238 9.38267716535438  C 9.46875 9.32598425196852  9.375 9.32598425196852  9.31730769230762 9.38267716535438  L 3.90865384615381 15.0448818897637  C 3.72836538461547 15.2220472440945  3.48317307692309 15.3141732283464  3.24519230769238 15.3141732283464  C 3.00721153846143 15.3141732283464  2.76201923076928 15.2220472440945  2.58173076923072 15.0448818897637  C 2.21394230769238 14.6834645669292  2.21394230769238 14.1023622047244  2.58173076923072 13.7409448818898  L 8.01201923076928 8.05748031496069  C 8.0625 8.00078740157483  8.0625 7.91574803149615  8.01201923076928 7.85905511811029  L 0.245192307692378 0.0921259842518793  C 0.151442307692378 0  0 0.0637795275590634  0 0.19133858267719  L 0 15.732283464567  C 0 16.9795275590552  1.03846153846143 18  2.30769230769238 18  L 27.6923076923076 18  C 28.9615384615386 18  30 16.9795275590552  30 15.732283464567  L 30 0.19133858267719  Z " fill-rule="nonzero" fill="#606266" stroke="none" transform="matrix(1 0 0 1 428 2832 )" />
  </g>
</svg>