<?xml version="1.0" encoding="utf-8"?>
<svg version="1.1" xmlns:xlink="http://www.w3.org/1999/xlink" width="40px" height="42px" xmlns="http://www.w3.org/2000/svg">
  <g transform="matrix(1 0 0 1 -509 -1576 )">
    <path d="M 39.4197753982301 17.0633552152778  C 39.661067300885 16.8048851736111  39.7479125221239 16.4184236319444  39.6437707079646 16.0662855208334  C 39.5395836283186 15.7141971388889  39.2625665044248 15.4575178333333  38.9289958407079 15.4042419513888  L 26.2978655752213 13.3879663263889  L 20.6492153982301 0.813515791666617  C 20.500066238938 0.48152397222222  20.192259380531 0.271355388888932  19.8552475221239 0.271355388888932  C 19.5182356637168 0.271355388888932  19.210428761062 0.481573750000088  19.0612796460176 0.813515791666617  L 13.4124935840707 13.3879662777778  L 0.781408628318612 15.4042419027777  C 0.447928539822977 15.4575177847223  0.170820840707941 15.7141970902777  0.0666790707964537 16.0662854722222  C -0.0374626991150335 16.4183738541667  0.0493824778761657 16.804885125  0.290719734513299 17.0633552152778  L 9.43065526548674 26.8511937361112  L 7.27301867256636 40.6717327430555  C 7.21605765486729 41.0366550902779  7.35257393805308 41.40540775  7.62519902654871 41.6230379930556  C 7.89782411504421 41.8407676944444  8.25924137168138 41.8692212847223  8.55758491150442 41.6971068888889  L 19.8552475663717 35.1719309375  L 31.1528196902656 41.6971068888889  C 31.2823177433629 41.7718721875  31.4237694247787 41.8088320416667  31.5647230530973 41.8088320416667  C 31.7482842477877 41.8088320416667  31.9309851769911 41.7461545277779  32.0852055752212 41.6230379930556  C 32.3578306637168 41.40540775  32.4944374778761 41.0367048680556  32.4374311946903 40.6717327430555  L 30.2798398672566 26.8511937361112  L 39.4197753982301 17.0633552152778  Z M 36.8991819911505 17.0460443611111  L 28.7104684513274 25.8150749305556  C 28.5018226548672 26.0385749652778  28.4066461061947 26.3604687013889  28.4558644247788 26.6760449861111  L 30.388962300885 39.0581352777778  L 20.267241460177 33.2121148333333  C 20.1382415044248 33.1376480069444  19.996789778761 33.1003896805555  19.8552475221239 33.1003896805555  C 19.8474142477876 33.1003896805555  19.8395809734513 33.1009368472222  20 33.1011855902778  L 20 3.49407347916661  L 19.8552475221239 3.44179247222224  L 24.9159947345133 14.7074770208333  C 25.0449946902655 14.9945002083334  25.2942557964602 15.1935261527777  25.5826832300885 15.2395891180556  L 36.8991819911505 17.0460443611111  Z " fill-rule="nonzero" fill="#ff9900" stroke="none" transform="matrix(1 0 0 1 509 1576 )" />
  </g>
</svg>