<?xml version="1.0" encoding="utf-8"?>
<svg version="1.1" xmlns:xlink="http://www.w3.org/1999/xlink" width="12px" height="12px" viewBox="418 2389  12 12" xmlns="http://www.w3.org/2000/svg">
  <path d="M 424 2389  C 427.36 2389  430 2391.64  430 2395  C 430 2398.36  427.36 2401  424 2401  C 420.64 2401  418 2398.36  418 2395  C 418 2391.64  420.64 2389  424 2389  Z " fill-rule="nonzero" fill="#f0f0f0" stroke="none" />
  <path d="M 424 2389.5  C 427.08 2389.5  429.5 2391.92  429.5 2395  C 429.5 2398.08  427.08 2400.5  424 2400.5  C 420.92 2400.5  418.5 2398.08  418.5 2395  C 418.5 2391.92  420.92 2389.5  424 2389.5  Z " stroke-width="1" stroke="#797979" fill="none" />
  <path d="M 424 2398  C 422.32 2398  421 2396.68  421 2395  C 421 2393.32  422.32 2392  424 2392  C 425.68 2392  427 2393.32  427 2395  C 427 2396.68  425.68 2398  424 2398  " fill-rule="nonzero" fill="#797979" stroke="none" />
</svg>