<?xml version="1.0" encoding="utf-8"?>
<svg version="1.1" xmlns:xlink="http://www.w3.org/1999/xlink" width="17px" height="17px" xmlns="http://www.w3.org/2000/svg">
  <g transform="matrix(1 0 0 1 -437 -3505 )">
    <path d="M 16.9503649635037 6.40394265232976  C 16.9503649635037 4.6856630824373  16.2616788321167 3.07706093189968  15.033211678832 1.87060931899639  C 13.8047445255474 0.664157706093198  12.1667883211679 0  10.4233576642336 0  C 8.67992700729931 0  7.03576642335767 0.664157706093198  5.807299270073 1.87060931899639  L 1.85510948905104 5.75197132616483  C 1.25328467153294 6.3430107526882  1.6317518248176 7.35448028673836  2.4817518248176 7.4215053763441  C 2.77335766423363 7.44587813620074  3.05875912408763 7.34229390680999  3.26970802919703 7.14121863799287  L 7.22810218978101 3.26594982078852  C 8.07810218978101 2.43118279569894  9.21350364963502 1.97419354838714  10.4233576642336 1.97419354838714  C 11.633211678832 1.97419354838714  12.7686131386861 2.43118279569894  13.6186131386861 3.26594982078852  C 14.4686131386861 4.10071684587811  14.9339416058394 5.21577060931902  14.9339416058394 6.40394265232976  C 14.9339416058394 7.59211469534049  14.4686131386861 8.7071684587814  13.6186131386861 9.54193548387099  L 9.36240875912404 13.7218637992831  C 9.14525547445262 13.9351254480287  8.90948905109495 14.1240143369175  8.65510948905104 14.2885304659498  C 8.36970802919703 14.4713261648746  8.05948905109495 14.6297491039426  7.73686131386864 14.7455197132616  C 7.4390510948906 14.8551971326165  7.12262773722631 14.9283154121864  6.80620437956202 14.9709677419355  C 6.59525547445262 15.0014336917563  6.37810218978101 15.0136200716846  6.17335766423363 15.0136200716846  C 6.08649635036499 15.0136200716846  5.99343065693432 15.0075268817204  5.88795620437962 15.0014336917563  C 4.78978102189773 14.9344086021506  3.7536496350364 14.4774193548387  2.98430656934303 13.7218637992831  C 2.53138686131395 13.2770609318997  2.19014598540139 12.746953405018  1.96678832116795 12.168100358423  C 1.78686131386864 11.6989247311828  1.27810218978101 11.4430107526882  0.781751824817604 11.5709677419355  C 0.229562043795647 11.7111111111112  -0.0930656934306626 12.283870967742  0.0806569343066258 12.8200716845878  C 0.359854014598614 13.6731182795699  0.831386861313945 14.3982078853047  1.55109489051098 15.105017921147  L 1.56350364963502 15.1172043010752  C 2.61204379562038 16.146953405018  4.00802919708032 16.7989247311828  5.49087591240871 16.9512544802867  C 5.72043795620435 16.9756272401434  5.95 16.9878136200717  6.17956204379565 16.9878136200717  C 6.34087591240871 16.9878136200717  6.50218978102196 16.9817204301075  6.66350364963501 16.9695340501792  C 7.06678832116795 16.9390681003584  7.47007299270069 16.8720430107527  7.8609489051094 16.7745519713261  C 8.27664233576637 16.6648745519713  8.68613138686133 16.5186379928316  9.07080291970801 16.3297491039426  C 9.70985401459861 16.0189964157706  10.2868613138686 15.6168458781362  10.7894160583941 15.1172043010752  L 15.0456204379563 10.9372759856631  C 16.2740875912409 9.73082437275983  16.9503649635037 8.12222222222221  16.9503649635037 6.40394265232976  Z " fill-rule="nonzero" fill="#606266" stroke="none" transform="matrix(1 0 0 1 437 3505 )" />
  </g>
</svg>