<?xml version="1.0" encoding="utf-8"?>
<svg version="1.1" xmlns:xlink="http://www.w3.org/1999/xlink" width="12px" height="12px" viewBox="418 2641  12 12" xmlns="http://www.w3.org/2000/svg">
  <path d="M 424 2641  C 427.36 2641  430 2643.64  430 2647  C 430 2650.36  427.36 2653  424 2653  C 420.64 2653  418 2650.36  418 2647  C 418 2643.64  420.64 2641  424 2641  Z " fill-rule="nonzero" fill="#f0f0f0" stroke="none" />
  <path d="M 424 2641.5  C 427.08 2641.5  429.5 2643.92  429.5 2647  C 429.5 2650.08  427.08 2652.5  424 2652.5  C 420.92 2652.5  418.5 2650.08  418.5 2647  C 418.5 2643.92  420.92 2641.5  424 2641.5  Z " stroke-width="1" stroke="#797979" fill="none" />
  <path d="M 424 2650  C 422.32 2650  421 2648.68  421 2647  C 421 2645.32  422.32 2644  424 2644  C 425.68 2644  427 2645.32  427 2647  C 427 2648.68  425.68 2650  424 2650  " fill-rule="nonzero" fill="#797979" stroke="none" />
</svg>