<?xml version="1.0" encoding="utf-8"?>
<svg version="1.1" xmlns:xlink="http://www.w3.org/1999/xlink" width="12px" height="12px" viewBox="414 2176  12 12" xmlns="http://www.w3.org/2000/svg">
  <path d="M 420 2176  C 423.36 2176  426 2178.64  426 2182  C 426 2185.36  423.36 2188  420 2188  C 416.64 2188  414 2185.36  414 2182  C 414 2178.64  416.64 2176  420 2176  Z " fill-rule="nonzero" fill="#ffffff" stroke="none" />
  <path d="M 420 2176.5  C 423.08 2176.5  425.5 2178.92  425.5 2182  C 425.5 2185.08  423.08 2187.5  420 2187.5  C 416.92 2187.5  414.5 2185.08  414.5 2182  C 414.5 2178.92  416.92 2176.5  420 2176.5  Z " stroke-width="1" stroke="#797979" fill="none" />
  <path d="M 420 2185  C 418.32 2185  417 2183.68  417 2182  C 417 2180.32  418.32 2179  420 2179  C 421.68 2179  423 2180.32  423 2182  C 423 2183.68  421.68 2185  420 2185  " fill-rule="nonzero" fill="#797979" stroke="none" />
</svg>