<?xml version="1.0" encoding="utf-8"?>
<svg version="1.1" xmlns:xlink="http://www.w3.org/1999/xlink" width="12px" height="12px" viewBox="414 2150  12 12" xmlns="http://www.w3.org/2000/svg">
  <path d="M 420 2150  C 423.36 2150  426 2152.64  426 2156  C 426 2159.36  423.36 2162  420 2162  C 416.64 2162  414 2159.36  414 2156  C 414 2152.64  416.64 2150  420 2150  Z " fill-rule="nonzero" fill="#f0f0f0" stroke="none" />
  <path d="M 420 2150.5  C 423.08 2150.5  425.5 2152.92  425.5 2156  C 425.5 2159.08  423.08 2161.5  420 2161.5  C 416.92 2161.5  414.5 2159.08  414.5 2156  C 414.5 2152.92  416.92 2150.5  420 2150.5  Z " stroke-width="1" stroke="#797979" fill="none" />
  <path d="M 420 2159  C 418.32 2159  417 2157.68  417 2156  C 417 2154.32  418.32 2153  420 2153  C 421.68 2153  423 2154.32  423 2156  C 423 2157.68  421.68 2159  420 2159  " fill-rule="nonzero" fill="#797979" stroke="none" />
</svg>