<?xml version="1.0" encoding="utf-8"?>
<svg version="1.1" xmlns:xlink="http://www.w3.org/1999/xlink" width="12px" height="12px" viewBox="45 79  12 12" xmlns="http://www.w3.org/2000/svg">
  <path d="M 51 79  C 54.36 79  57 81.64  57 85  C 57 88.36  54.36 91  51 91  C 47.64 91  45 88.36  45 85  C 45 81.64  47.64 79  51 79  Z " fill-rule="nonzero" fill="#ffffff" stroke="none" />
  <path d="M 51 79.5  C 54.08 79.5  56.5 81.92  56.5 85  C 56.5 88.08  54.08 90.5  51 90.5  C 47.92 90.5  45.5 88.08  45.5 85  C 45.5 81.92  47.92 79.5  51 79.5  Z " stroke-width="1" stroke="#797979" fill="none" />
  <path d="M 51 88  C 49.32 88  48 86.68  48 85  C 48 83.32  49.32 82  51 82  C 52.68 82  54 83.32  54 85  C 54 86.68  52.68 88  51 88  " fill-rule="nonzero" fill="#797979" stroke="none" />
</svg>