<?xml version="1.0" encoding="utf-8"?>
<svg version="1.1" xmlns:xlink="http://www.w3.org/1999/xlink" width="12px" height="12px" viewBox="424 572  12 12" xmlns="http://www.w3.org/2000/svg">
  <path d="M 430 572  C 433.36 572  436 574.64  436 578  C 436 581.36  433.36 584  430 584  C 426.64 584  424 581.36  424 578  C 424 574.64  426.64 572  430 572  Z " fill-rule="nonzero" fill="#f0f0f0" stroke="none" />
  <path d="M 430 572.5  C 433.08 572.5  435.5 574.92  435.5 578  C 435.5 581.08  433.08 583.5  430 583.5  C 426.92 583.5  424.5 581.08  424.5 578  C 424.5 574.92  426.92 572.5  430 572.5  Z " stroke-width="1" stroke="#797979" fill="none" />
  <path d="M 430 581  C 428.32 581  427 579.68  427 578  C 427 576.32  428.32 575  430 575  C 431.68 575  433 576.32  433 578  C 433 579.68  431.68 581  430 581  " fill-rule="nonzero" fill="#797979" stroke="none" />
</svg>