<?xml version="1.0" encoding="utf-8"?>
<svg version="1.1" xmlns:xlink="http://www.w3.org/1999/xlink" width="9px" height="4px" xmlns="http://www.w3.org/2000/svg">
  <g transform="matrix(1 0 0 1 -1188 -77 )">
    <path d="M 7.16399999999999 3.94666666666672  L 7.16399999999999 2.36799999999994  L 8.94 2.36799999999994  L 8.94 3.94666666666672  L 7.16399999999999 3.94666666666672  Z M 3.61199999999999 1.57866666666666  L 3.61199999999999 0  L 5.38800000000001 0  L 5.38800000000001 1.57866666666666  L 3.61199999999999 1.57866666666666  Z M 7.16399999999999 1.57866666666666  L 7.16399999999999 0  L 8.94 0  L 8.94 1.57866666666666  L 7.16399999999999 1.57866666666666  Z M 0.0519999999999925 3.94666666666672  L 0.0519999999999925 2.36799999999994  L 1.828 2.36799999999994  L 1.828 3.94666666666672  L 0.0519999999999925 3.94666666666672  Z M 3.61199999999999 3.94666666666672  L 3.61199999999999 2.36799999999994  L 5.38800000000001 2.36799999999994  L 5.38800000000001 3.94666666666672  L 3.61199999999999 3.94666666666672  Z M 0.0519999999999925 1.57866666666666  L 0.0519999999999925 0  L 1.828 0  L 1.828 1.57866666666666  L 0.0519999999999925 1.57866666666666  Z " fill-rule="nonzero" fill="#303133" stroke="none" transform="matrix(1 0 0 1 1188 77 )" />
  </g>
</svg>