<?xml version="1.0" encoding="utf-8"?>
<svg version="1.1" xmlns:xlink="http://www.w3.org/1999/xlink" width="12px" height="12px" viewBox="1192 294  12 12" xmlns="http://www.w3.org/2000/svg">
  <path d="M 1198 294  C 1201.36 294  1204 296.64  1204 300  C 1204 303.36  1201.36 306  1198 306  C 1194.64 306  1192 303.36  1192 300  C 1192 296.64  1194.64 294  1198 294  Z " fill-rule="nonzero" fill="#ffffff" stroke="none" />
  <path d="M 1198 294.5  C 1201.08 294.5  1203.5 296.92  1203.5 300  C 1203.5 303.08  1201.08 305.5  1198 305.5  C 1194.92 305.5  1192.5 303.08  1192.5 300  C 1192.5 296.92  1194.92 294.5  1198 294.5  Z " stroke-width="1" stroke="#797979" fill="none" />
  <path d="M 1198 303  C 1196.32 303  1195 301.68  1195 300  C 1195 298.32  1196.32 297  1198 297  C 1199.68 297  1201 298.32  1201 300  C 1201 301.68  1199.68 303  1198 303  " fill-rule="nonzero" fill="#797979" stroke="none" />
</svg>