<?xml version="1.0" encoding="utf-8"?>
<svg version="1.1" xmlns:xlink="http://www.w3.org/1999/xlink" width="12px" height="12px" viewBox="1192 342  12 12" xmlns="http://www.w3.org/2000/svg">
  <path d="M 1198 342  C 1201.36 342  1204 344.64  1204 348  C 1204 351.36  1201.36 354  1198 354  C 1194.64 354  1192 351.36  1192 348  C 1192 344.64  1194.64 342  1198 342  Z " fill-rule="nonzero" fill="#f0f0f0" stroke="none" />
  <path d="M 1198 342.5  C 1201.08 342.5  1203.5 344.92  1203.5 348  C 1203.5 351.08  1201.08 353.5  1198 353.5  C 1194.92 353.5  1192.5 351.08  1192.5 348  C 1192.5 344.92  1194.92 342.5  1198 342.5  Z " stroke-width="1" stroke="#797979" fill="none" />
  <path d="M 1198 351  C 1196.32 351  1195 349.68  1195 348  C 1195 346.32  1196.32 345  1198 345  C 1199.68 345  1201 346.32  1201 348  C 1201 349.68  1199.68 351  1198 351  " fill-rule="nonzero" fill="#797979" stroke="none" />
</svg>