<?xml version="1.0" encoding="utf-8"?>
<svg version="1.1" xmlns:xlink="http://www.w3.org/1999/xlink" width="12px" height="12px" viewBox="1192 390  12 12" xmlns="http://www.w3.org/2000/svg">
  <path d="M 1198 390  C 1201.36 390  1204 392.64  1204 396  C 1204 399.36  1201.36 402  1198 402  C 1194.64 402  1192 399.36  1192 396  C 1192 392.64  1194.64 390  1198 390  Z " fill-rule="nonzero" fill="#f0f0f0" stroke="none" />
  <path d="M 1198 390.5  C 1201.08 390.5  1203.5 392.92  1203.5 396  C 1203.5 399.08  1201.08 401.5  1198 401.5  C 1194.92 401.5  1192.5 399.08  1192.5 396  C 1192.5 392.92  1194.92 390.5  1198 390.5  Z " stroke-width="1" stroke="#797979" fill="none" />
  <path d="M 1198 399  C 1196.32 399  1195 397.68  1195 396  C 1195 394.32  1196.32 393  1198 393  C 1199.68 393  1201 394.32  1201 396  C 1201 397.68  1199.68 399  1198 399  " fill-rule="nonzero" fill="#797979" stroke="none" />
</svg>