<?xml version="1.0" encoding="utf-8"?>
<svg version="1.1" xmlns:xlink="http://www.w3.org/1999/xlink" width="19px" height="23px" xmlns="http://www.w3.org/2000/svg">
  <g transform="matrix(1 0 0 1 -34 0 )">
    <path d="M 6.78764204545455 8.759765625  C 6.86860795454546 8.849609375  6.90909090909091 8.96440972222222  6.90909090909091 9.10416666666667  L 6.90909090909091 17.7291666666667  C 6.90909090909091 17.8689236111111  6.86860795454546 17.9837239583333  6.78764204545455 18.0735677083333  C 6.70667613636364 18.1634114583333  6.6032196969697 18.2083333333333  6.47727272727273 18.2083333333333  L 5.61363636363636 18.2083333333333  C 5.48768939393939 18.2083333333333  5.38423295454546 18.1634114583333  5.30326704545455 18.0735677083333  C 5.22230113636364 17.9837239583333  5.18181818181818 17.8689236111111  5.18181818181818 17.7291666666667  L 5.18181818181818 9.10416666666667  C 5.18181818181818 8.96440972222222  5.22230113636364 8.849609375  5.30326704545455 8.759765625  C 5.38423295454546 8.669921875  5.48768939393939 8.625  5.61363636363636 8.625  L 6.47727272727273 8.625  C 6.6032196969697 8.625  6.70667613636364 8.669921875  6.78764204545455 8.759765625  Z M 10.2421875 8.759765625  C 10.3231534090909 8.849609375  10.3636363636364 8.96440972222222  10.3636363636364 9.10416666666667  L 10.3636363636364 17.7291666666667  C 10.3636363636364 17.8689236111111  10.3231534090909 17.9837239583333  10.2421875 18.0735677083333  C 10.1612215909091 18.1634114583333  10.0577651515152 18.2083333333333  9.93181818181818 18.2083333333333  L 9.06818181818182 18.2083333333333  C 8.94223484848485 18.2083333333333  8.83877840909091 18.1634114583333  8.7578125 18.0735677083333  C 8.67684659090909 17.9837239583333  8.63636363636364 17.8689236111111  8.63636363636364 17.7291666666667  L 8.63636363636364 9.10416666666667  C 8.63636363636364 8.96440972222222  8.67684659090909 8.849609375  8.7578125 8.759765625  C 8.83877840909091 8.669921875  8.94223484848485 8.625  9.06818181818182 8.625  L 9.93181818181818 8.625  C 10.0577651515152 8.625  10.1612215909091 8.669921875  10.2421875 8.759765625  Z M 13.6967329545455 8.759765625  C 13.7776988636364 8.849609375  13.8181818181818 8.96440972222222  13.8181818181818 9.10416666666667  L 13.8181818181818 17.7291666666667  C 13.8181818181818 17.8689236111111  13.7776988636364 17.9837239583333  13.6967329545455 18.0735677083333  C 13.6157670454545 18.1634114583333  13.5123106060606 18.2083333333333  13.3863636363636 18.2083333333333  L 12.5227272727273 18.2083333333333  C 12.3967803030303 18.2083333333333  12.2933238636364 18.1634114583333  12.2123579545455 18.0735677083333  C 12.1313920454545 17.9837239583333  12.0909090909091 17.8689236111111  12.0909090909091 17.7291666666667  L 12.0909090909091 9.10416666666667  C 12.0909090909091 8.96440972222222  12.1313920454545 8.849609375  12.2123579545455 8.759765625  C 12.2933238636364 8.669921875  12.3967803030303 8.625  12.5227272727273 8.625  L 13.3863636363636 8.625  C 13.5123106060606 8.625  13.6157670454545 8.669921875  13.6967329545455 8.759765625  Z M 15.4509943181818 20.5517578125  C 15.5139678030303 20.3670789930556  15.5454545454545 20.1649305555556  15.5454545454545 19.9453125  L 15.5454545454545 6  L 3.45454545454545 6  L 3.45454545454545 19.9453125  C 3.45454545454545 20.1649305555556  3.4860321969697 20.3670789930556  3.54900568181818 20.5517578125  C 3.61197916666667 20.7364366319444  3.67720170454545 20.8712022569444  3.74467329545455 20.9560546875  C 3.81214488636364 21.0409071180556  3.859375 21.0833333333333  3.88636363636364 21  L 15.1136363636364 21  C 15.140625 21.0833333333333  15.1878551136364 21.0409071180556  15.2553267045455 20.9560546875  C 15.3227982954545 20.8712022569444  15.3880208333333 20.7364366319444  15.4509943181818 20.5517578125  Z M 7.13849431818182 2.08138020833333  L 6.47727272727273 3.83333333333333  L 12.5227272727273 3.83333333333333  L 11.875 2.08138020833333  C 11.8120265151515 1.99153645833333  11.7355587121212 1.93663194444444  11.6455965909091 1.91666666666667  L 7.36789772727273 1.91666666666667  C 7.27793560606061 1.93663194444444  7.2014678030303 1.99153645833333  7.13849431818182 2.08138020833333  Z M 18.8785511363636 3.96809895833333  C 18.9595170454545 4.05794270833333  19 4.17274305555555  19 4.3125  L 19 5.27083333333333  C 19 5.41059027777778  18.9595170454545 5.525390625  18.8785511363636 5.615234375  C 18.7975852272727 5.705078125  18.6941287878788 5.75  18.5681818181818 5.75  L 17 5.75  L 17 19.9453125  C 17.2727272727273 20.7738715277778  17.0613162878788 21.4901258680556  16.6384943181818 22.0940755208333  C 16.2156723484849 22.6980251736111  15.7073863636364 23  15.1136363636364 23  L 3.88636363636364 23  C 3.29261363636364 23  2.78432765151515 22.7080078125  2.36150568181818 22.1240234375  C 1.93868371212121 21.5400390625  1.72727272727273 20.8337673611111  2 20.0052083333333  L 2 5.75  L 0.431818181818182 5.75  C 0.305871212121212 5.75  0.202414772727273 5.705078125  0.121448863636364 5.615234375  C 0.0404829545454545 5.525390625  0 5.41059027777778  0 5.27083333333333  L 0 4.3125  C 0 4.17274305555555  0.0404829545454545 4.05794270833333  0.121448863636364 3.96809895833333  C 0.202414772727273 3.87825520833333  0.305871212121212 3.83333333333333  0.431818181818182 3.83333333333333  L 4.6015625 3.83333333333333  L 5.54616477272727 1.33268229166667  C 5.68110795454546 0.963324652777776  5.92400568181818 0.648871527777776  6.27485795454546 0.389322916666668  C 6.62571022727273 0.129774305555554  6.98106060606061 0  7.34090909090909 0  L 11.6590909090909 0  C 12.0189393939394 0  12.3742897727273 0.129774305555554  12.7251420454545 0.389322916666668  C 13.0759943181818 0.648871527777776  13.3188920454545 0.963324652777776  13.4538352272727 1.33268229166667  L 14.3984375 3.83333333333333  L 18.5681818181818 3.83333333333333  C 18.6941287878788 3.83333333333333  18.7975852272727 3.87825520833333  18.8785511363636 3.96809895833333  Z " fill-rule="nonzero" fill="#333333" stroke="none" transform="matrix(1 0 0 1 34 0 )" />
  </g>
</svg>