<?xml version="1.0" encoding="utf-8"?>
<svg version="1.1" xmlns:xlink="http://www.w3.org/1999/xlink" width="14px" height="12px" xmlns="http://www.w3.org/2000/svg">
  <g transform="matrix(1 0 0 1 -1185 -71 )">
    <path d="M 14 0.877439999999979  L 10.4896842105263 0.877439999999979  L 10.4896842105263 0.0249599999999646  L 9.61726315789473 0.0249599999999646  L 9.61726315789473 0.877439999999979  L 4.38273684210525 0.877439999999979  L 4.38273684210525 0.0249599999999646  L 3.51031578947369 0.0249599999999646  L 3.51031578947369 0.877439999999979  L 0 0.877439999999979  L 0 12  L 14 12  L 14 0.877439999999979  Z M 13.1148070175439 9.25000000017383  L 13.1148070175439 11  L 0.885192982456125 11  L 0.885192982456125 5.14751999999999  L 11.9999999994477 5.14751999999999  L 13.1148070175439 5.14751999999999  L 13.1148070175439 7.2500000001171  L 13.1148070175439 9.25000000017383  Z M 13.1069473684211 4.29503999999997  L 13.1148070175439 4.29503999999997  L 0.885192982456125 4.29503999999997  L 0.885192982456125 1.64544000000001  L 3.50245614035087 1.64544000000001  L 3.50245614035087 2.58240000000001  L 4.37487719298247 2.58240000000001  L 4.37487719298247 1.64544000000001  L 9.61726315789473 1.64544000000001  L 9.61726315789473 2.58240000000001  L 10.4896842105263 2.58240000000001  L 10.4896842105263 1.64544000000001  L 13.1069473684211 1.64544000000001  L 13.1069473684211 4.29503999999997  Z " fill-rule="nonzero" fill="#409eff" stroke="none" transform="matrix(1 0 0 1 1185 71 )" />
  </g>
</svg>