<?xml version="1.0" encoding="utf-8"?>
<svg version="1.1" xmlns:xlink="http://www.w3.org/1999/xlink" width="12px" height="12px" viewBox="755 1223  12 12" xmlns="http://www.w3.org/2000/svg">
  <path d="M 761 1223  C 764.36 1223  767 1225.64  767 1229  C 767 1232.36  764.36 1235  761 1235  C 757.64 1235  755 1232.36  755 1229  C 755 1225.64  757.64 1223  761 1223  Z " fill-rule="nonzero" fill="#f0f0f0" stroke="none" />
  <path d="M 761 1223.5  C 764.08 1223.5  766.5 1225.92  766.5 1229  C 766.5 1232.08  764.08 1234.5  761 1234.5  C 757.92 1234.5  755.5 1232.08  755.5 1229  C 755.5 1225.92  757.92 1223.5  761 1223.5  Z " stroke-width="1" stroke="#797979" fill="none" />
  <path d="M 761 1232  C 759.32 1232  758 1230.68  758 1229  C 758 1227.32  759.32 1226  761 1226  C 762.68 1226  764 1227.32  764 1229  C 764 1230.68  762.68 1232  761 1232  " fill-rule="nonzero" fill="#797979" stroke="none" />
</svg>