<?xml version="1.0" encoding="utf-8"?>
<svg version="1.1" xmlns:xlink="http://www.w3.org/1999/xlink" width="30px" height="30px" xmlns="http://www.w3.org/2000/svg">
  <g transform="matrix(1 0 0 1 -419 -1722 )">
    <path d="M 434 1722  C 442.4 1722  449 1728.6  449 1737  C 449 1745.4  442.4 1752  434 1752  C 425.6 1752  419 1745.4  419 1737  C 419 1728.6  425.6 1722  434 1722  Z " fill-rule="nonzero" fill="#ffffff" stroke="none" />
    <path d="M 434 1722.5  C 442.12 1722.5  448.5 1728.88  448.5 1737  C 448.5 1745.12  442.12 1751.5  434 1751.5  C 425.88 1751.5  419.5 1745.12  419.5 1737  C 419.5 1728.88  425.88 1722.5  434 1722.5  Z " stroke-width="1" stroke="#797979" fill="none" />
  </g>
</svg>