<?xml version="1.0" encoding="utf-8"?>
<svg version="1.1" xmlns:xlink="http://www.w3.org/1999/xlink" width="12px" height="12px" viewBox="755 1164  12 12" xmlns="http://www.w3.org/2000/svg">
  <path d="M 761 1164  C 764.36 1164  767 1166.64  767 1170  C 767 1173.36  764.36 1176  761 1176  C 757.64 1176  755 1173.36  755 1170  C 755 1166.64  757.64 1164  761 1164  Z " fill-rule="nonzero" fill="#ffffff" stroke="none" />
  <path d="M 761 1164.5  C 764.08 1164.5  766.5 1166.92  766.5 1170  C 766.5 1173.08  764.08 1175.5  761 1175.5  C 757.92 1175.5  755.5 1173.08  755.5 1170  C 755.5 1166.92  757.92 1164.5  761 1164.5  Z " stroke-width="1" stroke="#797979" fill="none" />
  <path d="M 761 1173  C 759.32 1173  758 1171.68  758 1170  C 758 1168.32  759.32 1167  761 1167  C 762.68 1167  764 1168.32  764 1170  C 764 1171.68  762.68 1173  761 1173  " fill-rule="nonzero" fill="#797979" stroke="none" />
</svg>