<?xml version="1.0" encoding="utf-8"?>
<svg version="1.1" xmlns:xlink="http://www.w3.org/1999/xlink" width="12px" height="12px" viewBox="418 2668  12 12" xmlns="http://www.w3.org/2000/svg">
  <path d="M 424 2668  C 427.36 2668  430 2670.64  430 2674  C 430 2677.36  427.36 2680  424 2680  C 420.64 2680  418 2677.36  418 2674  C 418 2670.64  420.64 2668  424 2668  Z " fill-rule="nonzero" fill="#ffffff" stroke="none" />
  <path d="M 424 2668.5  C 427.08 2668.5  429.5 2670.92  429.5 2674  C 429.5 2677.08  427.08 2679.5  424 2679.5  C 420.92 2679.5  418.5 2677.08  418.5 2674  C 418.5 2670.92  420.92 2668.5  424 2668.5  Z " stroke-width="1" stroke="#797979" fill="none" />
  <path d="M 424 2677  C 422.32 2677  421 2675.68  421 2674  C 421 2672.32  422.32 2671  424 2671  C 425.68 2671  427 2672.32  427 2674  C 427 2675.68  425.68 2677  424 2677  " fill-rule="nonzero" fill="#797979" stroke="none" />
</svg>