<?xml version="1.0" encoding="utf-8"?>
<svg version="1.1" xmlns:xlink="http://www.w3.org/1999/xlink" width="12px" height="12px" viewBox="418 2363  12 12" xmlns="http://www.w3.org/2000/svg">
  <path d="M 424 2363  C 427.36 2363  430 2365.64  430 2369  C 430 2372.36  427.36 2375  424 2375  C 420.64 2375  418 2372.36  418 2369  C 418 2365.64  420.64 2363  424 2363  Z " fill-rule="nonzero" fill="#ffffff" stroke="none" />
  <path d="M 424 2363.5  C 427.08 2363.5  429.5 2365.92  429.5 2369  C 429.5 2372.08  427.08 2374.5  424 2374.5  C 420.92 2374.5  418.5 2372.08  418.5 2369  C 418.5 2365.92  420.92 2363.5  424 2363.5  Z " stroke-width="1" stroke="#797979" fill="none" />
  <path d="M 424 2372  C 422.32 2372  421 2370.68  421 2369  C 421 2367.32  422.32 2366  424 2366  C 425.68 2366  427 2367.32  427 2369  C 427 2370.68  425.68 2372  424 2372  " fill-rule="nonzero" fill="#797979" stroke="none" />
</svg>