<?xml version="1.0" encoding="utf-8"?>
<svg version="1.1" xmlns:xlink="http://www.w3.org/1999/xlink" width="12px" height="12px" viewBox="418 2614  12 12" xmlns="http://www.w3.org/2000/svg">
  <path d="M 424 2614  C 427.36 2614  430 2616.64  430 2620  C 430 2623.36  427.36 2626  424 2626  C 420.64 2626  418 2623.36  418 2620  C 418 2616.64  420.64 2614  424 2614  Z " fill-rule="nonzero" fill="#f0f0f0" stroke="none" />
  <path d="M 424 2614.5  C 427.08 2614.5  429.5 2616.92  429.5 2620  C 429.5 2623.08  427.08 2625.5  424 2625.5  C 420.92 2625.5  418.5 2623.08  418.5 2620  C 418.5 2616.92  420.92 2614.5  424 2614.5  Z " stroke-width="1" stroke="#797979" fill="none" />
  <path d="M 424 2623  C 422.32 2623  421 2621.68  421 2620  C 421 2618.32  422.32 2617  424 2617  C 425.68 2617  427 2618.32  427 2620  C 427 2621.68  425.68 2623  424 2623  " fill-rule="nonzero" fill="#797979" stroke="none" />
</svg>