<?xml version="1.0" encoding="utf-8"?>
<svg version="1.1" xmlns:xlink="http://www.w3.org/1999/xlink" width="12px" height="12px" viewBox="418 2416  12 12" xmlns="http://www.w3.org/2000/svg">
  <path d="M 424 2416  C 427.36 2416  430 2418.64  430 2422  C 430 2425.36  427.36 2428  424 2428  C 420.64 2428  418 2425.36  418 2422  C 418 2418.64  420.64 2416  424 2416  Z " fill-rule="nonzero" fill="#f0f0f0" stroke="none" />
  <path d="M 424 2416.5  C 427.08 2416.5  429.5 2418.92  429.5 2422  C 429.5 2425.08  427.08 2427.5  424 2427.5  C 420.92 2427.5  418.5 2425.08  418.5 2422  C 418.5 2418.92  420.92 2416.5  424 2416.5  Z " stroke-width="1" stroke="#797979" fill="none" />
  <path d="M 424 2425  C 422.32 2425  421 2423.68  421 2422  C 421 2420.32  422.32 2419  424 2419  C 425.68 2419  427 2420.32  427 2422  C 427 2423.68  425.68 2425  424 2425  " fill-rule="nonzero" fill="#797979" stroke="none" />
</svg>