<?xml version="1.0" encoding="utf-8"?>
<svg version="1.1" xmlns:xlink="http://www.w3.org/1999/xlink" width="12px" height="12px" viewBox="418 2469  12 12" xmlns="http://www.w3.org/2000/svg">
  <path d="M 424 2469  C 427.36 2469  430 2471.64  430 2475  C 430 2478.36  427.36 2481  424 2481  C 420.64 2481  418 2478.36  418 2475  C 418 2471.64  420.64 2469  424 2469  Z " fill-rule="nonzero" fill="#f0f0f0" stroke="none" />
  <path d="M 424 2469.5  C 427.08 2469.5  429.5 2471.92  429.5 2475  C 429.5 2478.08  427.08 2480.5  424 2480.5  C 420.92 2480.5  418.5 2478.08  418.5 2475  C 418.5 2471.92  420.92 2469.5  424 2469.5  Z " stroke-width="1" stroke="#797979" fill="none" />
  <path d="M 424 2478  C 422.32 2478  421 2476.68  421 2475  C 421 2473.32  422.32 2472  424 2472  C 425.68 2472  427 2473.32  427 2475  C 427 2476.68  425.68 2478  424 2478  " fill-rule="nonzero" fill="#797979" stroke="none" />
</svg>