<?xml version="1.0" encoding="utf-8"?>
<svg version="1.1" xmlns:xlink="http://www.w3.org/1999/xlink" width="12px" height="12px" viewBox="418 2561  12 12" xmlns="http://www.w3.org/2000/svg">
  <path d="M 424 2561  C 427.36 2561  430 2563.64  430 2567  C 430 2570.36  427.36 2573  424 2573  C 420.64 2573  418 2570.36  418 2567  C 418 2563.64  420.64 2561  424 2561  Z " fill-rule="nonzero" fill="#f0f0f0" stroke="none" />
  <path d="M 424 2561.5  C 427.08 2561.5  429.5 2563.92  429.5 2567  C 429.5 2570.08  427.08 2572.5  424 2572.5  C 420.92 2572.5  418.5 2570.08  418.5 2567  C 418.5 2563.92  420.92 2561.5  424 2561.5  Z " stroke-width="1" stroke="#797979" fill="none" />
  <path d="M 424 2570  C 422.32 2570  421 2568.68  421 2567  C 421 2565.32  422.32 2564  424 2564  C 425.68 2564  427 2565.32  427 2567  C 427 2568.68  425.68 2570  424 2570  " fill-rule="nonzero" fill="#797979" stroke="none" />
</svg>