<?xml version="1.0" encoding="utf-8"?>
<svg version="1.1" xmlns:xlink="http://www.w3.org/1999/xlink" width="12px" height="12px" viewBox="418 2489  12 12" xmlns="http://www.w3.org/2000/svg">
  <path d="M 424 2489  C 427.36 2489  430 2491.64  430 2495  C 430 2498.36  427.36 2501  424 2501  C 420.64 2501  418 2498.36  418 2495  C 418 2491.64  420.64 2489  424 2489  Z " fill-rule="nonzero" fill="#ffffff" stroke="none" />
  <path d="M 424 2489.5  C 427.08 2489.5  429.5 2491.92  429.5 2495  C 429.5 2498.08  427.08 2500.5  424 2500.5  C 420.92 2500.5  418.5 2498.08  418.5 2495  C 418.5 2491.92  420.92 2489.5  424 2489.5  Z " stroke-width="1" stroke="#797979" fill="none" />
  <path d="M 424 2498  C 422.32 2498  421 2496.68  421 2495  C 421 2493.32  422.32 2492  424 2492  C 425.68 2492  427 2493.32  427 2495  C 427 2496.68  425.68 2498  424 2498  " fill-rule="nonzero" fill="#797979" stroke="none" />
</svg>