<?xml version="1.0" encoding="utf-8"?>
<svg version="1.1" xmlns:xlink="http://www.w3.org/1999/xlink" width="17px" height="17px" xmlns="http://www.w3.org/2000/svg">
  <g transform="matrix(1 0 0 1 -429 -3513 )">
    <path d="M 15.2377289377289 11.1505376344085  C 15.885347985348 10.510752688172  15.3622710622711 9.42616487455197  14.4468864468865 9.51146953405016  L 14.3721611721611 9.51756272401435  C 14.1479853479853 9.54193548387099  13.9362637362637 9.63942652329745  13.774358974359 9.79175627240148  L 9.75164835164831 13.7279569892474  C 8.8985347985348 14.5627240143369  7.75897435897432 15.0197132616487  6.54468864468869 15.0197132616487  C 5.33040293040286 15.0197132616487  4.19084249084258 14.5627240143369  3.33772893772888 13.7279569892474  C 2.48461538461537 12.8931899641577  2.01758241758243 11.7781362007169  2.01758241758243 10.5899641577061  C 2.01758241758243 9.40179211469533  2.48461538461537 8.28673835125451  3.33772893772888 7.45197132616493  L 7.60952380952382 3.27204301075271  C 7.82747252747246 3.05878136200722  8.06410256410253 2.86989247311828  8.31941391941384 2.70537634408607  C 8.60586080586081 2.52258064516132  8.91721611721604 2.3641577060932  9.24102564102568 2.24838709677418  C 9.53992673992668 2.13870967741934  9.85750915750912 2.06559139784942  10.1750915750915 2.02293906810032  C 10.3868131868132 1.99247311827959  10.6047619047618 1.98028673835123  10.8102564102564 1.98028673835123  C 10.897435897436 1.98028673835123  10.9846153846154 1.98637992831541  11.0967032967034 1.99247311827959  C 12.198901098901 2.05949820788533  13.2388278388279 2.51648745519713  14.010989010989 3.27204301075271  C 14.4904761904762 3.74121863799288  14.8578754578755 4.31397849462369  15.0758241758242 4.9354838709677  C 15.2501831501831 5.42293906810032  15.7732600732601 5.69713261648746  16.2776556776558 5.55089605734771  C 16.2838827838828 5.55089605734771  16.29010989011 5.54480286738353  16.296336996337 5.54480286738353  C 16.3025641025642 5.54480286738353  16.3087912087912 5.54480286738353  16.3087912087912 5.53870967741934  C 16.8131868131868 5.38637992831541  17.1058608058608 4.86845878136206  16.9626373626373 4.37491039426525  C 16.6886446886448 3.42437275985664  16.2029304029304 2.62616487455197  15.4307692307693 1.87670250896057  C 14.4593406593407 0.926164874551966  13.1952380952382 0.304659498207866  11.8439560439561 0.0913978494623791  C 11.725641025641 0.0731182795699226  11.607326007326 0.0548387096774661  11.489010989011 0.0426523297490974  C 11.2586080586081 0.0182795698924565  11.0282051282051 0.00609318996418438  10.7978021978022 0.00609318996418438  C 10.6358974358975 0.00609318996418438  10.4739926739927 0.0121863799282721  10.318315018315 0.0243727598566409  C 9.98205128205136 0.0487455197132817  9.64578754578749 0.0974910394265635  9.30952380952382 0.176702508960574  C 9.24102564102568 0.188888888888846  9.17875457875456 0.207168458781399  9.11025641025642 0.225448028673856  C 8.69304029304038 0.335125448028691  8.28205128205136 0.48136200716844  7.89597069597079 0.670250896057382  C 7.25457875457871 0.981003584229433  6.67545787545795 1.38315412186377  6.17106227106234 1.88279569892476  L 1.8992673992674 6.06272401433688  C 0.678754578754558 7.27526881720426  0 8.88387096774197  0 10.6021505376344  C 0 12.3204301075269  0.678754578754558 13.9290322580646  1.91172161172162 15.1354838709677  C 3.14468864468869 16.3358422939069  4.78864468864477 17  6.53846153846148 17  C 8.29450549450559 17  9.93846153846148 16.3358422939069  11.1714285714285 15.1293906810036  L 15.2377289377289 11.1505376344085  Z " fill-rule="nonzero" fill="#606266" stroke="none" transform="matrix(1 0 0 1 429 3513 )" />
  </g>
</svg>