<?xml version="1.0" encoding="utf-8"?>
<svg version="1.1" xmlns:xlink="http://www.w3.org/1999/xlink" width="12px" height="6px" xmlns="http://www.w3.org/2000/svg">
  <g transform="matrix(1 0 0 1 -1412 -122 )">
    <path d="M 11.6751219512195 0.0714634146340813  L 11.8823414634146 0.243902439024396  C 11.9965995917072 0.339146305240547  11.9965995917072 0.493536621588873  11.8823414634146 0.588780487805025  L 6.19112195121951 5.3317073170731  C 6.13622392473882 5.37750659586118  6.061729536029 5.40324064790639  5.98404878048779 5.40324064790639  C 5.90636802494664 5.40324064790639  5.83187363623675 5.37750659586118  5.7769756097561 5.3317073170731  L 0.0857560975609999 0.588780487805025  C -0.0285020307315676 0.493536621588873  -0.0285020307315676 0.339146305240547  0.0857560975609999 0.243902439024396  L 0.292682926829275 0.0714634146340813  C 0.40697556628852 -0.0237516922761642  0.592243945906614 -0.0237516922761642  0.706536585365859 0.0714634146340813  L 5.98390243902437 4.46926829268295  L 11.2615609756098 0.0714634146340813  C 11.375853615069 -0.0237516922761642  11.5611219946871 -0.0237516922761642  11.6754146341463 0.0714634146340813  Z " fill-rule="nonzero" fill="#909399" stroke="none" fill-opacity="0.647058823529412" transform="matrix(1 0 0 1 1412 122 )" />
  </g>
</svg>