<?xml version="1.0" encoding="utf-8"?>
<svg version="1.1" xmlns:xlink="http://www.w3.org/1999/xlink" width="15px" height="30px" xmlns="http://www.w3.org/2000/svg">
  <g transform="matrix(1 0 0 1 -436 -2736 )">
    <path d="M 15 2.203125  C 15 0.977678571428669  14.0625 0  12.8370535714287 0  L 2.21651785714289 0  C 0.991071428571331 0  0 0.977678571428669  0 2.203125  L 0 27.7165178571429  C 0 28.9486607142858  0.991071428571331 30  2.21651785714289 30  L 12.8303571428571 30  C 14.0558035714287 30  14.9933035714287 28.9486607142858  15 27.7165178571429  L 15 2.203125  Z M 6.22767857142867 1.80803571428578  C 6.22767857142867 1.66071428571422  6.34821428571422 1.54017857142867  6.49553571428578 1.54017857142867  L 8.50446428571422 1.54017857142867  C 8.65178571428578 1.54017857142867  8.77232142857133 1.66071428571422  8.77232142857133 1.80803571428578  C 8.77232142857133 1.95535714285711  8.65178571428578 2.07589285714289  8.50446428571422 2.07589285714289  L 6.49553571428578 2.07589285714289  C 6.34821428571422 2.07589285714289  6.22767857142867 1.95535714285711  6.22767857142867 1.80803571428578  Z M 8.69866071428578 27.8303571428571  C 8.69866071428578 28.4732142857142  8.17633928571422 28.9955357142858  7.53348214285711 28.9955357142858  C 6.890625 28.9955357142858  6.36830357142867 28.4732142857142  6.36830357142867 27.8303571428571  C 6.36830357142867 27.1875  6.890625 26.6651785714287  7.53348214285711 26.6651785714287  C 8.17633928571422 26.6651785714287  8.69866071428578 27.1875  8.69866071428578 27.8303571428571  Z M 14 25.5803571428571  C 13.9285714285713 25.6540178571429  13.8683035714287 25.7142857142858  13.7946428571429 25.7142857142858  L 1.20535714285711 25.7142857142858  C 1.13169642857133 25.7142857142858  1.07142857142867 25.6540178571429  1 25.5803571428571  L 1 3.54910714285711  C 1.07142857142867 3.47544642857133  1.13169642857133 3.41517857142867  1.20535714285711 4  L 13.7946428571429 4  C 13.8683035714287 3.41517857142867  13.9285714285713 3.47544642857133  14 3.54910714285711  L 14 25.5803571428571  Z " fill-rule="nonzero" fill="#606266" stroke="none" transform="matrix(1 0 0 1 436 2736 )" />
  </g>
</svg>