<?xml version="1.0" encoding="utf-8"?>
<svg version="1.1" xmlns:xlink="http://www.w3.org/1999/xlink" width="30px" height="30px" xmlns="http://www.w3.org/2000/svg">
  <g transform="matrix(1 0 0 1 -428 -2918 )">
    <path d="M 29.8051948051948 25.4727272727273  C 30.0311688311688 24.8415584415584  30.2883116883116 24.5844155844156  29.135064935065 23.438961038961  C 27.9896103896103 22.2935064935066  25.2389610389611 20.5714285714287  23.8831168831168 19.9246753246753  C 22.3090909090909 19.1688311688313  21.7324675324676 19.1844155844155  20.6181818181818 19.987012987013  C 19.6909090909091 20.6571428571428  19.0909090909091 21.2805194805194  18.0233766233766 21.0467532467533  C 16.9558441558441 20.8207792207793  14.8519480519481 19.2233766233767  12.8103896103896 17.1896103896104  C 10.7688311688312 15.1480519480519  9.17922077922083 13.0441558441557  8.95324675324673 11.9766233766234  C 8.72727272727275 10.9012987012986  9.35064935064941 10.3090909090909  10.012987012987 9.38181818181829  C 10.8155844155845 8.26753246753242  10.8389610389611 7.69090909090915  10.0753246753246 6.11688311688317  C 9.42857142857144 4.75324675324669  7.71428571428567 2.01038961038967  6.561038961039 0.864935064935025  C 5.41558441558436 -0.280519480519388  5.15844155844161 -0.0311688311687703  4.5272727272727 0.194805194805213  C 4.5272727272727 0.194805194805213  3.59220779220777 0.568831168831139  2.66493506493509 1.18441558441555  C 1.51948051948057 1.9480519480519  0.880519480519524 2.58701298701294  0.428571428571445 3.5454545454545  C -0.0155844155843852 4.50389610389607  -0.529870129870119 6.28831168831175  2.08831168831171 10.9480519480519  C 4.20000000000005 14.7116883116882  6.27272727272725 17.5636363636363  9.35064935064941 20.6337662337662  L 9.35844155844154 20.6415584415583  L 9.36623376623379 20.6493506493507  C 12.4441558441558 23.7272727272727  15.2883116883116 25.8  19.0519480519481 27.9116883116883  C 23.7116883116884 30.5298701298702  25.4961038961039 30.0155844155845  26.4545454545455 29.5714285714287  C 27.4129870129871 29.1272727272728  28.0519480519481 28.4883116883118  28.8155844155845 27.335064935065  C 29.4311688311689 26.4077922077922  29.8051948051948 25.4727272727273  29.8051948051948 25.4727272727273  Z " fill-rule="nonzero" fill="#606266" stroke="none" transform="matrix(1 0 0 1 428 2918 )" />
  </g>
</svg>