<?xml version="1.0" encoding="utf-8"?>
<svg version="1.1" xmlns:xlink="http://www.w3.org/1999/xlink" width="12px" height="7px" xmlns="http://www.w3.org/2000/svg">
  <g transform="matrix(1 0 0 1 -23 -845 )">
    <path d="M 1.46071428571429 0.289285714285683  L 6 4.825  L 10.5357142857143 0.285714285714306  C 10.8714285714286 -0.0499999999999972  11.4142857142857 -0.0499999999999972  11.7464285714286 0.285714285714306  C 12.0785714285714 0.621428571428538  12.0785714285714 1.16428571428568  11.7464285714286 1.5  L 6.60714285714295 6.64285714285715  C 6.28214285714296 6.96785714285716  5.7607142857143 6.97500000000001  5.42500000000001 6.66785714285716  L 0.25 1.50357142857146  C 0.0821428571429124 1.33571428571432  0 1.11428571428569  0 0.89642857142853  C 0 0.678571428571473  0.0821428571429124 0.457142857142841  0.25 0.289285714285683  C 0.585714285714289 -0.0464285714285353  1.12857142857138 -0.0464285714285353  1.46071428571429 0.289285714285683  Z " fill-rule="nonzero" fill="#606266" stroke="none" transform="matrix(1 0 0 1 23 845 )" />
  </g>
</svg>