<?xml version="1.0" encoding="utf-8"?>
<svg version="1.1" xmlns:xlink="http://www.w3.org/1999/xlink" width="30px" height="30px" xmlns="http://www.w3.org/2000/svg">
  <g transform="matrix(1 0 0 1 0 -40 )">
    <path d="M 15 0  C 6.71394230769238 0  0 6.71394230769238  0 15  C 0 23.2860576923076  6.71394230769238 30  15 30  C 23.2860576923076 30  30 23.2860576923076  30 15  C 30 6.71394230769238  23.2860576923076 0  15 0  Z M 15.0072115384614 17.6322115384614  L 20.8485576923076 11.8701923076924  C 21.3894230769231 11.3293269230771  22.2764423076924 11.3293269230771  22.8173076923076 11.8701923076924  C 23.0913461538462 12.1442307692309  23.2211538461538 12.4975961538462  23.2211538461538 12.8509615384614  C 23.2211538461538 13.2043269230771  23.0841346153845 13.5649038461538  22.8100961538462 13.8389423076924  L 16.0096153846155 20.6177884615386  C 15.4615384615386 21.1153846153848  14.6177884615386 21.1009615384614  14.0913461538462 20.5745192307691  L 7.18990384615381 13.6947115384614  C 6.64903846153857 13.1538461538462  6.64182692307691 12.2740384615386  7.18990384615381 11.7259615384614  C 7.73076923076928 11.1850961538462  8.61057692307691 11.1778846153848  9.15865384615381 11.7259615384614  L 15.0072115384614 17.6322115384614  Z " fill-rule="nonzero" fill="#606266" stroke="none" transform="matrix(1 0 0 1 0 40 )" />
  </g>
</svg>