<?xml version="1.0" encoding="utf-8"?>
<svg version="1.1" xmlns:xlink="http://www.w3.org/1999/xlink" width="30px" height="30px" xmlns="http://www.w3.org/2000/svg">
  <g>
    <path d="M 0 15  C 0 23.2860576923076  6.71394230769226 30  15 30  C 23.2860576923077 30  30 23.2860576923076  30 15  C 30 6.71394230769238  23.2860576923077 0  15 0  C 6.71394230769226 0  0 6.71394230769238  0 15  Z M 20.8413461538462 18.1298076923076  L 15 12.3677884615386  L 9.15144230769226 18.2740384615386  C 8.61057692307691 18.8149038461538  7.72355769230774 18.8149038461538  7.18269230769226 18.2740384615386  C 6.64182692307691 17.7331730769231  6.64182692307691 16.8461538461538  7.18269230769226 16.3052884615386  L 14.0841346153846 9.42548076923072  C 14.6105769230769 8.89903846153857  15.4615384615385 8.88461538461547  16.0024038461538 9.38221153846143  L 22.8028846153846 16.1610576923076  C 23.0769230769231 16.4350961538462  23.2139423076923 16.7884615384614  23.2139423076923 17.1490384615386  C 23.2139423076923 17.5024038461538  23.0769230769231 17.8629807692307  22.8100961538462 18.1298076923076  C 22.2692307692307 18.6706730769231  21.3894230769231 18.6778846153845  20.8413461538462 18.1298076923076  Z " fill-rule="nonzero" fill="#606266" stroke="none" />
  </g>
</svg>