<?xml version="1.0" encoding="utf-8"?>
<svg version="1.1" xmlns:xlink="http://www.w3.org/1999/xlink" width="15px" height="8px" xmlns="http://www.w3.org/2000/svg">
  <g transform="matrix(1 0 0 1 -1174 -965 )">
    <path d="M 1.82589285714286 0.330612244897923  L 7.5 5.51428571428572  L 13.1696428571429 0.326530612244921  C 13.5892857142858 -0.0571428571428539  14.2678571428571 -0.0571428571428539  14.6830357142858 0.326530612244921  C 15.0982142857142 0.710204081632615  15.0982142857142 1.33061224489792  14.6830357142858 1.71428571428571  L 8.25892857142868 7.59183673469389  C 7.8526785714287 7.96326530612246  7.20089285714288 7.97142857142858  6.78125000000001 7.62040816326532  L 0.3125 1.71836734693881  C 0.10267857142864 1.52653061224493  0 1.27346938775507  0 1.02448979591832  C 0 0.775510204081684  0.10267857142864 0.522448979591819  0.3125 0.330612244897923  C 0.732142857142861 -0.0530612244897546  1.41071428571422 -0.0530612244897546  1.82589285714286 0.330612244897923  Z " fill-rule="nonzero" fill="#606266" stroke="none" transform="matrix(1 0 0 1 1174 965 )" />
  </g>
</svg>