<?xml version="1.0" encoding="utf-8"?>
<svg version="1.1" xmlns:xlink="http://www.w3.org/1999/xlink" width="10px" height="16px" preserveAspectRatio="xMidYMin meet" viewBox="1406 855  8 16" xmlns="http://www.w3.org/2000/svg">
  <path d="M 1367 865.5  L 1387.5 865.5  A 2.5 2.5 0 0 0 1390.5 863 A 2.5 2.5 0 0 1 1393 860.5 L 1405 860.5  A 5 5 0 0 1 1410.5 865.5 L 1410.5 871  " stroke-width="1" stroke="#ff3399" fill="none" />
  <path d="M 1369 862.5  A 3 3 0 0 0 1366 865.5 A 3 3 0 0 0 1369 868.5 A 3 3 0 0 0 1372 865.5 A 3 3 0 0 0 1369 862.5 Z " fill-rule="nonzero" fill="#ff3399" stroke="none" />
</svg>