<?xml version="1.0" encoding="utf-8"?>
<svg version="1.1" xmlns:xlink="http://www.w3.org/1999/xlink" width="25px" height="25px" xmlns="http://www.w3.org/2000/svg">
  <g transform="matrix(1 0 0 1 -346 -169 )">
    <path d="M 11.09375 16.5625  C 11.09375 16.71875  10.9375 16.71875  10.625 16.71875  C 10.46875 16.71875  10.3125 16.71875  10.15625 16.5625  L 6.56249999999996 13.125  C 6.25 12.8125  6.09375000000001 12.34375  6.40624999999999 12.03125  C 6.71875000000004 11.71875  7.18749999999998 11.71875  7.50000000000004 12.03125  L 11.09375 15.46875  C 11.40625 15.78125  11.40625 16.25  11.09375 16.5625  Z M 11.09375 16.40625  C 11.09375 16.71875  10.9375 16.71875  10.625 16.71875  C 10.46875 16.71875  10.15625 16.5625  10 16.40625  C 9.68749999999996 16.09375  9.68749999999996 15.625  10 15.3125  L 17.34375 8.4375  C 17.65625 8.125  18.125 8.125  18.4375 8.4375  C 18.75 8.75  18.75 9.21875  18.4375 9.53125  L 11.09375 16.40625  Z M 25 12.5  C 25 19.375  19.375 25  12.5 25  C 5.62499999999999 25  0 19.375  0 12.5  C 0 5.625  5.62499999999999 0  12.5 0  C 19.375 0  25 5.625  25 12.5  Z M 23.4375 12.5  C 23.4375 6.40625  18.59375 1.5625  12.5 1.5625  C 6.40624999999999 1.5625  1.5625 6.40625  1.5625 12.5  C 1.5625 18.59375  6.40624999999999 23.4375  12.5 23.4375  C 18.59375 23.4375  23.4375 18.59375  23.4375 12.5  Z " fill-rule="nonzero" fill="#33cc99" stroke="none" transform="matrix(1 0 0 1 346 169 )" />
  </g>
</svg>