<?xml version="1.0" encoding="utf-8"?>
<svg version="1.1" xmlns:xlink="http://www.w3.org/1999/xlink" width="29px" height="10px" preserveAspectRatio="xMinYMid meet" viewBox="1366 961  29 8" xmlns="http://www.w3.org/2000/svg">
  <path d="M 1367 965.5  L 1387.5 965.5  A 2.5 2.5 0 0 0 1390.5 963 A 2.5 2.5 0 0 1 1393 960.5 L 1400 960.5  A 5 5 0 0 1 1405.5 965.5 L 1405.5 971  " stroke-width="1" stroke="#ff3399" fill="none" />
  <path d="M 1369 962.5  A 3 3 0 0 0 1366 965.5 A 3 3 0 0 0 1369 968.5 A 3 3 0 0 0 1372 965.5 A 3 3 0 0 0 1369 962.5 Z " fill-rule="nonzero" fill="#ff3399" stroke="none" />
</svg>