<?xml version="1.0" encoding="utf-8"?>
<svg version="1.1" xmlns:xlink="http://www.w3.org/1999/xlink" width="20px" height="20px" xmlns="http://www.w3.org/2000/svg">
  <g transform="matrix(1 0 0 1 -386 -321 )">
    <path d="M 19.9612403100775 10  C 19.9612403100775 9.31782945736431  19.4031007751938 8.75968992248059  18.7209302325581 8.75968992248059  L 11.2403100775194 8.75968992248059  L 11.2403100775194 1.27906976744188  C 11.2403100775194 0.596899224806187  10.6821705426357 0.0387596899224718  10 0.0387596899224718  C 9.31782945736435 0.0387596899224718  8.75968992248062 0.596899224806187  8.75968992248062 1.27906976744188  L 8.75968992248062 8.75968992248059  L 1.27906976744185 8.75968992248059  C 0.596899224806199 8.75968992248059  0.0387596899224718 9.31782945736431  0.0387596899224718 10  C 0.0387596899224718 10.3410852713178  0.178294573643409 10.6511627906977  0.403100775193804 10.8759689922481  C 0.627906976744175 11.1007751937984  0.937984496124026 11.2403100775194  1.27906976744185 11.2403100775194  L 8.75968992248062 11.2403100775194  L 8.75968992248062 18.7209302325581  C 8.75968992248062 19.0620155038759  8.89922480620156 19.3720930232558  9.12403100775193 19.5968992248062  C 9.34883720930232 19.8217054263565  9.65891472868217 19.9612403100775  10 19.9612403100775  C 10.6821705426357 19.9612403100775  11.2403100775194 19.4031007751938  11.2403100775194 18.7209302325581  L 11.2403100775194 11.2403100775194  L 18.7209302325581 11.2403100775194  C 19.4031007751938 11.2403100775194  19.9612403100775 10.6821705426357  19.9612403100775 10  Z " fill-rule="nonzero" fill="#606266" stroke="none" transform="matrix(1 0 0 1 386 321 )" />
  </g>
</svg>