<?xml version="1.0" encoding="utf-8"?>
<svg version="1.1" xmlns:xlink="http://www.w3.org/1999/xlink" width="18px" height="18px" preserveAspectRatio="xMinYMid meet" viewBox="1484 319  18 16" xmlns="http://www.w3.org/2000/svg">
  <path d="M 1491 327.5  L 1516.5 327.5  A 3.5 3.5 0 0 0 1520.5 324 L 1520.5 323  A 3 3 0 0 1 1523.5 320.5 A 3 3 0 0 1 1526.5 323.5 L 1526.5 333  " stroke-width="1" stroke="#ff3399" fill="none" />
  <path d="M 1493 324.5  A 3 3 0 0 0 1490 327.5 A 3 3 0 0 0 1493 330.5 A 3 3 0 0 0 1496 327.5 A 3 3 0 0 0 1493 324.5 Z " fill-rule="nonzero" fill="#ff3399" stroke="none" />
</svg>