<?xml version="1.0" encoding="utf-8"?>
<svg version="1.1" xmlns:xlink="http://www.w3.org/1999/xlink" width="199px" height="170px" xmlns="http://www.w3.org/2000/svg">
  <g transform="matrix(1 0 0 1 -166 -301 )">
    <path d="M 166 301  L 365 301  L 365 471  L 166 471  L 166 301  " fill-rule="nonzero" fill="#cccccc" stroke="none" />
    <path d="M 178 313  L 353 313  L 353 459  L 178 459  L 178 313  " fill-rule="nonzero" fill="#ffffff" stroke="none" />
    <path d="M 282.23 352  C 275.09 352  269.48 346.39  269.48 339.25  C 269.48 332.11  275.09 326.5  282.23 326.5  C 289.37 326.5  294.98 332.11  294.98 339.25  C 294.98 346.39  289.37 352  282.23 352  " fill-rule="nonzero" fill="#cccccc" stroke="none" />
    <path d="M 183 455  L 183 379.65  L 224.5 345.4  L 282.6 384.778894472362  L 315.8 365.95  L 349 384.778894472362  L 349 455  L 183 455  " fill-rule="nonzero" fill="#169bd5" stroke="none" />
  </g>
</svg>