<?xml version="1.0" encoding="utf-8"?>
<svg version="1.1" xmlns:xlink="http://www.w3.org/1999/xlink" width="50px" height="50px" xmlns="http://www.w3.org/2000/svg">
  <g transform="matrix(1 0 0 1 -987 -128 )">
    <path d="M 49.207792207792 49.4155844155841  C 50.0649350649348 48.5974025974027  50.090909090909 47.2467532467533  49.2857142857144 46.3896103896104  L 35.4155844155844 32.3896103896107  C 38.1298701298704 28.9870129870133  39.7662337662337 24.6753246753246  39.7662337662337 19.9870129870131  C 39.7662337662337 9.01298701298705  30.8701298701294 0.116883116883173  19.8831168831168 0.116883116883173  C 8.89610389610425 0.116883116883173  0 9.02597402597394  0 20  C 0 30.9740259740261  8.89610389610425 39.8701298701296  19.8831168831168 39.8701298701296  C 24.636363636364 39.8701298701296  28.9870129870133 38.2077922077921  32.4155844155848 35.4285714285713  L 46.1948051948048 49.3376623376624  C 46.6103896103891 49.7792207792205  47.1818181818185 50  47.7402597402602 50  C 48.2727272727277 50  48.8051948051952 49.8051948051951  49.207792207792 49.4155844155841  Z M 30.9220779220777 31.0259740259736  C 27.9740259740265 33.9740259740264  24.0519480519481 35.5974025974024  19.8831168831168 35.5974025974024  C 15.7142857142856 35.5974025974024  11.7922077922083 33.9740259740264  8.84415584415592 31.0259740259736  C 5.89610389610357 28.077922077922  4.2727272727268 24.1558441558444  4.2727272727268 20  C 4.2727272727268 15.8311688311687  5.89610389610357 11.9090909090907  8.84415584415592 8.97402597402637  C 11.7922077922083 6.02597402597363  15.7142857142856 4.40259740259762  19.8831168831168 4.40259740259762  C 24.0519480519481 4.40259740259762  27.9740259740265 6.02597402597363  30.9220779220777 8.97402597402637  C 33.8701298701301 11.922077922078  35.4935064935069 15.8441558441556  35.4935064935069 20  C 35.4935064935069 24.1688311688313  33.8701298701301 28.0909090909093  30.9220779220777 31.0259740259736  Z " fill-rule="nonzero" fill="#606266" stroke="none" transform="matrix(1 0 0 1 987 128 )" />
  </g>
</svg>