<?xml version="1.0" encoding="utf-8"?>
<svg version="1.1" xmlns:xlink="http://www.w3.org/1999/xlink" width="30px" height="31px" xmlns="http://www.w3.org/2000/svg">
  <g transform="matrix(1 0 0 1 -150 -141 )">
    <path d="M 29.9921875 18.609375  C 28.5546875 18.046875  27.5234375 16.6484375  27.5234375 15  C 27.5234375 13.359375  28.546875 11.9609375  30 11.3984375  C 29.6171875 9.796875  28.984375 8.296875  28.1484375 6.9375  C 27.6484375 7.15625  27.1171875 7.2734375  26.578125 7.2734375  C 25.59375 7.2734375  24.609375 6.8984375  23.8515625 6.1484375  C 22.6875 4.984375  22.4296875 3.2734375  23.0546875 1.8515625  C 21.703125 1.015625  20.1953125 0.3828125  18.6015625 0  C 18.046875 1.4453125  16.640625 2.4765625  15 2.4765625  C 13.359375 2.4765625  11.953125 1.4453125  11.3984375 0  C 9.796875 0.3828125  8.296875 1.015625  6.9375 1.8515625  C 7.5703125 3.265625  7.3046875 4.984375  6.140625 6.1484375  C 5.390625 6.8984375  4.3984375 7.2734375  3.4140625 7.2734375  C 2.875 7.2734375  2.34375 7.1640625  1.84375 6.9375  C 1.015625 8.3046875  0.3828125 9.8046875  0 11.40625  C 1.4453125 11.9609375  2.4765625 13.359375  2.4765625 15.0078125  C 2.4765625 16.6484375  1.453125 18.046875  0.0078125 18.609375  C 0.390625 20.2109375  1.0234375 21.7109375  1.859375 23.0703125  C 2.359375 22.8515625  2.890625 22.7421875  3.421875 22.7421875  C 4.40625 22.7421875  5.390625 23.1171875  6.1484375 23.8671875  C 7.3046875 25.0234375  7.5703125 26.7421875  6.9453125 28.15625  C 8.3046875 28.9921875  9.8125 29.625  11.40625 30.0078125  C 11.9609375 28.5625  13.359375 27.5390625  15 27.5390625  C 16.640625 27.5390625  18.0390625 28.5625  18.59375 30.0078125  C 20.1953125 29.625  21.6953125 28.9921875  23.0546875 28.15625  C 22.4296875 26.7421875  22.6953125 25.03125  23.8515625 23.8671875  C 24.6015625 23.1171875  25.5859375 22.7421875  26.578125 22.7421875  C 27.109375 22.7421875  27.6484375 22.8515625  28.140625 23.0703125  C 28.9765625 21.7109375  29.609375 20.203125  29.9921875 18.609375  Z M 21.3203125 14.9921875  C 21.3203125 18.4375  18.53125 21.2421875  15.0703125 21.2421875  C 11.609375 21.2421875  8.8203125 18.4375  8.8203125 14.9921875  C 8.8203125 11.546875  11.609375 8.7421875  15.0703125 8.7421875  C 18.53125 8.7421875  21.3203125 11.546875  21.3203125 14.9921875  Z " fill-rule="nonzero" fill="#606266" stroke="none" transform="matrix(1 0 0 1 150 141 )" />
  </g>
</svg>