<?xml version="1.0" encoding="utf-8"?>
<svg version="1.1" xmlns:xlink="http://www.w3.org/1999/xlink" width="240px" height="32px" xmlns="http://www.w3.org/2000/svg">
  <g transform="matrix(1 0 0 1 -139 -66 )">
    <path d="M 139.5 70  A 3.5 3.5 0 0 1 143 66.5 L 375 66.5  A 3.5 3.5 0 0 1 378.5 70 L 378.5 94  A 3.5 3.5 0 0 1 375 97.5 L 143 97.5  A 3.5 3.5 0 0 1 139.5 94 L 139.5 70  Z " fill-rule="nonzero" fill="#ffffff" stroke="none" />
    <path d="M 139.5 70  A 3.5 3.5 0 0 1 143 66.5 L 375 66.5  A 3.5 3.5 0 0 1 378.5 70 L 378.5 94  A 3.5 3.5 0 0 1 375 97.5 L 143 97.5  A 3.5 3.5 0 0 1 139.5 94 L 139.5 70  Z " stroke-width="1" stroke="#409eff" fill="none" />
  </g>
</svg>