<?xml version="1.0" encoding="utf-8"?>
<svg version="1.1" xmlns:xlink="http://www.w3.org/1999/xlink" width="14px" height="13px" xmlns="http://www.w3.org/2000/svg">
  <g transform="matrix(1 0 0 1 -120 -22 )">
    <path d="M 11.0649496822034 10.8770616319443  C 12.7078919491526 9.62633825231478  13.9314088983051 7.96889467592609  13.9314088983051 6.09751157407391  C 13.9314088983051 2.77792245370347  10.6571106991526 0.0742910879630472  6.98192531779659 0.0742910879630472  C 3.08891684322043 0.0742910879630472  0.0231726694914869 2.7802734375  0.0231726694914869 6.09751157407391  C 0.0231726694914869 9.42180266203695  3.08891684322043 12.1207320601852  6.98192531779659 12.1207320601852  C 7.7976032838983 12.1207320601852  8.62023305084745 11.9114945023148  9.4382282838983 11.7046079282404  L 11.6813426906779 12.9506293402778  L 11.0649496822034 10.8770616319443  Z M 5.75609110169489 4.23553240740739  C 5.75609110169489 4.75274884259261  5.34130031779659 5.17592592592609  4.82918432203383 5.17592592592609  C 4.31706832627106 5.17592592592609  3.90227754237299 4.75509982638914  3.90227754237299 4.23553240740739  C 3.90227754237299 3.71596498842609  4.31706832627106 3.29513888888914  4.82918432203383 3.29513888888914  C 5.34130031779659 3.29513888888914  5.75609110169489 3.71596498842609  5.75609110169489 4.23553240740739  Z M 10.2585407838983 4.2284794560187  C 10.2585407838983 4.748046875  9.84375 5.16887297453695  9.33163400423723 5.16887297453695  C 8.81951800847469 5.16887297453695  8.40472722457639 4.748046875  8.40472722457639 4.2284794560187  C 8.40472722457639 3.70891203703695  8.81951800847469 3.2880859375  9.33163400423723 3.2880859375  C 9.84375 3.2880859375  10.2585407838983 3.70891203703695  10.2585407838983 4.2284794560187  Z " fill-rule="nonzero" fill="#00c800" stroke="none" transform="matrix(1 0 0 1 120 22 )" />
  </g>
</svg>