<?xml version="1.0" encoding="utf-8"?>
<svg version="1.1" xmlns:xlink="http://www.w3.org/1999/xlink" width="17px" height="15px" xmlns="http://www.w3.org/2000/svg">
  <g transform="matrix(1 0 0 1 -110 -16 )">
    <path d="M 16.8946986607143 5.82246555118127  C 16.1689732142856 2.54213828740194  12.5616908482143 0.103807824802971  8.44450334821431 0.103807824802971  C 3.84112723214298 0.103807824802971  0.0702008928572013 3.15575787401576  0.0702008928572013 7.03125  C 0.0702008928572013 9.2688853346458  1.32480468750009 11.1051304133857  3.42134486607142 12.5307578740158  L 2.58415178571431 14.98062253937  L 5.51077008928564 13.5526882381891  C 6.55904017857142 13.7533833661414  7.39860491071431 13.9609990157483  8.44450334821431 13.9609990157483  C 8.70775669642853 13.9609990157483  8.9686383928572 13.9494648129921  9.22714843750009 13.9287032480315  C 9.06350446428564 13.3842888779527  8.9686383928572 12.8144992618109  8.9686383928572 12.2216412401572  C 8.9686383928572 8.66218626968475  12.1110770089285 5.7740218996064  16.0883370535714 5.7740218996064  C 16.3610770089285 5.7740218996064  16.6290736607143 5.79247662401576  16.8946986607143 5.82246555118127  Z M 6.77011718750009 4.58599901574826  C 6.77011718750009 5.19731176181085  6.26021205357142 5.69328248031525  5.6317243303572 5.69328248031525  C 5.00323660714298 5.69328248031525  4.49333147321431 5.19731176181085  4.49333147321431 4.58599901574826  C 4.49333147321431 3.97468626968475  5.00323660714298 3.47871555118127  5.6317243303572 3.47871555118127  C 6.26021205357142 3.47871555118127  6.77011718750009 3.97468626968475  6.77011718750009 4.58599901574826  Z M 12.6186104910714 4.58599901574826  C 12.6186104910714 5.19731176181085  12.108705357143 5.69328248031525  11.4802176339285 5.69328248031525  C 10.8517299107143 5.69328248031525  10.3418247767856 5.19731176181085  10.3418247767856 4.58599901574826  C 10.3418247767856 3.97468626968475  10.8517299107143 3.47871555118127  11.4802176339285 3.47871555118127  C 12.108705357143 3.47871555118127  12.6186104910714 3.97468626968475  12.6186104910714 4.58599901574826  Z " fill-rule="nonzero" fill="#00c800" stroke="none" transform="matrix(1 0 0 1 110 16 )" />
  </g>
</svg>