<?xml version="1.0" encoding="utf-8"?>
<svg version="1.1" xmlns:xlink="http://www.w3.org/1999/xlink" width="4px" height="4px" xmlns="http://www.w3.org/2000/svg">
  <g transform="matrix(1 0 0 1 -190 -19 )">
    <path d="M 3.06910714285709 3.89390624999987  C 3.13374999999996 3.92287946428587  3.20180803571429 3.93562500000007  3.26986607142862 3.93562500000007  C 3.47060267857137 3.93562500000007  3.66495535714284 3.8166964285715  3.74582589285706 3.62062500000002  C 3.87863839285706 3.30892857142862  3.94656250000003 2.97792410714283  3.94656250000003 2.63390625000011  C 3.94656250000003 1.23908482142861  2.80352678571421 0.10441964285701  1.39787946428578 0.10441964285701  C 1.05459821428576 0.10441964285701  0.721093749999909 0.171875  0.40689732142846 0.303660714285797  C 0.14450892857144 0.412946428571559  0.0215625000000728 0.715089285714384  0.131562499999973 0.978660714285525  C 0.241674107142899 1.23897321428558  0.546116071428514 1.36111607142857  0.811584821428596 1.25183035714281  C 0.999508928571458 1.17459821428565  1.19703125000001 1.13285714285712  1.40109374999997 1.13285714285712  C 2.23660714285711 1.13285714285712  2.91341517857154 1.80787946428563  2.91341517857154 2.63390625000011  C 2.91341517857154 2.83631696428574  2.87468749999994 3.0324999999998  2.79357142857134 3.21877232142879  C 2.76578302527469 3.28280422685475  2.75144431043213 3.35186189047045  2.75144431043213 3.42166361158343  C 2.75144431043213 3.62891729474586  2.87695268329298 3.81552986934958  3.06890625000005 3.89368303571428  Z " fill-rule="nonzero" fill="#f5aa15" stroke="none" transform="matrix(1 0 0 1 190 19 )" />
  </g>
</svg>