<?xml version="1.0" encoding="utf-8"?>
<svg version="1.1" xmlns:xlink="http://www.w3.org/1999/xlink" width="9px" height="9px" xmlns="http://www.w3.org/2000/svg">
  <g transform="matrix(1 0 0 1 -189 -16 )">
    <path d="M 8.91560092037662 6.43720569349307  C 8.91215753424649 2.90742187500018  6.01935199058221 0.0365287885274483  2.46291202910948 0.0365287885274483  C 1.83758829195199 0.0365287885274483  1.21919948630148 0.126682898116542  0.625275577910998 0.300008026541036  C 0.181656678082163 0.431771725171075  -0.0698549871574414 0.892896511129948  0.0594044306506021 1.33326466181506  C 0.192059075342513 1.77368097174667  0.656675406678005 2.02331442636978  1.10053510273974 1.89501819349334  C 1.54315572539258 1.76601824954923  2.00187628211324 1.70063731403707  2.46291202910948 1.7008401113012  C 5.09368311215758 1.7008401113012  7.23522848886978 3.82637253852727  7.23522848886978 6.43720569349307  C 7.23522848886978 6.9052172517122  7.16527718321913 7.3697854238012  7.032502140411 7.81359696061645  C 6.89987157534256 8.25398919092459  7.14784353595883 8.71870184075351  7.59143835616442 8.85029698202061  C 7.67191245719187 8.87471372003438  7.75558914811654 8.8850197988013  7.83606324914376 8.8850197988013  C 8.19588505993147 8.8850197988013  8.5277504280823 8.65269959332181  8.63960027825351 8.29555062071904  C 8.82132919520541 7.69582352311636  8.91560092037662 7.07167968749991  8.91560092037662 6.43720569349307  Z " fill-rule="nonzero" fill="#f5aa15" stroke="none" transform="matrix(1 0 0 1 189 16 )" />
  </g>
</svg>