<?xml version="1.0" encoding="utf-8"?>
<svg version="1.1" xmlns:xlink="http://www.w3.org/1999/xlink" width="8px" height="7px" xmlns="http://www.w3.org/2000/svg">
  <g transform="matrix(1 0 0 1 -179 -26 )">
    <path d="M 7.94559895833322 3.46502063679236  C 7.94559895833322 1.57804392688695  6.16981770833331 0.0513340212264666  3.97848958333338 0.0513340212264666  C 1.78705729166677 0.0513340212264666  0.0113020833332484 1.57788915094352  0.0113020833332484 3.46502063679236  C 0.0113020833332484 5.35176518278286  1.78705729166677 6.87855247641528  3.97848958333338 6.87855247641528  C 6.16984374999993 6.87855247641528  7.94559895833322 5.35189416273579  7.94559895833322 3.46502063679236  Z M 4.07291666666674 4.31556603773606  C 4.07291666666674 5.06950545400923  3.44955729166668 5.68241818985871  2.68255208333335 5.68241818985871  C 1.9155208333334 5.68241818985871  1.29218749999995 5.06963443396216  1.29218749999995 4.31556603773606  C 1.29218749999995 3.56160082547149  1.91565104166671 2.94866229363197  2.68255208333335 2.94866229363197  C 3.44955729166668 2.94866229363197  4.07291666666674 3.56157502948099  4.07291666666674 4.31556603773606  Z M 5.28203125000005 3.21980395047149  C 5.11583333333328 3.50577830188695  4.77953124999999 3.62469781839627  4.53395833333343 3.48341317806626  C 4.28838541666664 3.34610112028304  4.22796874999995 3.00058962264166  4.39411458333325 2.71461527122619  C 4.5604166666667 2.4285377358492  4.89664062499992 2.30961821933943  5.14216145833325 2.4508770636794  C 5.38773437500004 2.59203272405648  5.44828125000004 2.93749262971687  5.28200520833343 3.21980395047149  Z " fill-rule="nonzero" fill="#040000" stroke="none" transform="matrix(1 0 0 1 179 26 )" />
  </g>
</svg>