<?xml version="1.0" encoding="utf-8"?>
<svg version="1.1" xmlns:xlink="http://www.w3.org/1999/xlink" width="25px" height="25px" xmlns="http://www.w3.org/2000/svg">
  <g transform="matrix(1 0 0 1 -1161 -158 )">
    <path d="M 1161 158  L 1186 158  L 1186 183  L 1161 183  L 1161 158  " fill-rule="nonzero" fill="#cccccc" stroke="none" />
    <path d="M 1163 160  L 1184 160  L 1184 181  L 1163 181  L 1163 160  " fill-rule="nonzero" fill="#ffffff" stroke="none" />
    <path d="M 1175.875 165.5  C 1174.825 165.5  1174 164.675  1174 163.625  C 1174 162.575  1174.825 161.75  1175.875 161.75  C 1176.925 161.75  1177.75 162.575  1177.75 163.625  C 1177.75 164.675  1176.925 165.5  1175.875 165.5  " fill-rule="nonzero" fill="#cccccc" stroke="none" />
    <path d="M 1164 181  L 1164 170  L 1169 165  L 1176 169  L 1180 168  L 1184 169  L 1184 181  L 1164 181  " fill-rule="nonzero" fill="#169bd5" stroke="none" />
  </g>
</svg>