<?xml version="1.0" encoding="utf-8"?>
<svg version="1.1" xmlns:xlink="http://www.w3.org/1999/xlink" width="17px" height="16px" xmlns="http://www.w3.org/2000/svg">
  <g transform="matrix(1 0 0 1 -245 -13 )">
    <path d="M 15.1980000000001 10.3032967032968  C 17.4483155064274 7.92475486037893  17.4331669738983 4.11754771923643  15.164 1.75824175824164  C 12.8381796236094 -0.539205586091612  9.17682037639065 -0.539205586091612  6.85100000000011 1.75824175824164  L 1.86999999999989 6.87472527472528  C -0.423463440577052 9.24984550689578  -0.423463440577052 13.0974072403569  1.86999999999989 15.4725274725274  C 2.18932972998914 15.8051397335203  2.62379531564284 15.992197524195  3.077 15.992197524195  C 4.01641204855355 15.992197524195  4.77795598120588 15.2045632047093  4.77795598120588 14.2329670329668  C 4.77795598120588 13.7685438169324  4.60039471188861 13.3229617541206  4.28400000000011 12.9934065934067  C 3.32009171698633 11.9918809863461  3.32009171698633 10.3729541784892  4.28400000000011 9.37142857142862  L 9.29899999999998 4.18461538461543  C 10.2783444614367 3.21561671899326  11.8216555385632 3.21561671899326  12.8009999999999 4.18461538461543  C 13.7649082830137 5.18614099167598  13.7649082830137 6.80506779953294  12.8009999999999 7.80659340659349  L 11.5940000000001 9.05494505494516  C 11.2724055201527 9.38521497607144  11.0915440187941 9.83456529090427  11.0915440187941 10.3032967032968  C 11.0915440187941 11.2748928750393  11.8530879514465 12.0625271945246  12.7925 12.0625271945246  C 13.2415391970037 12.0625271945246  13.6723613539846 11.8788827013714  13.991 11.5516483516485  L 15.1980000000001 10.3032967032968  Z " fill-rule="nonzero" fill="#00a74b" stroke="none" transform="matrix(1 0 0 1 245 13 )" />
  </g>
</svg>