<?xml version="1.0" encoding="utf-8"?>
<svg version="1.1" xmlns:xlink="http://www.w3.org/1999/xlink" width="50px" height="50px" xmlns="http://www.w3.org/2000/svg">
  <g transform="matrix(1 0 0 1 -97 0 )">
    <path d="M 122 0  C 136 0  147 11  147 25  C 147 39  136 50  122 50  C 108 50  97 39  97 25  C 97 11  108 0  122 0  Z " fill-rule="nonzero" fill="#f6f7fb" stroke="none" />
    <path d="M 122 0.5  C 135.72 0.5  146.5 11.28  146.5 25  C 146.5 38.72  135.72 49.5  122 49.5  C 108.28 49.5  97.5 38.72  97.5 25  C 97.5 11.28  108.28 0.5  122 0.5  Z " stroke-width="1" stroke="#f6f7fb" fill="none" />
  </g>
</svg>