<?xml version="1.0" encoding="utf-8"?>
<svg version="1.1" xmlns:xlink="http://www.w3.org/1999/xlink" width="21px" height="16px" xmlns="http://www.w3.org/2000/svg">
  <g transform="matrix(1 0 0 1 -174 -19 )">
    <path d="M 20.7795724693251 8.64887019230764  C 20.2210554064418 7.05673076923085  18.5052183186349 6.47526442307708  18.1145130368097 6.44062500000018  C 17.7239084068251 6.40596153846172  17.3698655578987 6.20168269230771  17.6289937212423 5.77944711538476  C 17.8882225364264 5.35718749999978  18.3663691046779 4.1283894230769  17.446612586273 3.26307692307682  C 16.5265541123467 2.39432692307673  14.514825776457 2.72312499999998  13.0910551667944 3.28389423076942  C 11.67100867523 3.84463942307684  11.7476047258435 3.45348557692296  11.7913882764572 3.06935096153848  C 11.8389462710888 2.66435096153828  12.6055358512269 0.400600961538657  10.2617067676381 0.127163461538657  C 7.1914481882668 -0.229326923076769  3.25231259585894 3.37389423076911  1.86135448619643 5.45072115384619  C -0.241564417177869 8.58670673076904  0.0907879601227251 10.7084855769231  0.0907879601227251 10.7084855769231  L 0.105382476993782 10.7084855769231  C 0.357238544861957 13.636826923077  4.90614814992341 15.9697596153846  10.4807754984663 15.9697596153846  C 15.2743194018406 15.9697596153846  19.311993146089 14.2425240384614  20.50574913727 11.895769230769  C 20.50574913727 11.895769230769  20.5093474405676 11.8853605769232  20.5202178393406 11.8679807692306  C 20.6444725364263 11.6154326923079  20.7393872220091 11.3591346153844  20.7978911042944 11.0926442307691  C 20.9656777223927 10.4627163461537  21.0936817005368 9.5490144230771  20.7795724693251 8.6488942307692  Z M 16.9792860908742 10.1753605769231  C 16.9792860908742 12.6709134615385  13.7592324098925 14.689014423077  9.79090778374234 14.689014423077  C 5.82245734279149 14.689014423077  2.60250431365034 12.6675  2.60250431365034 10.1753605769231  C 2.60250431365034 7.68326923076938  5.81883387653374 5.66189903846134  9.79090778374234 5.66189903846134  C 13.7592324098925 5.66189903846134  16.9792860908742 7.68326923076938  16.9792860908742 10.1753605769231  Z " fill-rule="nonzero" fill="#e71f19" stroke="none" transform="matrix(1 0 0 1 174 19 )" />
  </g>
</svg>