<?xml version="1.0" encoding="utf-8"?>
<svg version="1.1" xmlns:xlink="http://www.w3.org/1999/xlink" width="17px" height="16px" xmlns="http://www.w3.org/2000/svg">
  <g transform="matrix(1 0 0 1 -238 -21 )">
    <path d="M 13.9524239849789 0.0492554867882973  C 13.5151064346821 0.0492554867882973  13.0942655270374 0.218241738015877  12.7757575757576 0.52173913043498  C 12.10996958484 1.20006513793214  12.10996958484 2.29558703598104  12.7757575757576 2.97391304347821  C 13.7494023060744 3.96455250263625  13.7494023060744 5.56588227997236  12.7757575757576 6.5565217391304  L 7.72727272727275 11.7217391304348  C 7.25117009322389 12.2742495401526  6.56245659433307 12.5913043478263  5.83838383838383 12.5913043478263  C 4.4537669201211 12.5913043478263  3.33131313131321 11.454496930005  3.33131313131321 10.0521739130436  C 3.33131313131321 9.31884191469089  3.64436472171792 8.62132133780915  4.18989898989889 8.1391304347826  L 5.32323232323233 6.90434782608691  C 5.64282294130157 6.57837478668489  5.82217775879371 6.13763600716493  5.82217775879371 5.67826086956529  C 5.82217775879371 4.71722552577648  5.05294146318533 3.93815244889447  4.10404040404046 3.93815244889447  C 3.64625789458864 3.93815244889447  3.20740376766594 4.12317700271387  2.88484848484859 4.45217391304368  L 1.75151515151515 5.73913043478251  C 0.728629863661126 6.85261335405721  0.15999912399252 8.31707712287198  0.15999912399252 9.83795485140399  C 0.15999912399252 13.1612683025596  2.82006084267482 15.8553461557517  6.10141326540679 15.8553461557517  C 7.60308799231598 15.8553461557517  9.04906105697887 15.2794439232484  10.1484848484849 14.2434782608698  L 15.2141414141415 9.11304347826081  C 17.5307711520979 6.76373977035291  17.5307711520979 2.95799936008189  15.2141414141415 0.608695652173992  C 14.8890724090738 0.252074971765069  14.4316492653625 0.0492554867882973  13.9524239849789 0.0492554867882973  Z " fill-rule="nonzero" fill="#00a74b" stroke="none" transform="matrix(1 0 0 1 238 21 )" />
  </g>
</svg>