<?xml version="1.0" encoding="utf-8"?>
<svg version="1.1" xmlns:xlink="http://www.w3.org/1999/xlink" width="50px" height="50px" xmlns="http://www.w3.org/2000/svg">
  <g transform="matrix(1 0 0 1 -268 -229 )">
    <path d="M 269 254  A 24 24 0 0 1 293 230 A 24 24 0 0 1 317 254 A 24 24 0 0 1 293 278 A 24 24 0 0 1 269 254 Z " fill-rule="nonzero" fill="#f6f6f6" stroke="none" />
    <path d="M 268.5 254  A 24.5 24.5 0 0 1 293 229.5 A 24.5 24.5 0 0 1 317.5 254 A 24.5 24.5 0 0 1 293 278.5 A 24.5 24.5 0 0 1 268.5 254 Z " stroke-width="1" stroke="#000000" fill="none" stroke-opacity="0.0470588235294118" />
  </g>
</svg>