<?xml version="1.0" encoding="utf-8"?>
<svg version="1.1" xmlns:xlink="http://www.w3.org/1999/xlink" width="48px" height="20px" xmlns="http://www.w3.org/2000/svg">
  <g transform="matrix(1 0 0 1 -340 -468 )">
    <path d="M 341 470  A 1 1 0 0 1 342 469 L 386 469  A 1 1 0 0 1 387 470 L 387 486  A 1 1 0 0 1 386 487 L 342 487  A 1 1 0 0 1 341 486 L 341 470  Z " fill-rule="nonzero" fill="#c9c9c9" stroke="none" fill-opacity="0.00784313725490196" />
    <path d="M 340.5 470  A 1.5 1.5 0 0 1 342 468.5 L 386 468.5  A 1.5 1.5 0 0 1 387.5 470 L 387.5 486  A 1.5 1.5 0 0 1 386 487.5 L 342 487.5  A 1.5 1.5 0 0 1 340.5 486 L 340.5 470  Z " stroke-width="1" stroke="#5e5e5e" fill="none" stroke-opacity="0.298039215686275" />
  </g>
</svg>