<?xml version="1.0" encoding="utf-8"?>
<svg version="1.1" xmlns:xlink="http://www.w3.org/1999/xlink" width="10px" height="16px" preserveAspectRatio="xMidYMin meet" viewBox="1396 525  8 16" xmlns="http://www.w3.org/2000/svg">
  <path d="M 1376 536.5  L 1397 536.5  A 3 3 0 0 0 1400.5 533.5 A 3 3 0 0 1 1403.5 530.5 L 1406 530.5  A 5 5 0 0 1 1411.5 535.5 L 1411.5 542  " stroke-width="1" stroke="#ff3399" fill="none" />
  <path d="M 1378 533.5  A 3 3 0 0 0 1375 536.5 A 3 3 0 0 0 1378 539.5 A 3 3 0 0 0 1381 536.5 A 3 3 0 0 0 1378 533.5 Z " fill-rule="nonzero" fill="#ff3399" stroke="none" />
</svg>