<?xml version="1.0" encoding="utf-8"?>
<svg version="1.1" xmlns:xlink="http://www.w3.org/1999/xlink" width="163px" height="54px" xmlns="http://www.w3.org/2000/svg">
  <defs>
    <filter x="887px" y="250px" width="163px" height="54px" filterUnits="userSpaceOnUse" id="filter375">
      <feOffset dx="5" dy="5" in="SourceAlpha" result="shadowOffsetInner" />
      <feGaussianBlur stdDeviation="2.5" in="shadowOffsetInner" result="shadowGaussian" />
      <feComposite in2="shadowGaussian" operator="atop" in="SourceAlpha" result="shadowComposite" />
      <feColorMatrix type="matrix" values="0 0 0 0 0  0 0 0 0 0  0 0 0 0 0  0 0 0 0.349019607843137 0  " in="shadowComposite" />
    </filter>
    <g id="widget376">
      <path d="M 888 260  A 9 9 0 0 1 897 251 L 1030 251  A 9 9 0 0 1 1039 260 L 1039 284  A 9 9 0 0 1 1030 293 L 897 293  A 9 9 0 0 1 888 284 L 888 260  Z " fill-rule="nonzero" fill="#ffffff" stroke="none" />
      <path d="M 887.5 260  A 9.5 9.5 0 0 1 897 250.5 L 1030 250.5  A 9.5 9.5 0 0 1 1039.5 260 L 1039.5 284  A 9.5 9.5 0 0 1 1030 293.5 L 897 293.5  A 9.5 9.5 0 0 1 887.5 284 L 887.5 260  Z " stroke-width="1" stroke="#797979" fill="none" stroke-opacity="0.196078431372549" />
    </g>
  </defs>
  <g transform="matrix(1 0 0 1 -887 -250 )">
    <use xlink:href="#widget376" filter="url(#filter375)" />
    <use xlink:href="#widget376" />
  </g>
</svg>