<?xml version="1.0" encoding="utf-8"?>
<svg version="1.1" xmlns:xlink="http://www.w3.org/1999/xlink" width="15px" height="21px" xmlns="http://www.w3.org/2000/svg">
  <g transform="matrix(1 0 0 1 -218 -88 )">
    <path d="M 13.9346590909091 3.5  L 0.804332386363636 3.5  L 2.06143465909091 19.39765625  C 2.06143465909091 20.28359375  2.75923295454545 21  3.62215909090909 21  L 11.1328125 21  C 11.9957386363636 21  12.6935369318182 20.28359375  12.6935369318182 19.39765625  L 13.9346590909091 3.5  Z M 5.08167613636364 17.9921875  L 4.08558238636364 17.9921875  L 3.72869318181818 5.25  L 4.71413352272727 5.25  L 5.08167613636364 17.9921875  Z M 7.83025568181818 5.25  L 7.83025568181818 17.9921875  L 7 17.9921875  L 7 5.25  L 7.83025568181818 5.25  Z M 10.9730113636364 5.25  L 10.6161221590909 17.9921875  L 9.62535511363636 17.9921875  L 9.98757102272727 5.25  L 10.9730113636364 5.25  Z M 14.7017045454545 3  C 14.7017045454545 1.990625  14.0411931818182 1.53125  13.1036931818182 1.53125  L 11.1860795454545 1.53125  L 9.78515625 0.2734375  C 9.58806818181818 0.0984375  9.33771306818182 0  9.08203125 0  L 5.63032670454546 0  C 5.36931818181818 0  5.11363636363636 0.0984375  4.91654829545455 0.2734375  L 3.515625 1.53125  L 1.59801136363636 1.53125  C 0.660511363636364 1.53125  0 1.990625  0 3  L 14.7017045454545 3  Z " fill-rule="nonzero" fill="#606266" stroke="none" transform="matrix(1 0 0 1 218 88 )" />
  </g>
</svg>